<svg width="421" height="167" viewBox="0 0 421 167" fill="none" xmlns="http://www.w3.org/2000/svg">
<path fill-rule="evenodd" clip-rule="evenodd" d="M358.342 0C369.387 0 378.342 8.9543 378.342 20V147C378.342 158.046 369.387 167 358.342 167H19.9998C8.95407 167 -0.000244141 158.046 -0.000244141 147V20C-0.000244141 8.95431 8.95407 0 19.9998 0H358.342ZM420.998 73.4398C420.995 73.4426 420.992 73.4483 420.987 73.4569C420.991 73.4512 420.995 73.4455 420.998 73.4398ZM420.987 73.4569C420.968 73.493 420.934 73.5793 420.883 73.7104C419.866 76.295 412.003 96.2808 378.346 91.5482V55.8343C385.132 77.2358 419.097 76.3169 420.987 73.4569Z" fill="white"/>
</svg>
