<svg width="72" height="65" viewBox="0 0 72 65" fill="none" xmlns="http://www.w3.org/2000/svg">
<path d="M26.3687 47.2016C31.2152 46.9272 35.8368 45.066 39.521 41.9051C43.2051 38.7442 45.7471 34.4591 46.7549 29.7106C47.7627 24.9621 47.1804 20.0139 45.0978 15.629C43.0152 11.2442 39.5479 7.66626 35.2306 5.44695C30.9134 3.22764 25.9859 2.49023 21.2081 3.34843C16.4303 4.20663 12.0674 6.61277 8.7924 10.1958C5.51736 13.7789 3.512 18.3398 3.08554 23.1753C2.65909 28.0109 3.83523 32.8524 6.4326 36.9534L4.86957 41.6425V41.6498C4.26868 43.4451 3.97008 44.3409 4.18021 44.9418C4.36453 45.4616 4.78109 45.8745 5.30088 46.0588C5.89807 46.2726 6.79018 45.974 8.5744 45.3805L8.60021 45.3731L13.2893 43.8101C17.1857 46.2839 21.7611 47.4703 26.3687 47.2016ZM26.3687 47.2016C27.4732 50.3398 29.2711 53.1885 31.6286 55.536C33.9861 57.8834 36.8425 59.6691 39.9854 60.7602C43.1283 61.8513 46.4767 62.2197 49.7817 61.838C53.0866 61.4563 56.2629 60.3344 59.0744 58.5557L63.7635 60.1187H63.7746C65.5699 60.7196 66.4656 61.0182 67.0665 60.8044C67.3232 60.7122 67.5562 60.5642 67.7487 60.371C67.9412 60.1779 68.0884 59.9444 68.1798 59.6874C68.3936 59.0902 68.095 58.1908 67.4942 56.3881L65.9311 51.699L66.4546 50.8327C68.3755 47.4684 69.379 43.6586 69.3648 39.7845C69.3506 35.9105 68.3192 32.1082 66.3737 28.758C64.4282 25.4079 61.6369 22.6275 58.2792 20.6951C54.9215 18.7628 51.1151 17.7462 47.2411 17.7472L46.4116 17.7619L45.9951 17.784" stroke="white" stroke-width="4.48" stroke-linecap="round" stroke-linejoin="round"/>
</svg>
