<svg width="80" height="58" viewBox="0 0 80 58" fill="none" xmlns="http://www.w3.org/2000/svg">
<path d="M13.8838 3C10.4281 6.44663 7.68761 10.5422 5.8198 15.0514C3.95199 19.5606 2.99371 24.3944 3.00003 29.2751C2.99371 34.1558 3.95199 38.9897 5.8198 43.4989C7.68761 48.008 10.4281 52.1036 13.8838 55.5503M66.4338 55.5503C69.8896 52.1036 72.6301 48.008 74.4979 43.4989C76.3657 38.9897 77.324 34.1558 77.3177 29.2751C77.324 24.3944 76.3657 19.5606 74.4979 15.0514C72.6301 10.5422 69.8896 6.44663 66.4338 3M58.5525 47.6688C60.9714 45.256 62.8896 42.3888 64.1969 39.2322C65.5042 36.0756 66.1747 32.6917 66.17 29.2751C66.1743 25.8586 65.5036 22.4748 64.1963 19.3183C62.8891 16.1617 60.9711 13.2945 58.5525 10.8814M21.7652 10.8814C19.3463 13.2943 17.4281 16.1614 16.1208 19.3181C14.8135 22.4747 14.143 25.8585 14.1477 29.2751C14.1434 32.6917 14.8141 36.0754 16.1214 39.232C17.4286 42.3885 19.3466 45.2557 21.7652 47.6688" stroke="white" stroke-width="4.48" stroke-linecap="round"/>
<path d="M46.0699 21.8418C49.9864 21.8418 53.1635 24.8368 53.1635 28.5304C53.1635 33.3388 48.4332 37.4486 46.0699 39.6781C44.4925 41.1645 42.5212 42.6508 40.1579 44.1372C37.7928 42.6508 35.8234 41.1645 34.246 39.6781C31.8808 37.4486 27.1523 33.3388 27.1523 28.5304C27.1523 24.8368 30.3294 21.8418 34.246 21.8418C36.7133 21.8418 38.8871 23.0309 40.1579 24.8331C41.4288 23.0309 43.6026 21.8418 46.0699 21.8418Z" stroke="white" stroke-width="4.48" stroke-linejoin="round"/>
</svg>
