<svg width="456" height="344" viewBox="0 0 456 344" fill="none" xmlns="http://www.w3.org/2000/svg">
<path d="M42.3242 323.562C38.6262 321.19 36.0839 321.073 30.9827 323.205L29.6516 323.782L27.4256 324.827C27.1558 324.958 26.8863 325.089 26.6174 325.222C25.2389 325.898 23.7926 326.117 21.5685 326.089L19.4338 326.032C15.7803 325.943 13.6031 326.312 11.4709 327.953C10.5736 328.592 9.53398 329.777 8.84767 330.872C6.10297 335.175 7.33274 340.662 11.8208 343.54L12.5085 343.959C12.8516 344.157 13.1917 344.336 13.5555 344.508L14.3203 344.844L14.7356 345.01L15.6696 345.346L16.1967 345.522L18.0701 346.113L20.603 346.864L22.099 347.334C23.8278 347.903 25.0936 348.456 26.0545 349.072C27.0182 349.69 28.0453 350.611 29.2877 351.944L30.3411 353.108L32.0877 355.098L33.4036 356.556L34.141 357.331C34.3737 357.566 34.5916 357.782 34.8049 357.98L35.4297 358.535C35.7383 358.794 36.0425 359.028 36.3661 359.257L37.0344 359.707C41.5224 362.585 47.005 361.403 49.7595 357.084C50.4542 355.995 51.0827 354.558 51.3044 353.381C51.8212 351.11 51.3976 349.045 50.1355 346.053L49.7247 345.107L48.8637 343.189C47.8298 340.837 47.3977 339.28 47.4327 337.678L47.4654 335.956L47.4622 334.401C47.3892 328.258 46.3444 326.139 42.3242 323.562ZM69.0009 329.885L68.9168 329.831C65.4693 327.692 60.5989 328.329 56.6961 330.995C51.8752 334.283 49.6689 339.859 52.6581 343.98C53.1979 344.718 53.8693 345.342 54.6369 345.834C58.0855 348.046 63.0177 347.424 66.9557 344.733C71.7637 341.44 73.9605 335.854 70.9893 331.749C70.4533 331.016 69.7751 330.381 69.0009 329.885ZM45.3785 300.36C45.0647 300.158 44.857 300.032 44.5977 299.913L44.3111 299.787C39.6841 297.56 34.3599 300.555 32.1336 305.834C30.0891 310.723 31.163 316.405 35.2476 319.024L35.7796 319.347C35.8622 319.391 35.9462 319.433 36.0312 319.472L36.315 319.597C40.9449 321.825 46.2662 318.829 48.4925 313.549C50.5459 308.659 49.4687 302.982 45.3785 300.36Z" fill="#618291" fill-opacity="0.15"/>
<path d="M62.0352 311.045C57.9478 308.424 52.3614 309.83 48.8013 313.748C44.9513 317.99 44.4709 324.09 48.6003 327.518C48.8677 327.736 49.128 327.929 49.397 328.101C53.2911 330.598 58.5793 329.442 62.1475 325.915L62.6365 325.401C66.4865 321.16 66.9669 315.059 62.8375 311.631C62.5829 311.419 62.3149 311.223 62.0352 311.045ZM25.3971 301.928C24.6295 301.436 23.7852 301.089 22.9024 300.907C17.9068 299.914 13.7838 304.269 12.8294 310.03C12.0459 314.743 13.5461 319.489 16.9947 321.701C17.7623 322.193 18.6066 322.54 19.4895 322.722C24.485 323.715 28.608 319.36 29.5624 313.6C30.3459 308.887 28.8458 304.14 25.3971 301.928Z" fill="#618291" fill-opacity="0.15"/>
<path d="M75.3718 249.856C71.0162 249.284 68.6658 250.26 64.9566 254.359L63.9976 255.448L62.4283 257.341C62.2397 257.575 62.0519 257.808 61.8648 258.043C60.9051 259.241 59.6896 260.055 57.665 260.976L55.7091 261.833C52.365 263.307 50.5517 264.567 49.3207 266.96C48.7809 267.921 48.3442 269.435 48.189 270.718C47.5368 275.78 50.9845 280.222 56.2705 280.916L57.0714 281.003C57.4664 281.036 57.8501 281.053 58.2526 281.054L59.0875 281.033L59.5339 281.006L60.5224 280.913L61.0743 280.848L63.0208 280.585L65.6324 280.186L67.1863 279.975C68.9932 279.755 70.3739 279.717 71.5057 279.865C72.6407 280.014 73.9621 280.411 75.6533 281.087L77.1021 281.693L79.5294 282.75L81.3409 283.51L82.3379 283.897C82.6487 284.011 82.9375 284.113 83.2147 284.202L84.0164 284.438C84.4058 284.541 84.781 284.624 85.1713 284.694L85.9675 284.816C91.2536 285.511 95.7119 282.108 96.3664 277.027C96.5315 275.746 96.4886 274.178 96.1883 273.018C95.6895 270.743 94.4273 269.055 92.0123 266.885L91.2378 266.203L89.6425 264.834C87.7058 263.146 86.6522 261.921 86.0021 260.456L85.2987 258.884L84.6342 257.478C81.9539 251.95 80.1068 250.478 75.3718 249.856ZM102.203 244.225L102.104 244.212C98.074 243.744 93.9377 246.392 91.5405 250.466C88.5775 255.493 88.9541 261.479 93.4125 263.935C94.2151 264.373 95.0884 264.652 95.9925 264.771C100.054 265.305 104.253 262.643 106.671 258.532C109.621 253.506 109.232 247.516 104.796 245.066C103.999 244.631 103.115 244.344 102.203 244.225ZM68.2616 227.56C67.892 227.511 67.6504 227.486 67.3649 227.488L67.0518 227.496C61.9171 227.45 58.3735 232.426 58.6057 238.151C58.8363 243.445 62.2259 248.129 67.0368 248.761L67.6558 248.827C67.7495 248.832 67.8432 248.834 67.9368 248.834L68.2466 248.825C73.3846 248.872 76.9249 243.895 76.6927 238.17C76.4695 232.871 73.0791 228.193 68.2616 227.56Z" fill="#618291" fill-opacity="0.15"/>
<path d="M87.879 230.138C83.0648 229.506 78.6081 233.156 77.0536 238.216C75.3749 243.693 77.5365 249.419 82.7321 250.763C83.0669 250.847 83.3843 250.91 83.701 250.952C88.2876 251.554 92.5812 248.257 94.3088 243.547L94.533 242.874C96.2117 237.397 94.0501 231.672 88.8546 230.327C88.534 230.244 88.208 230.181 87.879 230.138ZM50.8446 237.481C49.9405 237.362 49.0287 237.407 48.1525 237.619C43.2095 238.846 41.3315 244.541 42.9195 250.161C44.2163 254.759 47.5939 258.416 51.6558 258.949C52.5599 259.068 53.4717 259.023 54.3478 258.812C59.2909 257.584 61.1689 251.889 59.5809 246.27C58.2841 241.671 54.9065 238.014 50.8446 237.481Z" fill="#618291" fill-opacity="0.15"/>
<path d="M162.19 212.058C158.526 209.664 155.973 209.524 150.797 211.595L149.447 212.156L147.186 213.175C146.911 213.303 146.638 213.431 146.364 213.56C144.964 214.219 143.505 214.423 141.27 214.375L139.125 214.298C135.455 214.174 133.258 214.521 131.078 216.133C130.162 216.76 129.09 217.928 128.376 219.011C125.522 223.265 126.636 228.733 131.084 231.638L131.766 232.062C132.106 232.262 132.444 232.443 132.806 232.618L133.568 232.959L133.981 233.128L134.913 233.471L135.439 233.652L137.309 234.257L139.838 235.027L141.332 235.509C143.057 236.092 144.317 236.654 145.269 237.276C146.225 237.9 147.237 238.825 148.456 240.162L149.489 241.33L151.201 243.326L152.491 244.789L153.215 245.566C153.444 245.803 153.658 246.019 153.868 246.218L154.484 246.776C154.788 247.036 155.089 247.273 155.409 247.503L156.071 247.957C160.519 250.862 166.056 249.738 168.921 245.469C169.643 244.392 170.307 242.969 170.556 241.8C171.126 239.546 170.746 237.488 169.544 234.502L169.152 233.556L168.329 231.641C167.342 229.291 166.942 227.739 167.012 226.146L167.084 224.433L167.115 222.887C167.178 216.777 166.174 214.66 162.19 212.058ZM188.867 218.599L188.783 218.545C185.365 216.385 180.455 216.972 176.473 219.587C171.554 222.812 169.212 228.337 172.125 232.463C172.652 233.202 173.313 233.83 174.073 234.326C177.491 236.559 182.463 235.986 186.481 233.348C191.388 230.118 193.72 224.583 190.824 220.473C190.302 219.739 189.634 219.1 188.867 218.599ZM165.775 189.01C165.465 188.807 165.258 188.68 165.001 188.559L164.715 188.43C160.113 186.172 154.695 189.1 152.34 194.33C150.176 199.173 151.129 204.834 155.177 207.477L155.705 207.804C155.787 207.849 155.871 207.891 155.955 207.931L156.238 208.057C160.842 210.318 166.258 207.388 168.613 202.158C170.786 197.313 169.829 191.658 165.775 189.01Z" fill="#618291" fill-opacity="0.15"/>
<path d="M182.287 199.794C178.236 197.149 172.589 198.495 168.923 202.357C164.959 206.539 164.341 212.603 168.416 216.051C168.68 216.271 168.937 216.464 169.204 216.638C173.063 219.159 178.405 218.059 182.07 214.584L182.573 214.079C186.537 209.896 187.155 203.833 183.08 200.385C182.829 200.172 182.564 199.974 182.287 199.794ZM145.659 190.38C144.898 189.883 144.057 189.53 143.174 189.341C138.174 188.306 133.933 192.598 132.846 198.318C131.953 202.998 133.356 207.733 136.774 209.965C137.534 210.462 138.375 210.816 139.259 211.005C144.259 212.039 148.5 207.748 149.587 202.027C150.479 197.347 149.077 192.612 145.659 190.38Z" fill="#618291" fill-opacity="0.15"/>
<path d="M267.463 208.906C263.52 206.968 260.981 207.139 256.154 209.834L254.897 210.558L252.803 211.848C252.55 212.009 252.297 212.17 252.045 212.332C250.752 213.16 249.339 213.541 247.126 213.765L244.999 213.95C241.359 214.275 239.237 214.887 237.304 216.759C236.485 217.496 235.586 218.791 235.028 219.956C232.788 224.542 234.63 229.854 239.415 232.206L240.146 232.545C240.509 232.703 240.867 232.842 241.248 232.972L242.046 233.219L242.477 233.337L243.444 233.566L243.987 233.681L245.915 234.056L248.517 234.515L250.057 234.813C251.839 235.183 253.159 235.59 254.183 236.093C255.211 236.598 256.336 237.397 257.721 238.58L258.899 239.618L260.86 241.397L262.332 242.697L263.152 243.384C263.41 243.591 263.651 243.78 263.885 243.953L264.569 244.434C264.905 244.656 265.234 244.855 265.581 245.046L266.296 245.418C271.081 247.769 276.395 245.974 278.643 241.372C279.21 240.211 279.672 238.711 279.759 237.517C280.015 235.202 279.361 233.198 277.769 230.369L277.253 229.475L276.181 227.667C274.888 225.447 274.282 223.949 274.136 222.353L273.973 220.638L273.794 219.094C273.027 212.999 271.749 211.012 267.463 208.906ZM294.684 212.17L294.594 212.126C290.927 210.391 286.16 211.574 282.584 214.665C278.166 218.478 276.604 224.268 280.04 228.023C280.66 228.695 281.398 229.24 282.216 229.642C285.893 231.449 290.723 230.273 294.332 227.155C298.736 223.339 300.287 217.54 296.871 213.797C296.255 213.13 295.509 212.575 294.684 212.17ZM267.873 185.507C267.539 185.343 267.318 185.241 267.047 185.152L266.748 185.059C261.898 183.37 256.947 186.948 255.332 192.445C253.854 197.534 255.564 203.057 259.918 205.198L260.484 205.458C260.571 205.493 260.659 205.525 260.748 205.555L261.044 205.646C265.896 207.336 270.844 203.757 272.459 198.26C273.946 193.168 272.234 187.65 267.873 185.507Z" fill="#618291" fill-opacity="0.15"/>
<path d="M285.638 194.236C281.28 192.094 275.889 194.124 272.795 198.419C269.449 203.069 269.662 209.185 274.153 212.124C274.443 212.31 274.723 212.472 275.01 212.613C279.162 214.653 284.285 212.906 287.432 208.998L287.859 208.433C291.205 203.782 290.992 197.666 286.501 194.728C286.224 194.546 285.936 194.382 285.638 194.236ZM248.203 189.323C247.385 188.921 246.507 188.672 245.609 188.591C240.533 188.17 236.929 192.963 236.633 198.794C236.387 203.566 238.415 208.112 242.092 209.919C242.91 210.322 243.788 210.571 244.686 210.652C249.762 211.073 253.366 206.28 253.662 200.448C253.908 195.677 251.88 191.13 248.203 189.323Z" fill="#618291" fill-opacity="0.15"/>
<path d="M377.517 186.572C374.625 183.285 372.203 182.467 366.662 183.08L365.21 183.259L362.759 183.636C362.461 183.686 362.163 183.736 361.865 183.788C360.339 184.048 358.879 183.855 356.738 183.21L354.692 182.563C351.188 181.463 348.979 181.209 346.447 182.179C345.396 182.539 344.052 183.378 343.074 184.23C339.186 187.566 338.798 193.133 342.307 197.122L342.851 197.712C343.125 197.997 343.402 198.261 343.704 198.526L344.347 199.059L344.7 199.332L345.506 199.912L345.965 200.226L347.605 201.309L349.836 202.728L351.146 203.592C352.653 204.615 353.717 205.493 354.468 206.347C355.222 207.204 355.95 208.366 356.767 209.98L357.45 211.382L358.566 213.763L359.418 215.517L359.908 216.46C360.065 216.749 360.214 217.015 360.363 217.262L360.807 217.965C361.031 218.297 361.257 218.605 361.504 218.913L362.02 219.528C365.529 223.516 371.166 223.914 375.068 220.566C376.052 219.721 377.072 218.527 377.625 217.468C378.776 215.448 378.961 213.364 378.601 210.164L378.476 209.149L378.195 207.083C377.872 204.555 377.902 202.952 378.396 201.436L378.922 199.805L379.366 198.323C381.061 192.452 380.66 190.144 377.517 186.572ZM401.472 200.008L401.407 199.933C398.691 196.938 393.802 196.191 389.266 197.645C383.663 199.438 379.93 204.135 381.634 208.89C381.943 209.743 382.412 210.525 383.012 211.207C385.709 214.271 390.653 215.049 395.23 213.582C400.821 211.781 404.549 207.072 402.858 202.336C402.55 201.489 402.078 200.695 401.472 200.008ZM387.134 165.322C386.889 165.043 386.724 164.866 386.508 164.68L386.267 164.48C382.437 161.073 376.433 162.446 372.765 166.855C369.385 170.944 368.79 176.653 371.984 180.283L372.405 180.739C372.472 180.804 372.541 180.867 372.612 180.928L372.85 181.125C376.683 184.534 382.685 183.159 386.353 178.75C389.742 174.662 390.332 168.957 387.134 165.322Z" fill="#618291" fill-opacity="0.15"/>
<path d="M400.162 180.127C396.966 176.494 391.165 176.282 386.6 179.023C381.661 181.993 379.444 187.67 382.449 192.083C382.644 192.365 382.841 192.62 383.051 192.859C386.096 196.32 391.537 196.689 395.998 194.32L396.618 193.968C401.556 190.998 403.773 185.321 400.768 180.908C400.583 180.636 400.381 180.374 400.162 180.127ZM367.385 161.262C366.784 160.58 366.069 160.014 365.268 159.596C360.727 157.262 355.492 160.263 352.915 165.485C350.804 169.756 350.889 174.694 353.586 177.759C354.186 178.441 354.902 179.006 355.703 179.424C360.244 181.758 365.478 178.757 368.055 173.535C370.166 169.264 370.081 164.326 367.385 161.262Z" fill="#618291" fill-opacity="0.15"/>
<path d="M411.906 82.1583C408.243 79.7626 405.69 79.6206 400.513 81.6889L399.162 82.2493L396.9 83.2667C396.626 83.3941 396.352 83.5222 396.079 83.6511C394.678 84.3096 393.219 84.513 390.984 84.4627L388.839 84.3846C385.169 84.2592 382.972 84.604 380.791 86.2148C379.874 86.8418 378.802 88.0094 378.087 89.0912C375.23 93.3438 376.341 98.8127 380.787 101.72L381.469 102.144C381.809 102.345 382.147 102.526 382.509 102.701L383.27 103.043L383.684 103.212L384.615 103.556L385.141 103.736L387.011 104.342L389.54 105.115L391.033 105.598C392.758 106.181 394.017 106.744 394.969 107.366C395.924 107.991 396.936 108.917 398.154 110.255L399.186 111.423L400.897 113.42L402.186 114.883L402.91 115.661C403.139 115.898 403.353 116.114 403.563 116.313L404.178 116.872C404.482 117.132 404.783 117.369 405.103 117.6L405.764 118.054C410.21 120.962 415.749 119.841 418.616 115.573C419.339 114.497 420.004 113.074 420.253 111.906C420.825 109.652 420.446 107.594 419.245 104.606L418.854 103.661L418.032 101.745C417.047 99.395 416.648 97.8424 416.719 96.2493L416.791 94.5367L416.824 92.9903C416.89 86.8802 415.888 84.7626 411.906 82.1583ZM438.578 88.7157L438.495 88.6612C435.078 86.4993 430.168 87.0834 426.184 89.6956C421.262 92.9178 418.917 98.4415 421.828 102.569C422.354 103.309 423.015 103.937 423.775 104.434C427.192 106.668 432.164 106.099 436.184 103.463C441.092 100.236 443.428 94.7027 440.534 90.5901C440.012 89.8557 439.345 89.217 438.578 88.7157ZM415.505 59.1132C415.194 58.91 414.988 58.7825 414.73 58.661L414.445 58.5326C409.845 56.2715 404.424 59.1962 402.066 64.4245C399.899 69.2666 400.849 74.9277 404.896 77.5738L405.423 77.9006C405.505 77.9456 405.589 77.988 405.673 78.0279L405.956 78.1545C410.559 80.4174 415.976 77.4909 418.335 72.2625C420.51 67.4191 419.557 61.763 415.505 59.1132Z" fill="#618291" fill-opacity="0.15"/>
<path d="M432.009 69.9051C427.96 67.2572 422.312 68.6 418.644 72.4602C414.677 76.6403 414.055 82.7029 418.128 86.1538C418.392 86.3735 418.649 86.5672 418.915 86.7414C422.773 89.2641 428.115 88.1678 431.783 84.6953L432.286 84.19C436.253 80.0099 436.875 73.9472 432.802 70.4964C432.551 70.283 432.286 70.0854 432.009 69.9051ZM395.387 60.4692C394.626 59.972 393.785 59.6181 392.902 59.4286C387.903 58.3909 383.659 62.68 382.568 68.3999C381.673 73.0794 383.073 77.8155 386.489 80.0496C387.25 80.5469 388.091 80.9008 388.974 81.0902C393.973 82.128 398.217 77.8388 399.308 72.119C400.203 67.4395 398.803 62.7034 395.387 60.4692Z" fill="#618291" fill-opacity="0.15"/>
</svg>
