<svg width="169" height="169" viewBox="0 0 169 169" fill="none" xmlns="http://www.w3.org/2000/svg">
<circle cx="84.5004" cy="84.5004" r="78.6" fill="white" stroke="#618291" stroke-width="10"/>
<path fill-rule="evenodd" clip-rule="evenodd" d="M45.7833 100.879C46.49 99.8394 48.1919 92.2915 49.2789 91.1306C49.1969 86.6718 47.9583 71.2341 51.4962 64.2945C50.752 63.5456 48.7744 57.0952 49.2789 54.6567C47.6122 49.5499 58.3194 41.439 62.3943 39.2472C81.333 29.1411 108.777 40.2966 117.389 59.0181C122.565 70.2929 122.661 82.9163 123.246 95.0481C123.315 97.6449 123.555 100.262 123.552 102.856C123.178 105.135 121.362 107.456 122.738 109.351C124.259 110.398 127.333 112.948 125.964 114.394C125.162 115.058 123.881 114.673 123.011 115.311C122.568 115.558 122.291 116.099 121.773 116.181C117.04 116.002 113.7 115.987 108.953 115.796C106.874 115.728 103.71 116.603 101.324 114.861C92.9909 119.474 96.4765 112.782 94.7914 108.018C89.6601 109.744 79.4384 115.25 73.9689 115.428C69.5242 115.974 65.3679 113.399 60.9983 113.985C55.5697 115.992 49.2078 116.438 44.2353 113.043C42.9944 112.153 41.6138 113.183 40.0498 112.223C37.01 110.776 44.2492 102.484 45.7833 100.879Z" fill="#EDB98A"/>
<path fill-rule="evenodd" clip-rule="evenodd" d="M117.389 59.0181C108.777 40.2966 81.333 29.1411 62.3943 39.2472C58.3194 41.439 47.6122 49.5499 49.2789 54.6567C48.8975 56.5001 49.9346 60.6363 50.785 62.8688C54.7338 65.773 66.2644 65.1702 85.376 61.0605L86.1097 60.9019L92.636 64.7502L95.3167 74.7747C97.1166 76.5469 98.571 78.7105 99.6799 81.2655C101.479 79.2994 103.711 78.4419 106.378 78.6929C108.979 79.7945 110.894 80.9949 112.124 82.294C113.328 83.5671 113.353 86.4215 112.196 90.8571L112.124 91.1306L106.378 92.9108H103.712L96.3865 101.82L95.3168 110.984C95.5576 114.996 94.6478 118.557 101.324 114.861C103.71 116.603 106.874 115.728 108.953 115.796C113.7 115.987 117.04 116.002 121.773 116.181C122.291 116.099 122.568 115.558 123.011 115.311C123.881 114.673 125.162 115.058 125.964 114.394C127.333 112.948 124.259 110.398 122.738 109.351C121.362 107.456 123.178 105.135 123.552 102.856C123.555 100.262 123.315 97.6449 123.246 95.0481L123.194 93.955C122.65 82.1601 122.41 69.9546 117.389 59.0181ZM50.8758 95.3173L49.2074 89.029L49.2444 89.9749C49.2606 90.4145 49.2729 90.8023 49.2789 91.1306C48.1919 92.2915 46.49 99.8394 45.7833 100.879L45.6302 101.042C43.8241 102.976 37.1012 110.82 40.0498 112.223C41.6138 113.183 42.9944 112.153 44.2353 113.043C49.2078 116.438 55.5697 115.992 60.9983 113.985C61.6347 113.9 62.2666 113.881 62.8955 113.911L63.1546 113.103L57.2142 108.018L50.8758 95.3173Z" fill="#D6B370"/>
<path fill-rule="evenodd" clip-rule="evenodd" d="M51.9887 63.7029C52.0561 63.3177 51.5228 63.0305 51.3165 63.4208C49.8179 66.2563 49.2176 69.5402 48.6868 72.6722C48.1507 75.8372 47.7964 79.0153 47.7768 82.2282C47.7618 84.6996 47.9874 87.1996 48.4108 89.6728L48.3593 89.8488C48.2642 90.1721 48.1683 90.4952 48.0713 90.818L47.925 91.302C47.6422 92.2314 47.3744 93.165 47.084 94.0921C46.4776 96.0269 45.8391 97.9673 45.0571 99.8397C44.294 101.667 43.366 103.429 42.2629 105.076C41.1997 106.664 39.5125 108.006 38.7635 109.769C38.5024 110.384 38.8885 111.196 39.6095 111.098C39.6564 111.154 39.7279 111.195 39.8249 111.203C40.3847 111.252 40.9094 111.206 41.468 111.154C41.7799 111.124 41.7793 110.7 41.468 110.671C41.2307 110.649 40.9996 110.629 40.7688 110.616C42.3663 109.674 43.5059 107.835 44.4172 106.329C45.5882 104.394 46.4728 102.28 47.1938 100.143C47.9343 97.9478 48.4586 95.7072 48.8799 93.4322C48.9282 93.1703 48.9742 92.9083 49.0185 92.6458C49.5509 94.898 50.2364 97.1089 51.0489 99.2338L51.1627 99.5296C53.0358 104.362 55.5726 109.24 59.7919 112.434C59.9834 112.579 60.179 112.716 60.3762 112.851L60.1362 112.988C59.8973 113.123 59.6619 113.254 59.4318 113.36C58.5792 113.756 57.6537 114.058 56.7381 114.272C54.8471 114.714 52.8613 114.587 50.9321 114.649C50.2993 114.669 49.9394 115.613 50.5862 115.92C52.717 116.929 55.0185 116.715 57.2179 116.005C58.3062 115.653 59.3275 115.16 60.2723 114.518C60.6629 114.252 61.1165 113.924 61.4995 113.545C65.7192 115.895 70.9639 116.158 75.6606 115.317C78.1012 114.88 80.4663 114.083 82.5472 112.719C84.5488 111.407 85.9755 109.746 86.9941 107.594C87.0845 107.403 86.8332 107.165 86.679 107.352C83.4795 111.219 77.9734 112.832 73.1295 113.139C70.5449 113.303 67.901 113.167 65.4161 112.398C63.0588 111.667 61.0363 110.329 59.3475 108.549C55.9244 104.94 53.8733 100.031 52.4002 95.3598C50.7977 90.2777 50.0346 84.9307 49.8771 79.612C49.7974 76.9174 49.8978 74.2001 50.323 71.5352C50.7449 68.8924 51.5278 66.3346 51.9887 63.7029ZM99.9591 40.809C99.7325 40.6944 99.573 40.9927 99.7652 41.1394C103.755 44.1843 107.328 48.0452 110.22 52.1316C115.553 59.6682 118.974 68.3896 120.549 77.452C121.479 82.8039 121.721 88.2368 121.629 93.6599C121.592 95.8142 121.468 97.9619 121.331 100.11L121.175 102.492C121.103 103.601 121.043 104.701 121.09 105.816L121.102 106.074C121.176 107.371 121.048 108.679 121.375 109.945C121.543 110.594 122.462 110.696 122.796 110.129C122.861 110.018 122.922 109.904 122.981 109.788C123.762 111.055 124.772 112.188 125.894 113.2C125.358 113.086 124.817 113.014 124.261 113.08C123.38 113.185 122.59 113.523 122.031 114.117C121.476 113.868 120.905 113.696 120.249 113.693C119.765 113.69 119.403 114.259 119.679 114.681C120.229 115.525 120.997 115.997 121.869 116.464C122.487 116.796 123.225 116.512 123.453 115.858L123.466 115.818C123.723 114.99 125.09 115.123 125.735 115.252L125.924 115.29C127.124 115.539 128.296 115.857 129.519 115.529C130.307 115.317 130.514 114.136 129.753 113.744C127.352 112.505 125.336 110.842 123.264 109.171C123.721 108.055 123.981 106.808 124.28 105.673C124.702 104.075 124.825 102.356 124.978 100.715C125.267 97.5951 125.377 94.4411 125.346 91.3088C125.241 80.729 123.423 70.1164 118.779 60.5361C116.744 56.3393 114.071 52.4559 110.911 49.0185C107.77 45.6014 104.102 42.9031 99.9591 40.809ZM103.677 92.621C103.801 92.451 103.56 92.2262 103.392 92.3364C99.7399 94.7234 97.2057 98.3479 95.5706 102.33C93.952 106.272 92.9582 111.1 94.5545 115.211C94.8086 115.865 96.0254 116.108 96.1501 115.211C96.7065 111.201 96.793 107.187 98.0166 103.289C99.2297 99.4249 101.305 95.8866 103.677 92.621ZM106.509 105.637C106.489 105.566 106.373 105.578 106.378 105.654C106.469 107.068 106.531 108.499 106.71 109.905C106.797 110.588 106.911 111.267 107.009 111.949C107.109 112.648 107.094 113.354 107.503 113.951C108.044 114.742 109.482 114.52 109.434 113.431C109.4 112.679 109.054 112.197 108.728 111.537C108.52 111.114 108.338 110.677 108.163 110.238L107.903 109.58C107.385 108.274 106.89 106.99 106.509 105.637ZM113.048 101.892C113.026 101.78 112.845 101.807 112.851 101.918C112.948 103.919 113.175 105.898 113.53 107.869C113.692 108.768 113.881 109.662 114.081 110.553L114.167 110.935C114.381 111.873 114.518 112.977 114.997 113.815C115.475 114.653 116.611 114.045 116.463 113.2C116.292 112.214 115.683 111.222 115.33 110.275C115.004 109.4 114.718 108.511 114.452 107.617C113.891 105.735 113.43 103.817 113.048 101.892ZM100.871 107.447L100.828 107.404C100.662 107.224 100.414 107.344 100.335 107.533C100.01 108.311 100.173 109.227 100.196 110.052L100.2 110.232C100.218 111.068 100.206 111.851 100.586 112.623C101.049 113.56 102.268 112.978 102.362 112.144C102.465 111.235 102.033 110.344 101.753 109.492C101.576 108.951 101.447 108.388 101.177 107.896C101.408 107.936 101.638 108.015 101.849 108.072C101.943 108.098 101.979 107.96 101.889 107.928C101.54 107.805 101.147 107.713 100.871 107.447ZM52.2572 110.205C52.3686 110.081 52.2298 109.916 52.0852 109.983C50.3486 110.79 48.7243 111.315 46.8082 111.487C45.9778 111.562 45.9727 112.86 46.8082 112.785C48.8079 112.606 50.9038 111.713 52.2572 110.205ZM113.355 82.9357C111.826 79.5132 106.989 76.4772 103.745 79.66C103.685 79.7194 103.747 79.8491 103.835 79.8127C105.852 78.9808 108.322 80.0389 109.718 81.5524C110.826 82.7529 111.492 84.2944 111.624 85.9192C111.756 87.5453 111.365 89.2426 110.28 90.5004C109.711 91.1603 108.942 91.7848 108.037 91.8641C107.124 91.9441 106.362 91.304 105.499 91.1301C104.848 90.9991 104.357 91.4056 104.293 92.0442C104.152 93.4535 105.562 94.3994 106.784 94.6292C108.099 94.8762 109.441 94.6063 110.574 93.8973C114.233 91.6074 115.022 86.6686 113.355 82.9357ZM79.0247 49.3904C78.3598 48.758 77.2289 49.3866 77.4742 50.2887C77.9959 52.2085 79.1047 53.8311 80.3332 55.3712C81.5151 56.8529 82.7813 58.2768 84.1385 59.602C85.4868 60.9185 86.9517 62.1368 88.4912 63.2249L88.9549 63.5518C90.0461 64.3172 91.2018 65.0913 92.4232 65.6426C92.7181 68.171 93.295 70.6656 94.168 73.054C95.0086 75.3539 96.0784 77.5765 97.3746 79.6565L97.5607 79.9544C98.7518 81.8541 100.184 83.9771 102.205 85.0185C102.266 85.0499 102.327 85.069 102.387 85.0802C101.935 85.3802 101.552 85.7576 101.325 86.2999C101.076 86.8935 101.597 87.4537 102.095 87.6498C103.15 88.0644 104.179 87.3625 105.127 86.6137C105.167 86.7035 105.205 86.7942 105.237 86.8856C105.449 87.4835 105.511 88.0946 106.058 88.4913C106.318 88.6799 106.638 88.5112 106.801 88.2975C107.337 87.5967 106.783 86.6419 106.311 86.0692C106.246 85.9901 106.179 85.9148 106.109 85.8426C106.308 85.697 106.503 85.5678 106.691 85.4686C107.798 84.8852 109.439 84.7818 110.077 86.0733C110.125 86.1725 110.279 86.1212 110.279 86.0186C110.277 84.4322 108.644 83.5706 107.227 83.4535C106.192 83.368 105.19 83.7294 104.258 84.1501L104.085 84.2296C103.738 84.3898 103.38 84.541 103.039 84.7101C103.094 84.5641 103.093 84.3923 103.006 84.222C101.934 82.1391 100.094 80.4454 98.7664 78.5164C97.4502 76.6026 96.3202 74.5545 95.4182 72.416C94.5427 70.3402 93.8568 68.1994 93.3772 66.0157C93.5352 66.0482 93.7133 65.9082 93.7021 65.7441C93.6753 65.347 93.4801 64.9893 93.1372 64.8369C92.7596 62.783 92.5669 60.6942 92.5781 58.5887C92.579 58.4255 92.3413 58.4313 92.3274 58.5887C92.1605 60.4608 92.147 62.3511 92.2873 64.2304C91.3955 63.4139 90.455 62.6376 89.5963 61.7995C88.3042 60.5383 87.0542 59.2434 85.8484 57.9004C84.6181 56.5303 83.4553 55.1098 82.3919 53.6068L81.8355 52.8186C80.9799 51.6102 80.101 50.4145 79.0247 49.3904ZM80.7023 35.9011C73.3644 35.4453 65.5276 36.3427 58.9364 39.7705C55.3165 41.6528 52.5185 44.4979 50.5193 48.0385C49.3256 50.1528 48.42 52.494 48.077 54.901C47.7247 57.3742 48.1383 59.5795 49.7252 61.5454C50.3554 62.3261 51.417 61.454 51.2617 60.6552C50.3117 55.7681 51.8526 50.9395 54.5853 46.8936C58.5508 41.0224 65.4759 38.4144 72.2185 37.251C75.5312 36.6796 78.8912 36.4408 82.2521 36.557C84.8143 36.6458 87.4428 36.8833 89.8744 37.7412C89.9769 37.7774 90.0177 37.6184 89.9189 37.581C87.0184 36.4786 83.7806 36.0924 80.7023 35.9011ZM69.8195 46.9519C69.4417 46.7136 68.9796 46.9581 68.8498 47.3448C68.3919 48.7078 69.3515 50.5085 69.9934 51.6881C70.7198 53.0229 71.6538 54.2709 72.6184 55.4432C74.5481 57.7878 77.0844 59.7441 79.8675 60.9737C80.038 61.0491 80.2366 60.8443 80.0803 60.6996C77.9268 58.704 75.9743 56.5645 74.2841 54.1645C73.4536 52.9851 72.7609 51.7409 72.0994 50.4629C71.5075 49.3192 70.9508 47.6656 69.8195 46.9519ZM57.4784 48.5576C57.237 47.7187 55.8619 47.8615 55.9188 48.7677C56.0659 51.1085 57.1756 53.4582 58.3814 55.442C59.6231 57.4848 61.1955 59.3052 62.9978 60.8774C63.0866 60.955 63.2082 60.8356 63.1278 60.7481C61.5727 59.054 60.3167 57.1243 59.3865 55.0242C58.4574 52.9271 58.1067 50.7391 57.4784 48.5576ZM64.3123 48.1786C64.0493 47.4492 62.7906 47.5033 62.8678 48.3732C63.0799 50.7646 64.4903 53.2708 65.7964 55.246C67.1825 57.3416 68.9517 59.1877 70.929 60.7383C71.003 60.7963 71.1077 60.7002 71.0355 60.6324C69.2595 58.9672 67.8192 57.0437 66.679 54.8982C66.097 53.8035 65.6089 52.6635 65.2234 51.4859C64.8668 50.3964 64.6994 49.2524 64.3123 48.1786Z" fill="black"/>
<path fill-rule="evenodd" clip-rule="evenodd" d="M77.5658 98.3785C76.6127 96.4859 71.7652 95.9649 63.0235 96.8156L61.9158 105.839C66.1338 107.186 69.4981 107.718 72.0089 107.436C75.7751 107.013 78.9954 101.217 77.5658 98.3785Z" fill="white"/>
<path fill-rule="evenodd" clip-rule="evenodd" d="M76.6423 103.118C77.0952 102.156 67.7211 99.5316 64.8187 101.325C62.8838 102.52 62.2188 103.934 62.8238 105.564C70.962 107.408 75.5682 106.592 76.6423 103.118Z" fill="#FF8181"/>
<path fill-rule="evenodd" clip-rule="evenodd" d="M78.3795 96.6988C76.1915 94.174 72.5064 93.9982 69.4538 94.6295C67.4948 95.0347 65.5875 95.7097 63.5978 95.9598C62.6686 96.0768 61.7293 96.1117 60.7932 96.0945C59.8738 96.0777 58.9529 95.8937 58.0367 95.9279C57.8959 95.933 57.8426 96.1167 57.9647 96.1914C59.2216 96.9581 60.9149 97.204 62.3997 97.3539C62.395 97.463 62.3884 97.5695 62.3732 97.6598C62.3327 97.9006 62.2957 98.1397 62.2658 98.3821C62.1985 98.9288 62.1231 99.4737 62.0479 100.019C61.8996 101.093 61.853 102.201 61.5922 103.256L61.5467 103.431C61.4863 103.653 61.4725 103.853 61.4927 104.033L61.4323 104.006L61.2416 103.914L61.1165 103.856C60.6602 103.646 60.2248 103.493 59.6883 103.544C59.2799 103.582 58.937 103.859 58.9345 104.292C58.9243 106.236 61.5622 106.861 63.0711 107.233L63.5136 107.341C65.4342 107.806 67.3952 108.214 69.3705 108.312C72.5405 108.468 76.1027 107.6 78.1764 105.046C80.1112 102.664 80.4659 99.1062 78.3795 96.6988ZM63.9838 104.866C64.3164 101.939 67.9378 101.778 68.9796 103.634C69.4419 101.047 76.2807 103.41 75.7459 103.925C73.7191 105.874 70.6432 106.049 67.9991 105.689C66.6524 105.505 65.3047 105.206 63.9838 104.866ZM68.0028 97.1954L68.9133 97.0652L69.2719 97.0162C71.529 96.716 74.0673 96.561 75.923 97.998C76.6005 98.5225 76.9818 99.2066 77.1242 99.9415C75.3683 99.6831 73.6059 99.4859 71.8383 99.3218L71.3561 99.2778C70.2501 99.1788 69.1447 99.0744 68.0398 98.965L67.2545 98.886L66.4696 98.8051C66.1934 98.7764 64.3318 98.6818 63.9818 98.7453C63.9445 98.433 63.8957 97.7572 63.8167 97.4533C65.1393 97.4978 66.456 97.4003 67.7708 97.2268L68.0028 97.1954ZM63.8118 84.1151C62.4626 84.9295 60.4068 86.8285 61.8582 88.8475C63.5667 90.6278 66.0266 88.5866 67.2388 87.6635C68.3627 86.948 69.6256 88.7881 68.5828 89.6235C59.8236 96.0633 56.2689 84.328 63.1294 83.1575C63.8848 83.0285 64.1653 83.8631 63.8118 84.1151ZM61.3973 87.546L61.3324 87.511L61.3105 87.4978C61.2726 87.4734 61.2967 87.476 61.383 87.5057L61.4477 87.5288V87.5742C61.431 87.5641 61.4134 87.5564 61.3973 87.546ZM78.6768 80.3104L78.677 80.2704C78.6745 79.139 78.0109 76.5557 76.3707 76.5557C75.346 76.5557 74.7239 78.3138 74.6162 80.1262L74.6125 80.2C74.5649 81.3268 74.8763 83.7897 76.3707 83.7897C77.8809 83.7897 78.6613 81.457 78.6768 80.3104ZM54.5283 79.9555L54.5281 79.9155C54.5306 78.7841 55.1942 76.2008 56.8344 76.2008C57.8335 76.2008 58.4498 77.8721 58.5799 79.6355L58.5889 79.7713C58.6536 80.86 58.3624 83.4349 56.8344 83.4349C55.3242 83.4349 54.5438 81.1022 54.5283 79.9555ZM77.7409 68.8415C76.4023 68.6394 74.6297 69.0233 74.0056 70.375C73.7276 70.9772 74.0569 71.6431 74.7578 71.6764C76.4518 71.757 77.9711 71.3826 79.458 72.4765C80.0979 72.9473 80.6359 73.5992 81.0873 74.2495L81.2582 74.4969L81.3996 74.7008C81.7062 75.1484 81.9965 75.6346 81.9512 76.1747C81.9378 76.3345 82.1023 76.4862 82.2587 76.4798C83.2331 76.4401 83.338 75.2268 83.2099 74.4981C82.9716 73.1457 82.3124 71.8762 81.3989 70.8537C80.4394 69.7799 79.1728 69.0578 77.7409 68.8415ZM59.3039 70.4828C58.3809 69.8935 57.2002 69.6671 56.1189 69.7539C53.9868 69.9244 50.41 71.7243 50.8808 74.3103C51.026 75.1079 52.1431 75.5287 52.8013 75.0862C53.509 74.6105 53.6813 73.8712 54.208 73.2495C54.6282 72.7528 55.1609 72.3935 55.7312 72.0875C56.2933 71.7856 56.9437 71.6026 57.5816 71.5359L57.6878 71.5259C58.0718 71.4934 60.0107 71.5021 59.7261 72.2209C59.6704 72.3616 59.8812 72.473 59.978 72.3666C60.5725 71.7136 59.8992 70.8628 59.3039 70.4828Z" fill="black"/>
</svg>
