<svg width="169" height="169" viewBox="0 0 169 169" fill="none" xmlns="http://www.w3.org/2000/svg">
<circle cx="84.5004" cy="84.5004" r="78.6" fill="white" stroke="#618291" stroke-width="10"/>
<path fill-rule="evenodd" clip-rule="evenodd" d="M62.3496 69.5041C63.0347 65.3504 60.7862 64.4886 62.3496 60.5402C65.8243 53.2242 75.2935 53.5394 82.2422 52.9769C89.9926 52.6793 97.837 53.7046 104.982 56.8175C106.689 57.5609 108.33 58.4353 109.904 59.4287C111.264 60.2878 111.077 61.9212 110.219 62.8123C116.406 71.5914 112.867 83.3756 117.804 92.6166C118.716 94.2685 119.922 95.7497 120.714 97.4685C121.919 100.081 121.996 103.825 119.264 105.56C115.416 107.63 113.268 103.531 111.378 109.472C101.934 130.186 82.9483 131.353 64.9243 120.553C63.3649 119.684 61.7734 118.701 60.5959 117.336C57.9231 114.322 58.2379 110.083 58.1788 106.319C58.1458 104.113 58.1403 101.907 58.1618 99.7004C58.2459 90.7638 61.2015 78.3671 62.3496 69.5041Z" fill="#FFDBB4"/>
<path fill-rule="evenodd" clip-rule="evenodd" d="M100.739 44.6613C89.8568 39.7144 77.5136 37.8385 65.6427 39.069C59.7834 39.6753 54.0013 40.9763 48.4986 43.0896L48.0163 43.2764C46.6579 43.8003 45.1937 44.3203 44.1614 45.3868C42.96 46.6262 42.623 48.5003 43.4818 50.0313C44.149 51.2209 45.3485 52.0743 46.6279 52.5297C46.1772 52.8995 45.7496 53.3121 45.3485 53.7726C44.6725 54.5443 44.621 55.6448 45.3485 56.4061C46.7503 57.873 48.5691 58.9344 50.5281 59.4432C50.3081 60.5083 50.427 61.6872 50.899 62.7488C52.2534 65.796 56.0686 66.1592 59.0046 65.9782L59.0933 65.9726L59.2565 67.845C59.3435 68.8425 59.9397 69.616 60.9511 69.769C60.9866 69.7743 61.0223 69.7779 61.0576 69.7812C59.457 75.5818 58.49 81.5616 57.5974 87.5062C57.1311 90.6092 56.7137 93.7195 56.314 96.8318L56.1814 97.8693C55.7556 101.225 55.2232 104.614 55.0387 107.994C54.8737 111.061 55.4575 113.99 57.3437 116.465C59.0365 118.684 61.345 120.347 63.8275 121.581C69.4364 124.371 75.34 126.448 81.5434 127.412L81.9571 127.476C84.3516 127.842 86.8188 128.15 89.1876 127.486C91.2689 126.903 93.4516 125.399 92.9814 122.982C92.8234 122.166 91.6843 122.131 91.2939 122.762L91.2038 122.906C90.7357 123.651 90.2226 124.342 89.4057 124.727C88.4495 125.178 87.3404 125.304 86.2953 125.317C83.3764 125.351 80.3368 124.622 77.5261 123.891C72.2773 122.525 66.8866 120.299 62.5871 116.926C60.7577 115.493 59.2885 113.7 58.7703 111.394C58.1298 108.551 58.7189 105.442 59.0099 102.585C59.6088 96.6887 60.3215 90.8034 61.0735 84.9246L61.2244 83.7489C61.8577 78.834 62.5231 73.9174 62.8391 68.9741C62.9704 68.7945 63.0591 68.59 63.0946 68.366L63.1441 68.0441C63.1869 67.7685 63.194 67.516 63.1638 67.2831C63.162 66.3904 63.1372 65.5031 63.0857 64.6103C63.0771 64.4505 63.0698 64.2904 63.0645 64.1322C63.9907 64.3367 64.9241 64.502 65.861 64.6425C72.4476 65.6365 79.1373 65.8855 85.7772 65.3911C89.09 65.1438 92.3779 64.719 95.6554 64.1873C97.3236 63.917 98.986 63.6183 100.643 63.284C101.841 63.0439 103.014 62.7185 104.192 62.4127C105.408 64.1855 106.064 66.3673 105.936 68.51C105.793 70.955 104.167 73.1724 104.623 75.6707C105.051 78.0088 107.05 78.7338 109.024 79.3128L109.863 79.5558C110.509 79.7448 110.978 79.927 111.095 80.7047C111.295 82.0401 111.049 83.5426 110.997 84.8851C110.935 86.473 110.854 88.0609 110.816 89.6488C110.797 90.4703 110.765 91.2954 110.766 92.1169C110.768 92.7002 110.855 93.0985 111.081 93.4753C110.907 93.6942 110.751 93.9307 110.612 94.1814C110.568 94.2632 110.678 94.3501 110.743 94.2827C110.919 94.0996 111.106 93.9342 111.302 93.7864C111.402 93.9093 111.517 94.0338 111.652 94.1672L111.663 94.1529C112.085 94.5744 112.756 94.6153 113.279 94.1672L113.417 94.0479C113.8 93.7112 114.063 93.4308 114.17 92.8744C114.175 92.846 114.181 92.8175 114.184 92.7891C115.158 92.7553 116.148 92.9863 117.025 93.4719C118.414 94.2418 119.392 95.339 119.97 96.6939C119.74 96.9642 119.47 97.206 119.156 97.4087C119.112 97.439 119.151 97.5048 119.199 97.4817C119.52 97.3305 119.807 97.1438 120.064 96.9251C120.272 97.4585 120.418 98.0311 120.506 98.6375C120.819 100.778 120.261 103.394 118.331 104.614C117.495 105.142 116.54 105.428 115.55 105.432C115.068 105.433 114.651 105.352 114.182 105.236C113.865 105.158 113.549 105.044 113.217 105.044C112.933 105.044 112.67 105.115 112.427 105.258L112.495 105.263C112.659 105.279 112.627 105.286 112.399 105.286C111.689 105.316 111.283 106.038 111.609 106.666L111.652 106.763C111.661 106.782 111.669 106.799 111.675 106.812L111.701 106.978C111.703 106.994 111.706 107.01 111.709 107.027L111.719 107.061C111.72 107.066 111.722 107.071 111.725 107.077L110.66 108.703C109.355 110.693 108.021 112.676 106.503 114.493C105.438 115.768 104.309 117.018 103.117 118.176C102.045 119.216 100.76 119.718 99.5468 120.536C98.8989 120.969 98.7092 121.878 99.2982 122.463C101.027 124.183 103.474 122.817 104.891 121.419C106.233 120.095 107.392 118.501 108.391 116.906C110.163 114.07 111.574 111.054 112.191 107.781C112.449 108.017 112.777 108.165 113.109 108.28C113.774 108.512 114.507 108.608 115.21 108.633C116.556 108.677 117.905 108.35 119.117 107.77C124.048 105.414 124.772 98.3583 121.757 94.1974C122.164 93.016 122.391 91.7342 122.638 90.6412L122.75 90.1526C123.996 84.6949 124.833 78.9488 122.623 73.6009C122.339 72.911 122.02 72.2388 121.642 71.5951C121.339 71.0777 120.817 70.5265 120.673 69.9379C120.354 68.6452 122.325 67.2866 122.9 66.2606C123.576 65.0568 123.672 63.6361 122.751 62.5352C122.634 62.3967 122.506 62.2685 122.368 62.1566C123.241 60.5705 123.282 58.5754 122.132 57.0106C121.376 55.9793 120.222 55.2574 118.963 55.0386C118.192 54.9053 117.266 54.9551 116.42 55.1934C111.785 50.8813 106.497 47.2787 100.739 44.6613ZM118.537 98.6161C117.3 97.5226 115.934 96.95 114.248 97.094C112.553 97.2397 110.513 97.9422 109.517 99.3985C108.731 100.549 110.333 102.236 111.487 101.372C112.537 100.585 113.238 99.6955 114.542 99.2723C115.714 98.8935 117.163 98.6499 118.39 98.8669C118.524 98.89 118.659 98.7228 118.537 98.6161Z" fill="black"/>
<path fill-rule="evenodd" clip-rule="evenodd" d="M70.8948 108.289C70.2847 107.212 68.4642 107.387 68.1859 108.643C67.6214 111.188 70.6565 113.538 72.9618 113.597C75.2526 113.655 77.823 111.705 77.4913 109.243C77.4094 108.633 76.5957 108.707 76.3183 109.089L76.2106 109.236C75.4572 110.248 74.463 111.296 73.0647 111.049C72.4852 110.947 71.9589 110.585 71.6086 110.119C71.1861 109.556 71.2325 108.885 70.8948 108.289ZM85.4615 89.6676C85.151 89.5821 84.8377 89.6152 84.5626 89.7322C83.9484 89.8447 83.4354 90.3569 83.2551 90.9415C83.2409 90.9921 83.225 91.0421 83.2075 91.0916L83.18 91.1654L83.2537 90.978C83.2197 91.1625 83.0694 91.3565 83.0154 91.5418C82.9489 91.7696 82.9327 92.0283 82.9551 92.2791C82.7599 92.281 82.5646 92.2876 82.3697 92.3045L82.1814 92.3214C81.1282 92.4192 79.9719 92.5988 79.3475 93.5088C78.9969 94.0202 79.326 94.941 79.9703 95.0395C80.9619 95.1912 81.8162 94.6424 82.8045 94.5325C83.7388 94.4285 84.7164 94.4881 85.6386 94.6568C87.5424 95.0049 89.2919 95.7766 91.1473 96.2608L91.3999 96.3249L91.3995 96.3237C91.7175 96.4005 92.0784 95.9584 91.7639 95.6999C90.2775 94.4788 88.3745 93.4893 86.4997 92.8867C86.7729 92.4522 86.8573 91.88 86.6706 91.4136C86.6417 91.317 86.6058 91.223 86.568 91.1293L86.4891 90.9365C86.4814 90.8457 86.464 90.7559 86.4387 90.6679L86.4347 90.641L86.4323 90.6426C86.2928 90.189 85.9282 89.7964 85.4615 89.6676ZM66.498 89.7378C66.0915 89.3311 65.5203 89.3912 65.096 89.7113L65.0397 89.7554C64.6398 89.9331 64.3089 90.3213 64.0916 90.681C63.866 91.0546 63.7161 91.4351 63.7102 91.8464C62.7262 91.8496 61.7835 92.1448 61.0611 92.9392C60.8278 93.1957 60.6684 93.5911 60.7968 93.9388L60.8733 94.1456C61.1159 94.8021 62.2066 95.1801 62.5773 94.408L62.5944 94.3703C62.9883 93.4535 64.5002 93.5497 65.3038 93.6434C65.8639 93.709 66.4171 93.8482 66.958 94.0042C67.1486 94.0591 67.3375 94.1188 67.5262 94.1797L67.7148 94.2409C67.8155 94.2734 68.3397 94.5581 68.0136 94.4907C67.9259 94.4726 67.8599 94.6002 67.9494 94.6431C68.3381 94.8289 68.7528 94.4589 68.7268 94.0414C68.6818 93.3166 67.5309 92.9192 66.9771 92.6693L66.944 92.6542C66.7317 92.5561 66.5092 92.462 66.2797 92.3747C66.4088 92.1826 66.5155 91.9693 66.6042 91.7402C66.6881 91.524 66.7441 91.3138 66.7749 91.0839C66.8051 90.9715 66.8051 90.8592 66.7749 90.7466L66.7703 90.7144C66.7859 90.6401 66.7934 90.5633 66.7923 90.4859L66.7955 90.4559H66.7923C66.7815 90.1851 66.6739 89.9137 66.498 89.7378ZM72.9934 97.4559C71.4316 97.9385 68.855 99.2531 69.6689 101.282C70.8054 103.146 73.8192 101.776 75.2796 101.174C76.5917 100.739 77.2749 102.578 76.0062 103.133C65.5222 107.28 65.5608 96.3339 72.6132 96.4947C73.3898 96.5123 73.4141 97.2955 72.9934 97.4559ZM86.8641 83.1831L86.5977 83.1054C85.2134 82.7044 83.8003 82.012 82.5712 83.0924C82.0886 83.5166 81.9892 84.3983 82.3345 84.9274C83.1212 86.1332 84.2878 85.949 85.5583 86.0518C86.5257 86.13 87.4786 86.4142 88.3816 86.7693C89.1195 87.0596 89.8039 87.4684 90.4501 87.9244C91.0849 88.3726 91.5186 89.0734 92.1698 89.4769C92.4084 89.6248 92.6841 89.4726 92.7698 89.2327C93.0735 88.3819 92.5603 87.3219 92.1261 86.597C91.596 85.7125 90.7908 84.9891 89.925 84.4418C88.977 83.8424 87.9286 83.4963 86.8641 83.1831ZM66.6928 82.2676C64.3529 82.2669 62.1014 83.5683 60.7926 85.4761C60.3479 86.1242 60.6738 87.0844 61.3122 87.4577C62.0284 87.8766 62.7941 87.5749 63.266 86.9747L63.294 86.9383C64.0446 85.9388 65.0121 85.1516 66.159 84.6391C66.7186 84.3889 67.3374 84.186 67.9427 84.0831L68.1383 84.0496C68.4125 84.0036 68.7305 83.9598 68.9785 84.0027C69.1113 84.0201 69.2333 84.0641 69.3457 84.1309C69.2916 84.249 69.4312 84.3912 69.5601 84.3205C70.1416 84.0011 70.0703 83.4314 69.59 82.9886C68.9106 82.3622 67.5703 82.2678 66.6928 82.2676Z" fill="black"/>
</svg>
