<svg width="18" height="15" viewBox="0 0 18 15" fill="none" xmlns="http://www.w3.org/2000/svg">
<path d="M7.94455 0.37481C7.70451 0.134819 7.37899 0 7.03957 0C6.70014 0 6.37462 0.134819 6.13458 0.37481L0.374387 6.13548C0.134417 6.37554 -0.000391741 6.70109 -0.000391741 7.04054C-0.000391741 7.37999 0.134417 7.70554 0.374387 7.94561L6.13458 13.7063C6.37599 13.9395 6.69934 14.0685 7.03496 14.0656C7.37058 14.0627 7.69163 13.928 7.92896 13.6907C8.16629 13.4533 8.30091 13.1323 8.30383 12.7966C8.30675 12.4609 8.17772 12.1376 7.94455 11.8961L4.47948 8.32069H16.6399C16.9794 8.32069 17.305 8.18582 17.545 7.94574C17.7851 7.70567 17.9199 7.38006 17.9199 7.04054C17.9199 6.70102 17.7851 6.37541 17.545 6.13534C17.305 5.89527 16.9794 5.76039 16.6399 5.76039H4.47948L7.94455 2.18494C8.18453 1.94488 8.31933 1.61932 8.31933 1.27987C8.31933 0.940425 8.18453 0.614873 7.94455 0.37481Z" fill="black"/>
</svg>
