<svg width="650" height="230" viewBox="0 0 650 230" fill="none" xmlns="http://www.w3.org/2000/svg">
<mask id="path-1-outside-1_1019_4716" maskUnits="userSpaceOnUse" x="-2" y="-1" width="653" height="233" fill="black">
<rect fill="white" x="-2" y="-1" width="653" height="233"/>
<path d="M6.2 84V1.19999H57.68V11.28H17.24V36.84H53.48V46.92H17.24V73.92H59.48V84H6.2ZM117.332 55.68L86.7322 23.88V84H75.6922V-5.72205e-06H75.9322L117.332 41.04L158.732 -5.72205e-06H158.972V84H147.932V23.88L117.332 55.68ZM179.403 84V1.19999H190.443V84H179.403ZM209.729 84V1.19999H220.769V73.92H260.369V84H209.729ZM297.806 84V51.48L269.366 1.19999H281.366L303.326 41.16L325.286 1.19999H337.286L308.846 51.48V84H297.806ZM74.6 228H63.32L54.8 208.56H20.12L11.6 228H0.32L37.28 144H37.64L74.6 228ZM24.56 198.6H50.48L37.52 169.08L24.56 198.6ZM158.529 229.2L100.209 170.76V228H89.1688V144L147.489 203.16V145.2H158.529V229.2ZM178.934 228V145.2H206.774C209.654 145.2 212.414 145.4 215.054 145.8C217.694 146.2 220.214 146.76 222.614 147.48C225.094 148.2 227.414 149.12 229.574 150.24C231.734 151.36 233.734 152.64 235.574 154.08C237.494 155.44 239.214 157 240.734 158.76C242.334 160.52 243.734 162.44 244.934 164.52C246.214 166.52 247.254 168.68 248.054 171C248.934 173.32 249.574 175.8 249.974 178.44C250.454 181 250.694 183.72 250.694 186.6C250.694 189.48 250.454 192.24 249.974 194.88C249.574 197.44 248.934 199.88 248.054 202.2C247.254 204.52 246.214 206.72 244.934 208.8C243.734 210.88 242.334 212.8 240.734 214.56C239.214 216.24 237.494 217.8 235.574 219.24C233.734 220.68 231.734 221.96 229.574 223.08C227.414 224.12 225.094 225.04 222.614 225.84C220.214 226.56 217.694 227.12 215.054 227.52C212.414 227.84 209.654 228 206.774 228H178.934ZM204.374 155.28H189.974V217.92H204.374C207.094 217.92 209.574 217.8 211.814 217.56C214.134 217.24 216.294 216.8 218.294 216.24C220.294 215.68 222.094 215.04 223.694 214.32C225.374 213.52 226.854 212.64 228.134 211.68C229.494 210.72 230.694 209.68 231.734 208.56C232.854 207.36 233.814 206.12 234.614 204.84C235.414 203.48 236.094 202.08 236.654 200.64C237.214 199.2 237.654 197.72 237.974 196.2C238.374 194.68 238.654 193.12 238.814 191.52C238.974 189.92 239.054 188.28 239.054 186.6C239.054 184.92 238.974 183.28 238.814 181.68C238.654 180 238.374 178.4 237.974 176.88C237.654 175.28 237.214 173.8 236.654 172.44C236.094 171 235.414 169.64 234.614 168.36C233.814 167 232.854 165.76 231.734 164.64C230.694 163.44 229.494 162.36 228.134 161.4C226.854 160.44 225.374 159.6 223.694 158.88C222.094 158.08 220.294 157.44 218.294 156.96C216.294 156.4 214.134 156 211.814 155.76C209.574 155.44 207.094 155.28 204.374 155.28ZM265.653 228V145.2H317.133V155.28H276.693V180.84H312.933V190.92H276.693V217.92H318.933V228H265.653ZM335.145 228V145.2H367.665C375.745 145.2 382.145 147.04 386.865 150.72C391.585 154.4 393.945 160.12 393.945 167.88C393.945 168.6 393.905 169.36 393.825 170.16C393.745 170.88 393.625 171.68 393.465 172.56C393.385 173.44 393.225 174.36 392.985 175.32C392.745 176.2 392.425 177.08 392.025 177.96C391.705 178.84 391.305 179.76 390.825 180.72C390.345 181.6 389.785 182.48 389.145 183.36C388.505 184.16 387.785 184.92 386.985 185.64C386.185 186.36 385.305 187.04 384.345 187.68C383.385 188.32 382.305 188.88 381.105 189.36C379.905 189.84 378.585 190.24 377.145 190.56C375.785 190.8 374.305 190.96 372.705 191.04C371.105 191.04 369.345 190.96 367.425 190.8C369.825 192 371.985 193.68 373.905 195.84C375.825 198 378.025 200.88 380.505 204.48L397.065 228H383.865L365.985 202.32C362.945 197.92 360.505 195.12 358.665 193.92C356.905 192.72 354.585 192.12 351.705 192.12H346.185V228H335.145ZM364.785 155.28H346.185V182.04H364.785C371.505 182.04 376.225 180.8 378.945 178.32C381.745 175.84 383.145 172.36 383.145 167.88C383.145 163.24 381.545 160 378.345 158.16C375.145 156.24 370.625 155.28 364.785 155.28ZM422.669 201.12C422.989 206.96 424.669 211.32 427.709 214.2C430.829 217 434.629 218.4 439.109 218.4C443.829 218.4 447.709 217.28 450.749 215.04C453.789 212.8 455.309 209.16 455.309 204.12C455.309 202.92 455.189 201.8 454.949 200.76C454.709 199.72 454.349 198.8 453.869 198C453.469 197.12 452.949 196.36 452.309 195.72C451.669 195 450.949 194.4 450.149 193.92C449.349 193.36 448.469 192.84 447.509 192.36C446.629 191.88 445.669 191.48 444.629 191.16C443.669 190.76 442.629 190.4 441.509 190.08C440.469 189.76 439.389 189.44 438.269 189.12C437.149 188.8 435.989 188.48 434.789 188.16C433.669 187.76 432.549 187.4 431.429 187.08C430.309 186.68 429.189 186.28 428.069 185.88C427.029 185.48 425.989 185 424.949 184.44C423.989 183.88 423.029 183.28 422.069 182.64C421.189 182 420.349 181.32 419.549 180.6C418.749 179.8 418.029 178.92 417.389 177.96C416.749 177 416.189 175.96 415.709 174.84C415.309 173.64 414.989 172.36 414.749 171C414.509 169.56 414.389 168 414.389 166.32C414.389 164.48 414.549 162.76 414.869 161.16C415.269 159.48 415.789 157.96 416.429 156.6C417.149 155.24 417.949 154 418.829 152.88C419.789 151.76 420.829 150.76 421.949 149.88C423.149 149 424.389 148.24 425.669 147.6C427.029 146.88 428.429 146.32 429.869 145.92C431.389 145.44 432.909 145.12 434.429 144.96C436.029 144.72 437.629 144.6 439.229 144.6C440.989 144.6 442.709 144.72 444.389 144.96C446.069 145.2 447.669 145.6 449.189 146.16C450.709 146.64 452.109 147.28 453.389 148.08C454.749 148.8 455.989 149.68 457.109 150.72C458.229 151.68 459.229 152.8 460.109 154.08C461.069 155.36 461.869 156.76 462.509 158.28C463.149 159.72 463.629 161.32 463.949 163.08C464.269 164.84 464.429 166.72 464.429 168.72H453.029C452.709 163.68 451.429 160.12 449.189 158.04C446.949 155.88 443.429 154.8 438.629 154.8C434.709 154.8 431.549 155.8 429.149 157.8C426.829 159.72 425.669 162.52 425.669 166.2C425.669 167.24 425.789 168.2 426.029 169.08C426.269 169.88 426.589 170.64 426.989 171.36C427.469 172.08 428.029 172.72 428.669 173.28C429.309 173.84 430.029 174.36 430.829 174.84C431.629 175.24 432.469 175.64 433.349 176.04C434.309 176.44 435.309 176.8 436.349 177.12C437.389 177.44 438.429 177.76 439.469 178.08C440.589 178.32 441.709 178.6 442.829 178.92C444.029 179.24 445.189 179.56 446.309 179.88C447.429 180.2 448.549 180.56 449.669 180.96C450.869 181.36 451.989 181.8 453.029 182.28C454.149 182.76 455.229 183.32 456.269 183.96C457.309 184.52 458.269 185.16 459.149 185.88C460.109 186.6 460.989 187.4 461.789 188.28C462.589 189.16 463.309 190.16 463.949 191.28C464.589 192.32 465.109 193.52 465.509 194.88C465.989 196.16 466.349 197.56 466.589 199.08C466.829 200.6 466.949 202.28 466.949 204.12C466.949 205.88 466.789 207.52 466.469 209.04C466.229 210.56 465.829 212 465.269 213.36C464.709 214.72 464.029 215.96 463.229 217.08C462.509 218.2 461.669 219.28 460.709 220.32C459.749 221.28 458.709 222.16 457.589 222.96C456.549 223.68 455.429 224.36 454.229 225C453.029 225.64 451.789 226.2 450.509 226.68C449.229 227.08 447.949 227.44 446.669 227.76C445.389 228 444.069 228.2 442.709 228.36C441.429 228.52 440.149 228.6 438.869 228.6C437.429 228.6 435.949 228.48 434.429 228.24C432.989 228 431.549 227.68 430.109 227.28C428.669 226.8 427.269 226.24 425.909 225.6C424.629 224.88 423.349 224.08 422.069 223.2C420.869 222.32 419.709 221.32 418.589 220.2C417.549 219 416.589 217.72 415.709 216.36C414.829 215 414.069 213.56 413.429 212.04C412.789 210.44 412.309 208.76 411.989 207C411.669 205.16 411.509 203.2 411.509 201.12H422.669ZM522.457 228.6C520.297 228.6 518.137 228.44 515.977 228.12C513.817 227.8 511.697 227.36 509.617 226.8C507.537 226.16 505.537 225.4 503.617 224.52C501.697 223.64 499.857 222.64 498.097 221.52C496.337 220.32 494.657 219 493.057 217.56C491.457 216.04 489.977 214.44 488.617 212.76C487.337 211.08 486.137 209.28 485.017 207.36C483.977 205.36 483.097 203.28 482.377 201.12C481.657 198.96 481.097 196.68 480.697 194.28C480.297 191.8 480.097 189.24 480.097 186.6C480.097 183.96 480.297 181.44 480.697 179.04C481.097 176.64 481.657 174.36 482.377 172.2C483.097 169.96 483.977 167.88 485.017 165.96C486.137 163.96 487.337 162.12 488.617 160.44C489.977 158.76 491.457 157.2 493.057 155.76C494.657 154.32 496.337 153 498.097 151.8C499.857 150.6 501.697 149.56 503.617 148.68C505.537 147.8 507.537 147.08 509.617 146.52C511.697 145.88 513.817 145.4 515.977 145.08C518.137 144.76 520.297 144.6 522.457 144.6C524.617 144.6 526.777 144.76 528.937 145.08C531.097 145.4 533.217 145.88 535.297 146.52C537.377 147.08 539.377 147.8 541.297 148.68C543.217 149.56 545.057 150.6 546.817 151.8C548.577 153 550.257 154.32 551.857 155.76C553.457 157.2 554.897 158.76 556.177 160.44C557.537 162.12 558.737 163.96 559.777 165.96C560.897 167.88 561.817 169.96 562.537 172.2C563.257 174.36 563.817 176.64 564.217 179.04C564.617 181.44 564.817 183.96 564.817 186.6C564.817 189.24 564.617 191.8 564.217 194.28C563.817 196.68 563.257 198.96 562.537 201.12C561.817 203.28 560.897 205.36 559.777 207.36C558.737 209.28 557.537 211.08 556.177 212.76C554.897 214.44 553.457 216.04 551.857 217.56C550.257 219 548.577 220.32 546.817 221.52C545.057 222.64 543.217 223.64 541.297 224.52C539.377 225.4 537.377 226.16 535.297 226.8C533.217 227.36 531.097 227.8 528.937 228.12C526.777 228.44 524.617 228.6 522.457 228.6ZM522.457 154.8C519.977 154.8 517.617 155.04 515.377 155.52C513.137 155.92 511.057 156.52 509.137 157.32C507.217 158.12 505.457 159.08 503.857 160.2C502.257 161.32 500.817 162.6 499.537 164.04C498.257 165.48 497.137 167.04 496.177 168.72C495.217 170.4 494.377 172.2 493.657 174.12C493.017 175.96 492.537 177.92 492.217 180C491.897 182.08 491.737 184.2 491.737 186.36C491.737 188.28 491.857 190.16 492.097 192C492.337 193.84 492.697 195.64 493.177 197.4C493.737 199.08 494.417 200.72 495.217 202.32C496.017 203.92 496.897 205.44 497.857 206.88C498.897 208.24 500.057 209.52 501.337 210.72C502.617 211.92 504.017 213 505.537 213.96C507.057 214.84 508.697 215.64 510.457 216.36C512.217 217 514.097 217.52 516.097 217.92C518.097 218.24 520.217 218.4 522.457 218.4C524.697 218.4 526.817 218.24 528.817 217.92C530.817 217.52 532.697 217 534.457 216.36C536.217 215.64 537.857 214.84 539.377 213.96C540.897 213 542.297 211.92 543.577 210.72C544.857 209.52 545.977 208.24 546.937 206.88C547.977 205.44 548.897 203.92 549.697 202.32C550.497 200.72 551.137 199.08 551.617 197.4C552.177 195.64 552.577 193.84 552.817 192C553.057 190.16 553.177 188.28 553.177 186.36C553.177 184.2 553.017 182.08 552.697 180C552.377 177.92 551.857 175.96 551.137 174.12C550.497 172.2 549.697 170.4 548.737 168.72C547.777 167.04 546.657 165.48 545.377 164.04C544.097 162.6 542.657 161.32 541.057 160.2C539.457 159.08 537.697 158.12 535.777 157.32C533.857 156.52 531.777 155.92 529.537 155.52C527.297 155.04 524.937 154.8 522.457 154.8ZM649.193 229.2L590.873 170.76V228H579.833V144L638.153 203.16V145.2H649.193V229.2Z"/>
</mask>
<path d="M6.2 84V1.19999H57.68V11.28H17.24V36.84H53.48V46.92H17.24V73.92H59.48V84H6.2ZM117.332 55.68L86.7322 23.88V84H75.6922V-5.72205e-06H75.9322L117.332 41.04L158.732 -5.72205e-06H158.972V84H147.932V23.88L117.332 55.68ZM179.403 84V1.19999H190.443V84H179.403ZM209.729 84V1.19999H220.769V73.92H260.369V84H209.729ZM297.806 84V51.48L269.366 1.19999H281.366L303.326 41.16L325.286 1.19999H337.286L308.846 51.48V84H297.806ZM74.6 228H63.32L54.8 208.56H20.12L11.6 228H0.32L37.28 144H37.64L74.6 228ZM24.56 198.6H50.48L37.52 169.08L24.56 198.6ZM158.529 229.2L100.209 170.76V228H89.1688V144L147.489 203.16V145.2H158.529V229.2ZM178.934 228V145.2H206.774C209.654 145.2 212.414 145.4 215.054 145.8C217.694 146.2 220.214 146.76 222.614 147.48C225.094 148.2 227.414 149.12 229.574 150.24C231.734 151.36 233.734 152.64 235.574 154.08C237.494 155.44 239.214 157 240.734 158.76C242.334 160.52 243.734 162.44 244.934 164.52C246.214 166.52 247.254 168.68 248.054 171C248.934 173.32 249.574 175.8 249.974 178.44C250.454 181 250.694 183.72 250.694 186.6C250.694 189.48 250.454 192.24 249.974 194.88C249.574 197.44 248.934 199.88 248.054 202.2C247.254 204.52 246.214 206.72 244.934 208.8C243.734 210.88 242.334 212.8 240.734 214.56C239.214 216.24 237.494 217.8 235.574 219.24C233.734 220.68 231.734 221.96 229.574 223.08C227.414 224.12 225.094 225.04 222.614 225.84C220.214 226.56 217.694 227.12 215.054 227.52C212.414 227.84 209.654 228 206.774 228H178.934ZM204.374 155.28H189.974V217.92H204.374C207.094 217.92 209.574 217.8 211.814 217.56C214.134 217.24 216.294 216.8 218.294 216.24C220.294 215.68 222.094 215.04 223.694 214.32C225.374 213.52 226.854 212.64 228.134 211.68C229.494 210.72 230.694 209.68 231.734 208.56C232.854 207.36 233.814 206.12 234.614 204.84C235.414 203.48 236.094 202.08 236.654 200.64C237.214 199.2 237.654 197.72 237.974 196.2C238.374 194.68 238.654 193.12 238.814 191.52C238.974 189.92 239.054 188.28 239.054 186.6C239.054 184.92 238.974 183.28 238.814 181.68C238.654 180 238.374 178.4 237.974 176.88C237.654 175.28 237.214 173.8 236.654 172.44C236.094 171 235.414 169.64 234.614 168.36C233.814 167 232.854 165.76 231.734 164.64C230.694 163.44 229.494 162.36 228.134 161.4C226.854 160.44 225.374 159.6 223.694 158.88C222.094 158.08 220.294 157.44 218.294 156.96C216.294 156.4 214.134 156 211.814 155.76C209.574 155.44 207.094 155.28 204.374 155.28ZM265.653 228V145.2H317.133V155.28H276.693V180.84H312.933V190.92H276.693V217.92H318.933V228H265.653ZM335.145 228V145.2H367.665C375.745 145.2 382.145 147.04 386.865 150.72C391.585 154.4 393.945 160.12 393.945 167.88C393.945 168.6 393.905 169.36 393.825 170.16C393.745 170.88 393.625 171.68 393.465 172.56C393.385 173.44 393.225 174.36 392.985 175.32C392.745 176.2 392.425 177.08 392.025 177.96C391.705 178.84 391.305 179.76 390.825 180.72C390.345 181.6 389.785 182.48 389.145 183.36C388.505 184.16 387.785 184.92 386.985 185.64C386.185 186.36 385.305 187.04 384.345 187.68C383.385 188.32 382.305 188.88 381.105 189.36C379.905 189.84 378.585 190.24 377.145 190.56C375.785 190.8 374.305 190.96 372.705 191.04C371.105 191.04 369.345 190.96 367.425 190.8C369.825 192 371.985 193.68 373.905 195.84C375.825 198 378.025 200.88 380.505 204.48L397.065 228H383.865L365.985 202.32C362.945 197.92 360.505 195.12 358.665 193.92C356.905 192.72 354.585 192.12 351.705 192.12H346.185V228H335.145ZM364.785 155.28H346.185V182.04H364.785C371.505 182.04 376.225 180.8 378.945 178.32C381.745 175.84 383.145 172.36 383.145 167.88C383.145 163.24 381.545 160 378.345 158.16C375.145 156.24 370.625 155.28 364.785 155.28ZM422.669 201.12C422.989 206.96 424.669 211.32 427.709 214.2C430.829 217 434.629 218.4 439.109 218.4C443.829 218.4 447.709 217.28 450.749 215.04C453.789 212.8 455.309 209.16 455.309 204.12C455.309 202.92 455.189 201.8 454.949 200.76C454.709 199.72 454.349 198.8 453.869 198C453.469 197.12 452.949 196.36 452.309 195.72C451.669 195 450.949 194.4 450.149 193.92C449.349 193.36 448.469 192.84 447.509 192.36C446.629 191.88 445.669 191.48 444.629 191.16C443.669 190.76 442.629 190.4 441.509 190.08C440.469 189.76 439.389 189.44 438.269 189.12C437.149 188.8 435.989 188.48 434.789 188.16C433.669 187.76 432.549 187.4 431.429 187.08C430.309 186.68 429.189 186.28 428.069 185.88C427.029 185.48 425.989 185 424.949 184.44C423.989 183.88 423.029 183.28 422.069 182.64C421.189 182 420.349 181.32 419.549 180.6C418.749 179.8 418.029 178.92 417.389 177.96C416.749 177 416.189 175.96 415.709 174.84C415.309 173.64 414.989 172.36 414.749 171C414.509 169.56 414.389 168 414.389 166.32C414.389 164.48 414.549 162.76 414.869 161.16C415.269 159.48 415.789 157.96 416.429 156.6C417.149 155.24 417.949 154 418.829 152.88C419.789 151.76 420.829 150.76 421.949 149.88C423.149 149 424.389 148.24 425.669 147.6C427.029 146.88 428.429 146.32 429.869 145.92C431.389 145.44 432.909 145.12 434.429 144.96C436.029 144.72 437.629 144.6 439.229 144.6C440.989 144.6 442.709 144.72 444.389 144.96C446.069 145.2 447.669 145.6 449.189 146.16C450.709 146.64 452.109 147.28 453.389 148.08C454.749 148.8 455.989 149.68 457.109 150.72C458.229 151.68 459.229 152.8 460.109 154.08C461.069 155.36 461.869 156.76 462.509 158.28C463.149 159.72 463.629 161.32 463.949 163.08C464.269 164.84 464.429 166.72 464.429 168.72H453.029C452.709 163.68 451.429 160.12 449.189 158.04C446.949 155.88 443.429 154.8 438.629 154.8C434.709 154.8 431.549 155.8 429.149 157.8C426.829 159.72 425.669 162.52 425.669 166.2C425.669 167.24 425.789 168.2 426.029 169.08C426.269 169.88 426.589 170.64 426.989 171.36C427.469 172.08 428.029 172.72 428.669 173.28C429.309 173.84 430.029 174.36 430.829 174.84C431.629 175.24 432.469 175.64 433.349 176.04C434.309 176.44 435.309 176.8 436.349 177.12C437.389 177.44 438.429 177.76 439.469 178.08C440.589 178.32 441.709 178.6 442.829 178.92C444.029 179.24 445.189 179.56 446.309 179.88C447.429 180.2 448.549 180.56 449.669 180.96C450.869 181.36 451.989 181.8 453.029 182.28C454.149 182.76 455.229 183.32 456.269 183.96C457.309 184.52 458.269 185.16 459.149 185.88C460.109 186.6 460.989 187.4 461.789 188.28C462.589 189.16 463.309 190.16 463.949 191.28C464.589 192.32 465.109 193.52 465.509 194.88C465.989 196.16 466.349 197.56 466.589 199.08C466.829 200.6 466.949 202.28 466.949 204.12C466.949 205.88 466.789 207.52 466.469 209.04C466.229 210.56 465.829 212 465.269 213.36C464.709 214.72 464.029 215.96 463.229 217.08C462.509 218.2 461.669 219.28 460.709 220.32C459.749 221.28 458.709 222.16 457.589 222.96C456.549 223.68 455.429 224.36 454.229 225C453.029 225.64 451.789 226.2 450.509 226.68C449.229 227.08 447.949 227.44 446.669 227.76C445.389 228 444.069 228.2 442.709 228.36C441.429 228.52 440.149 228.6 438.869 228.6C437.429 228.6 435.949 228.48 434.429 228.24C432.989 228 431.549 227.68 430.109 227.28C428.669 226.8 427.269 226.24 425.909 225.6C424.629 224.88 423.349 224.08 422.069 223.2C420.869 222.32 419.709 221.32 418.589 220.2C417.549 219 416.589 217.72 415.709 216.36C414.829 215 414.069 213.56 413.429 212.04C412.789 210.44 412.309 208.76 411.989 207C411.669 205.16 411.509 203.2 411.509 201.12H422.669ZM522.457 228.6C520.297 228.6 518.137 228.44 515.977 228.12C513.817 227.8 511.697 227.36 509.617 226.8C507.537 226.16 505.537 225.4 503.617 224.52C501.697 223.64 499.857 222.64 498.097 221.52C496.337 220.32 494.657 219 493.057 217.56C491.457 216.04 489.977 214.44 488.617 212.76C487.337 211.08 486.137 209.28 485.017 207.36C483.977 205.36 483.097 203.28 482.377 201.12C481.657 198.96 481.097 196.68 480.697 194.28C480.297 191.8 480.097 189.24 480.097 186.6C480.097 183.96 480.297 181.44 480.697 179.04C481.097 176.64 481.657 174.36 482.377 172.2C483.097 169.96 483.977 167.88 485.017 165.96C486.137 163.96 487.337 162.12 488.617 160.44C489.977 158.76 491.457 157.2 493.057 155.76C494.657 154.32 496.337 153 498.097 151.8C499.857 150.6 501.697 149.56 503.617 148.68C505.537 147.8 507.537 147.08 509.617 146.52C511.697 145.88 513.817 145.4 515.977 145.08C518.137 144.76 520.297 144.6 522.457 144.6C524.617 144.6 526.777 144.76 528.937 145.08C531.097 145.4 533.217 145.88 535.297 146.52C537.377 147.08 539.377 147.8 541.297 148.68C543.217 149.56 545.057 150.6 546.817 151.8C548.577 153 550.257 154.32 551.857 155.76C553.457 157.2 554.897 158.76 556.177 160.44C557.537 162.12 558.737 163.96 559.777 165.96C560.897 167.88 561.817 169.96 562.537 172.2C563.257 174.36 563.817 176.64 564.217 179.04C564.617 181.44 564.817 183.96 564.817 186.6C564.817 189.24 564.617 191.8 564.217 194.28C563.817 196.68 563.257 198.96 562.537 201.12C561.817 203.28 560.897 205.36 559.777 207.36C558.737 209.28 557.537 211.08 556.177 212.76C554.897 214.44 553.457 216.04 551.857 217.56C550.257 219 548.577 220.32 546.817 221.52C545.057 222.64 543.217 223.64 541.297 224.52C539.377 225.4 537.377 226.16 535.297 226.8C533.217 227.36 531.097 227.8 528.937 228.12C526.777 228.44 524.617 228.6 522.457 228.6ZM522.457 154.8C519.977 154.8 517.617 155.04 515.377 155.52C513.137 155.92 511.057 156.52 509.137 157.32C507.217 158.12 505.457 159.08 503.857 160.2C502.257 161.32 500.817 162.6 499.537 164.04C498.257 165.48 497.137 167.04 496.177 168.72C495.217 170.4 494.377 172.2 493.657 174.12C493.017 175.96 492.537 177.92 492.217 180C491.897 182.08 491.737 184.2 491.737 186.36C491.737 188.28 491.857 190.16 492.097 192C492.337 193.84 492.697 195.64 493.177 197.4C493.737 199.08 494.417 200.72 495.217 202.32C496.017 203.92 496.897 205.44 497.857 206.88C498.897 208.24 500.057 209.52 501.337 210.72C502.617 211.92 504.017 213 505.537 213.96C507.057 214.84 508.697 215.64 510.457 216.36C512.217 217 514.097 217.52 516.097 217.92C518.097 218.24 520.217 218.4 522.457 218.4C524.697 218.4 526.817 218.24 528.817 217.92C530.817 217.52 532.697 217 534.457 216.36C536.217 215.64 537.857 214.84 539.377 213.96C540.897 213 542.297 211.92 543.577 210.72C544.857 209.52 545.977 208.24 546.937 206.88C547.977 205.44 548.897 203.92 549.697 202.32C550.497 200.72 551.137 199.08 551.617 197.4C552.177 195.64 552.577 193.84 552.817 192C553.057 190.16 553.177 188.28 553.177 186.36C553.177 184.2 553.017 182.08 552.697 180C552.377 177.92 551.857 175.96 551.137 174.12C550.497 172.2 549.697 170.4 548.737 168.72C547.777 167.04 546.657 165.48 545.377 164.04C544.097 162.6 542.657 161.32 541.057 160.2C539.457 159.08 537.697 158.12 535.777 157.32C533.857 156.52 531.777 155.92 529.537 155.52C527.297 155.04 524.937 154.8 522.457 154.8ZM649.193 229.2L590.873 170.76V228H579.833V144L638.153 203.16V145.2H649.193V229.2Z" fill="black"/>
<path d="M6.2 84H5.2V85H6.2V84ZM6.2 1.19999V0.199993H5.2V1.19999H6.2ZM57.68 1.19999H58.68V0.199993H57.68V1.19999ZM57.68 11.28V12.28H58.68V11.28H57.68ZM17.24 11.28V10.28H16.24V11.28H17.24ZM17.24 36.84H16.24V37.84H17.24V36.84ZM53.48 36.84H54.48V35.84H53.48V36.84ZM53.48 46.92V47.92H54.48V46.92H53.48ZM17.24 46.92V45.92H16.24V46.92H17.24ZM17.24 73.92H16.24V74.92H17.24V73.92ZM59.48 73.92H60.48V72.92H59.48V73.92ZM59.48 84V85H60.48V84H59.48ZM7.2 84V1.19999H5.2V84H7.2ZM6.2 2.19999H57.68V0.199993H6.2V2.19999ZM56.68 1.19999V11.28H58.68V1.19999H56.68ZM57.68 10.28H17.24V12.28H57.68V10.28ZM16.24 11.28V36.84H18.24V11.28H16.24ZM17.24 37.84H53.48V35.84H17.24V37.84ZM52.48 36.84V46.92H54.48V36.84H52.48ZM53.48 45.92H17.24V47.92H53.48V45.92ZM16.24 46.92V73.92H18.24V46.92H16.24ZM17.24 74.92H59.48V72.92H17.24V74.92ZM58.48 73.92V84H60.48V73.92H58.48ZM59.48 83H6.2V85H59.48V83ZM117.332 55.68L116.612 56.3734L117.332 57.1222L118.053 56.3734L117.332 55.68ZM86.7322 23.88L87.4528 23.1866L85.7322 21.3986V23.88H86.7322ZM86.7322 84V85H87.7322V84H86.7322ZM75.6922 84H74.6922V85H75.6922V84ZM75.6922 -5.72205e-06V-1.00001H74.6922V-5.72205e-06H75.6922ZM75.9322 -5.72205e-06L76.6362 -0.710194L76.3438 -1.00001H75.9322V-5.72205e-06ZM117.332 41.04L116.628 41.7502L117.332 42.4481L118.036 41.7502L117.332 41.04ZM158.732 -5.72205e-06V-1.00001H158.321L158.028 -0.710193L158.732 -5.72205e-06ZM158.972 -5.72205e-06H159.972V-1.00001H158.972V-5.72205e-06ZM158.972 84V85H159.972V84H158.972ZM147.932 84H146.932V85H147.932V84ZM147.932 23.88H148.932V21.3986L147.212 23.1866L147.932 23.88ZM118.053 54.9866L87.4528 23.1866L86.0116 24.5734L116.612 56.3734L118.053 54.9866ZM85.7322 23.88V84H87.7322V23.88H85.7322ZM86.7322 83H75.6922V85H86.7322V83ZM76.6922 84V-5.72205e-06H74.6922V84H76.6922ZM75.6922 0.999994H75.9322V-1.00001H75.6922V0.999994ZM75.2282 0.710182L116.628 41.7502L118.036 40.3298L76.6362 -0.710194L75.2282 0.710182ZM118.036 41.7502L159.436 0.710182L158.028 -0.710193L116.628 40.3298L118.036 41.7502ZM158.732 0.999994H158.972V-1.00001H158.732V0.999994ZM157.972 -5.72205e-06V84H159.972V-5.72205e-06H157.972ZM158.972 83H147.932V85H158.972V83ZM148.932 84V23.88H146.932V84H148.932ZM147.212 23.1866L116.612 54.9866L118.053 56.3734L148.653 24.5734L147.212 23.1866ZM179.403 84H178.403V85H179.403V84ZM179.403 1.19999V0.199993H178.403V1.19999H179.403ZM190.443 1.19999H191.443V0.199993H190.443V1.19999ZM190.443 84V85H191.443V84H190.443ZM180.403 84V1.19999H178.403V84H180.403ZM179.403 2.19999H190.443V0.199993H179.403V2.19999ZM189.443 1.19999V84H191.443V1.19999H189.443ZM190.443 83H179.403V85H190.443V83ZM209.729 84H208.729V85H209.729V84ZM209.729 1.19999V0.199993H208.729V1.19999H209.729ZM220.769 1.19999H221.769V0.199993H220.769V1.19999ZM220.769 73.92H219.769V74.92H220.769V73.92ZM260.369 73.92H261.369V72.92H260.369V73.92ZM260.369 84V85H261.369V84H260.369ZM210.729 84V1.19999H208.729V84H210.729ZM209.729 2.19999H220.769V0.199993H209.729V2.19999ZM219.769 1.19999V73.92H221.769V1.19999H219.769ZM220.769 74.92H260.369V72.92H220.769V74.92ZM259.369 73.92V84H261.369V73.92H259.369ZM260.369 83H209.729V85H260.369V83ZM297.806 84H296.806V85H297.806V84ZM297.806 51.48H298.806V51.2168L298.676 50.9877L297.806 51.48ZM269.366 1.19999V0.199993H267.651L268.495 1.69232L269.366 1.19999ZM281.366 1.19999L282.242 0.718378L281.957 0.199993H281.366V1.19999ZM303.326 41.16L302.449 41.6416L303.326 43.2363L304.202 41.6416L303.326 41.16ZM325.286 1.19999V0.199993H324.694L324.409 0.718378L325.286 1.19999ZM337.286 1.19999L338.156 1.69232L339 0.199993H337.286V1.19999ZM308.846 51.48L307.975 50.9877L307.846 51.2168V51.48H308.846ZM308.846 84V85H309.846V84H308.846ZM298.806 84V51.48H296.806V84H298.806ZM298.676 50.9877L270.236 0.707662L268.495 1.69232L296.935 51.9723L298.676 50.9877ZM269.366 2.19999H281.366V0.199993H269.366V2.19999ZM280.489 1.68161L302.449 41.6416L304.202 40.6784L282.242 0.718378L280.489 1.68161ZM304.202 41.6416L326.162 1.68161L324.409 0.718378L302.449 40.6784L304.202 41.6416ZM325.286 2.19999H337.286V0.199993H325.286V2.19999ZM336.415 0.707662L307.975 50.9877L309.716 51.9723L338.156 1.69232L336.415 0.707662ZM307.846 51.48V84H309.846V51.48H307.846ZM308.846 83H297.806V85H308.846V83ZM74.6 228V229H76.1325L75.5153 227.597L74.6 228ZM63.32 228L62.4041 228.401L62.6665 229H63.32V228ZM54.8 208.56L55.7159 208.159L55.4536 207.56H54.8V208.56ZM20.12 208.56V207.56H19.4664L19.2041 208.159L20.12 208.56ZM11.6 228V229H12.2536L12.5159 228.401L11.6 228ZM0.32 228L-0.595315 227.597L-1.21252 229H0.32V228ZM37.28 144V143H36.6275L36.3647 143.597L37.28 144ZM37.64 144L38.5553 143.597L38.2925 143H37.64V144ZM24.56 198.6L23.6444 198.198L23.0288 199.6H24.56V198.6ZM50.48 198.6V199.6H52.0112L51.3956 198.198L50.48 198.6ZM37.52 169.08L38.4356 168.678L37.52 166.592L36.6044 168.678L37.52 169.08ZM74.6 227H63.32V229H74.6V227ZM64.2359 227.599L55.7159 208.159L53.8841 208.961L62.4041 228.401L64.2359 227.599ZM54.8 207.56H20.12V209.56H54.8V207.56ZM19.2041 208.159L10.6841 227.599L12.5159 228.401L21.0359 208.961L19.2041 208.159ZM11.6 227H0.32V229H11.6V227ZM1.23532 228.403L38.1953 144.403L36.3647 143.597L-0.595315 227.597L1.23532 228.403ZM37.28 145H37.64V143H37.28V145ZM36.7247 144.403L73.6847 228.403L75.5153 227.597L38.5553 143.597L36.7247 144.403ZM24.56 199.6H50.48V197.6H24.56V199.6ZM51.3956 198.198L38.4356 168.678L36.6044 169.482L49.5644 199.002L51.3956 198.198ZM36.6044 168.678L23.6444 198.198L25.4756 199.002L38.4356 169.482L36.6044 168.678ZM158.529 229.2L157.821 229.906L159.529 231.618V229.2H158.529ZM100.209 170.76L100.917 170.054L99.2088 168.342V170.76H100.209ZM100.209 228V229H101.209V228H100.209ZM89.1688 228H88.1688V229H89.1688V228ZM89.1688 144L89.8809 143.298L88.1688 141.561V144H89.1688ZM147.489 203.16L146.777 203.862L148.489 205.599V203.16H147.489ZM147.489 145.2V144.2H146.489V145.2H147.489ZM158.529 145.2H159.529V144.2H158.529V145.2ZM159.237 228.494L100.917 170.054L99.5009 171.466L157.821 229.906L159.237 228.494ZM99.2088 170.76V228H101.209V170.76H99.2088ZM100.209 227H89.1688V229H100.209V227ZM90.1688 228V144H88.1688V228H90.1688ZM88.4566 144.702L146.777 203.862L148.201 202.458L89.8809 143.298L88.4566 144.702ZM148.489 203.16V145.2H146.489V203.16H148.489ZM147.489 146.2H158.529V144.2H147.489V146.2ZM157.529 145.2V229.2H159.529V145.2H157.529ZM178.934 228H177.934V229H178.934V228ZM178.934 145.2V144.2H177.934V145.2H178.934ZM215.054 145.8L215.204 144.811L215.204 144.811L215.054 145.8ZM222.614 147.48L222.327 148.438L222.336 148.44L222.614 147.48ZM229.574 150.24L229.114 151.128L229.114 151.128L229.574 150.24ZM235.574 154.08L234.958 154.867L234.977 154.882L234.996 154.896L235.574 154.08ZM240.734 158.76L239.978 159.414L239.986 159.423L239.994 159.433L240.734 158.76ZM244.934 164.52L244.068 165.02L244.08 165.04L244.092 165.059L244.934 164.52ZM248.054 171L247.109 171.326L247.114 171.34L247.119 171.355L248.054 171ZM249.974 178.44L248.986 178.59L248.988 178.607L248.992 178.624L249.974 178.44ZM249.974 194.88L248.991 194.701L248.988 194.713L248.986 194.726L249.974 194.88ZM248.054 202.2L247.119 201.845L247.114 201.86L247.109 201.874L248.054 202.2ZM244.934 208.8L244.083 208.276L244.075 208.288L244.068 208.3L244.934 208.8ZM240.734 214.56L239.994 213.887L239.993 213.889L240.734 214.56ZM235.574 219.24L234.974 218.44L234.966 218.446L234.958 218.452L235.574 219.24ZM229.574 223.08L230.008 223.981L230.022 223.975L230.035 223.968L229.574 223.08ZM222.614 225.84L222.902 226.798L222.912 226.795L222.921 226.792L222.614 225.84ZM215.054 227.52L215.175 228.513L215.189 228.511L215.204 228.509L215.054 227.52ZM189.974 155.28V154.28H188.974V155.28H189.974ZM189.974 217.92H188.974V218.92H189.974V217.92ZM211.814 217.56L211.921 218.554L211.936 218.553L211.951 218.551L211.814 217.56ZM223.694 214.32L224.105 215.232L224.115 215.227L224.124 215.223L223.694 214.32ZM228.134 211.68L227.558 210.863L227.546 210.871L227.534 210.88L228.134 211.68ZM231.734 208.56L231.003 207.878L231.002 207.88L231.734 208.56ZM234.614 204.84L235.462 205.37L235.469 205.359L235.476 205.347L234.614 204.84ZM236.654 200.64L237.586 201.002L237.586 201.002L236.654 200.64ZM237.974 196.2L237.007 195.946L237.001 195.97L236.996 195.994L237.974 196.2ZM238.814 191.52L239.809 191.62L239.809 191.62L238.814 191.52ZM238.814 181.68L237.819 181.775L237.819 181.78L238.814 181.68ZM237.974 176.88L236.994 177.076L237 177.106L237.007 177.134L237.974 176.88ZM236.654 172.44L235.722 172.802L235.726 172.812L235.73 172.821L236.654 172.44ZM234.614 168.36L233.752 168.867L233.759 168.879L233.766 168.89L234.614 168.36ZM231.734 164.64L230.979 165.295L231.002 165.322L231.027 165.347L231.734 164.64ZM228.134 161.4L227.534 162.2L227.546 162.209L227.558 162.217L228.134 161.4ZM223.694 158.88L223.247 159.774L223.273 159.788L223.3 159.799L223.694 158.88ZM218.294 156.96L218.025 157.923L218.043 157.928L218.061 157.932L218.294 156.96ZM211.814 155.76L211.673 156.75L211.692 156.753L211.711 156.755L211.814 155.76ZM179.934 228V145.2H177.934V228H179.934ZM178.934 146.2H206.774V144.2H178.934V146.2ZM206.774 146.2C209.608 146.2 212.318 146.397 214.905 146.789L215.204 144.811C212.511 144.403 209.701 144.2 206.774 144.2V146.2ZM214.905 146.789C217.501 147.182 219.975 147.732 222.327 148.438L222.902 146.522C220.454 145.788 217.888 145.218 215.204 144.811L214.905 146.789ZM222.336 148.44C224.757 149.143 227.015 150.04 229.114 151.128L230.035 149.352C227.813 148.2 225.432 147.257 222.893 146.52L222.336 148.44ZM229.114 151.128C231.221 152.22 233.169 153.467 234.958 154.867L236.191 153.292C234.3 151.813 232.247 150.5 230.035 149.352L229.114 151.128ZM234.996 154.896C236.851 156.21 238.511 157.715 239.978 159.414L241.491 158.106C239.918 156.284 238.138 154.67 236.152 153.264L234.996 154.896ZM239.994 159.433C241.546 161.139 242.904 163.001 244.068 165.02L245.801 164.02C244.565 161.879 243.123 159.901 241.474 158.087L239.994 159.433ZM244.092 165.059C245.328 166.99 246.334 169.078 247.109 171.326L249 170.674C248.175 168.282 247.101 166.05 245.777 163.981L244.092 165.059ZM247.119 171.355C247.972 173.604 248.595 176.015 248.986 178.59L250.963 178.29C250.553 175.585 249.896 173.036 248.989 170.645L247.119 171.355ZM248.992 178.624C249.459 181.118 249.694 183.775 249.694 186.6H251.694C251.694 183.665 251.45 180.882 250.957 178.256L248.992 178.624ZM249.694 186.6C249.694 189.424 249.459 192.124 248.991 194.701L250.958 195.059C251.45 192.356 251.694 189.536 251.694 186.6H249.694ZM248.986 194.726C248.597 197.22 247.974 199.593 247.119 201.845L248.989 202.555C249.895 200.167 250.552 197.66 250.962 195.034L248.986 194.726ZM247.109 201.874C246.333 204.125 245.324 206.259 244.083 208.276L245.786 209.324C247.105 207.181 248.176 204.915 249 202.526L247.109 201.874ZM244.068 208.3C242.904 210.319 241.546 212.181 239.994 213.887L241.474 215.233C243.123 213.419 244.565 211.441 245.801 209.3L244.068 208.3ZM239.993 213.889C238.518 215.519 236.846 217.036 234.974 218.44L236.174 220.04C238.143 218.564 239.911 216.961 241.476 215.231L239.993 213.889ZM234.958 218.452C233.169 219.853 231.221 221.1 229.114 222.192L230.035 223.968C232.247 222.82 234.3 221.507 236.191 220.028L234.958 218.452ZM229.141 222.179C227.025 223.198 224.748 224.101 222.307 224.888L222.921 226.792C225.441 225.979 227.804 225.042 230.008 223.981L229.141 222.179ZM222.327 224.882C219.975 225.588 217.501 226.138 214.905 226.531L215.204 228.509C217.888 228.102 220.454 227.532 222.902 226.798L222.327 224.882ZM214.934 226.527C212.337 226.842 209.617 227 206.774 227V229C209.691 229 212.492 228.838 215.175 228.513L214.934 226.527ZM206.774 227H178.934V229H206.774V227ZM204.374 154.28H189.974V156.28H204.374V154.28ZM188.974 155.28V217.92H190.974V155.28H188.974ZM189.974 218.92H204.374V216.92H189.974V218.92ZM204.374 218.92C207.123 218.92 209.639 218.799 211.921 218.554L211.708 216.566C209.51 216.801 207.066 216.92 204.374 216.92V218.92ZM211.951 218.551C214.31 218.225 216.515 217.777 218.564 217.203L218.025 215.277C216.073 215.823 213.958 216.255 211.678 216.569L211.951 218.551ZM218.564 217.203C220.604 216.632 222.452 215.976 224.105 215.232L223.284 213.408C221.737 214.104 219.985 214.728 218.025 215.277L218.564 217.203ZM224.124 215.223C225.855 214.399 227.393 213.486 228.734 212.48L227.534 210.88C226.315 211.794 224.894 212.641 223.264 213.417L224.124 215.223ZM228.711 212.497C230.123 211.501 231.376 210.416 232.467 209.24L231.002 207.88C230.013 208.944 228.866 209.939 227.558 210.863L228.711 212.497ZM232.465 209.242C233.625 207.999 234.626 206.709 235.462 205.37L233.766 204.31C233.003 205.531 232.083 206.721 231.003 207.878L232.465 209.242ZM235.476 205.347C236.303 203.942 237.007 202.493 237.586 201.002L235.722 200.278C235.182 201.667 234.526 203.018 233.752 204.333L235.476 205.347ZM237.586 201.002C238.166 199.511 238.622 197.979 238.953 196.406L236.996 195.994C236.687 197.461 236.263 198.889 235.722 200.278L237.586 201.002ZM238.941 196.454C239.355 194.882 239.644 193.271 239.809 191.62L237.819 191.42C237.664 192.969 237.394 194.478 237.007 195.946L238.941 196.454ZM239.809 191.62C239.973 189.985 240.054 188.312 240.054 186.6H238.054C238.054 188.248 237.976 189.855 237.819 191.42L239.809 191.62ZM240.054 186.6C240.054 184.888 239.973 183.215 239.809 181.58L237.819 181.78C237.976 183.345 238.054 184.952 238.054 186.6H240.054ZM239.81 181.585C239.645 179.855 239.356 178.202 238.941 176.626L237.007 177.134C237.393 178.598 237.664 180.145 237.819 181.775L239.81 181.585ZM238.955 176.684C238.624 175.027 238.166 173.485 237.579 172.059L235.73 172.821C236.263 174.115 236.685 175.533 236.994 177.076L238.955 176.684ZM237.586 172.078C237.004 170.581 236.296 169.164 235.462 167.83L233.766 168.89C234.532 170.116 235.185 171.419 235.722 172.802L237.586 172.078ZM235.476 167.853C234.633 166.42 233.621 165.113 232.441 163.933L231.027 165.347C232.088 166.407 232.996 167.58 233.752 168.867L235.476 167.853ZM232.49 163.985C231.395 162.721 230.134 161.587 228.711 160.583L227.558 162.217C228.855 163.133 229.994 164.159 230.979 165.295L232.49 163.985ZM228.734 160.6C227.382 159.586 225.831 158.708 224.088 157.961L223.3 159.799C224.917 160.492 226.326 161.294 227.534 162.2L228.734 160.6ZM224.142 157.986C222.464 157.147 220.591 156.483 218.528 155.988L218.061 157.932C219.998 158.397 221.724 159.013 223.247 159.774L224.142 157.986ZM218.564 155.997C216.503 155.42 214.287 155.01 211.917 154.765L211.711 156.755C213.982 156.99 216.085 157.38 218.025 157.923L218.564 155.997ZM211.956 154.77C209.661 154.442 207.133 154.28 204.374 154.28V156.28C207.056 156.28 209.488 156.438 211.673 156.75L211.956 154.77ZM265.653 228H264.653V229H265.653V228ZM265.653 145.2V144.2H264.653V145.2H265.653ZM317.133 145.2H318.133V144.2H317.133V145.2ZM317.133 155.28V156.28H318.133V155.28H317.133ZM276.693 155.28V154.28H275.693V155.28H276.693ZM276.693 180.84H275.693V181.84H276.693V180.84ZM312.933 180.84H313.933V179.84H312.933V180.84ZM312.933 190.92V191.92H313.933V190.92H312.933ZM276.693 190.92V189.92H275.693V190.92H276.693ZM276.693 217.92H275.693V218.92H276.693V217.92ZM318.933 217.92H319.933V216.92H318.933V217.92ZM318.933 228V229H319.933V228H318.933ZM266.653 228V145.2H264.653V228H266.653ZM265.653 146.2H317.133V144.2H265.653V146.2ZM316.133 145.2V155.28H318.133V145.2H316.133ZM317.133 154.28H276.693V156.28H317.133V154.28ZM275.693 155.28V180.84H277.693V155.28H275.693ZM276.693 181.84H312.933V179.84H276.693V181.84ZM311.933 180.84V190.92H313.933V180.84H311.933ZM312.933 189.92H276.693V191.92H312.933V189.92ZM275.693 190.92V217.92H277.693V190.92H275.693ZM276.693 218.92H318.933V216.92H276.693V218.92ZM317.933 217.92V228H319.933V217.92H317.933ZM318.933 227H265.653V229H318.933V227ZM335.145 228H334.145V229H335.145V228ZM335.145 145.2V144.2H334.145V145.2H335.145ZM393.825 170.16L394.819 170.27L394.82 170.26L393.825 170.16ZM393.465 172.56L392.481 172.381L392.473 172.425L392.469 172.469L393.465 172.56ZM392.985 175.32L393.95 175.583L393.953 175.573L393.955 175.563L392.985 175.32ZM392.025 177.96L391.115 177.546L391.099 177.582L391.086 177.618L392.025 177.96ZM390.825 180.72L391.703 181.199L391.712 181.183L391.72 181.167L390.825 180.72ZM389.145 183.36L389.926 183.985L389.941 183.967L389.954 183.948L389.145 183.36ZM384.345 187.68L383.791 186.848L383.791 186.848L384.345 187.68ZM381.105 189.36L380.734 188.432L380.734 188.432L381.105 189.36ZM377.145 190.56L377.319 191.545L377.341 191.541L377.362 191.536L377.145 190.56ZM372.705 191.04V192.04H372.73L372.755 192.039L372.705 191.04ZM367.425 190.8L367.508 189.803L366.978 191.694L367.425 190.8ZM373.905 195.84L374.653 195.176L374.653 195.176L373.905 195.84ZM380.505 204.48L379.682 205.047L379.688 205.056L380.505 204.48ZM397.065 228V229H398.992L397.883 227.424L397.065 228ZM383.865 228L383.045 228.571L383.343 229H383.865V228ZM365.985 202.32L365.163 202.888L365.165 202.891L365.985 202.32ZM358.665 193.92L358.102 194.746L358.11 194.752L358.119 194.758L358.665 193.92ZM346.185 192.12V191.12H345.185V192.12H346.185ZM346.185 228V229H347.185V228H346.185ZM346.185 155.28V154.28H345.185V155.28H346.185ZM346.185 182.04H345.185V183.04H346.185V182.04ZM378.945 178.32L378.282 177.571L378.277 177.576L378.272 177.581L378.945 178.32ZM378.345 158.16L377.831 159.017L377.839 159.022L377.847 159.027L378.345 158.16ZM336.145 228V145.2H334.145V228H336.145ZM335.145 146.2H367.665V144.2H335.145V146.2ZM367.665 146.2C375.6 146.2 381.759 148.007 386.25 151.509L387.48 149.931C382.532 146.073 375.891 144.2 367.665 144.2V146.2ZM386.25 151.509C390.659 154.945 392.945 160.329 392.945 167.88H394.945C394.945 159.911 392.512 153.855 387.48 149.931L386.25 151.509ZM392.945 167.88C392.945 168.563 392.907 169.29 392.83 170.06L394.82 170.26C394.903 169.43 394.945 168.637 394.945 167.88H392.945ZM392.831 170.05C392.754 170.742 392.638 171.519 392.481 172.381L394.449 172.739C394.612 171.841 394.736 171.018 394.819 170.27L392.831 170.05ZM392.469 172.469C392.395 173.293 392.244 174.162 392.015 175.077L393.955 175.563C394.206 174.558 394.376 173.587 394.461 172.651L392.469 172.469ZM392.021 175.057C391.795 175.882 391.494 176.712 391.115 177.546L392.936 178.374C393.357 177.448 393.695 176.518 393.95 175.583L392.021 175.057ZM391.086 177.618C390.78 178.458 390.396 179.342 389.931 180.273L391.72 181.167C392.214 180.178 392.63 179.222 392.965 178.302L391.086 177.618ZM389.947 180.241C389.49 181.08 388.953 181.924 388.337 182.772L389.954 183.948C390.617 183.036 391.201 182.12 391.703 181.199L389.947 180.241ZM388.364 182.735C387.76 183.491 387.078 184.211 386.316 184.897L387.654 186.383C388.493 185.629 389.251 184.829 389.926 183.985L388.364 182.735ZM386.316 184.897C385.555 185.582 384.713 186.233 383.791 186.848L384.9 188.512C385.897 187.847 386.816 187.138 387.654 186.383L386.316 184.897ZM383.791 186.848C382.895 187.445 381.877 187.974 380.734 188.432L381.477 190.288C382.733 189.786 383.876 189.195 384.9 188.512L383.791 186.848ZM380.734 188.432C379.59 188.889 378.323 189.274 376.928 189.584L377.362 191.536C378.848 191.206 380.22 190.791 381.477 190.288L380.734 188.432ZM376.972 189.575C375.658 189.807 374.22 189.963 372.655 190.041L372.755 192.039C374.39 191.957 375.912 191.793 377.319 191.545L376.972 189.575ZM372.705 190.04C371.138 190.04 369.406 189.962 367.508 189.803L367.342 191.797C369.285 191.958 371.073 192.04 372.705 192.04V190.04ZM366.978 191.694C369.256 192.833 371.316 194.432 373.158 196.504L374.653 195.176C372.655 192.928 370.395 191.167 367.873 189.906L366.978 191.694ZM373.158 196.504C375.041 198.622 377.215 201.466 379.682 205.047L381.329 203.913C378.836 200.294 376.61 197.378 374.653 195.176L373.158 196.504ZM379.688 205.056L396.248 228.576L397.883 227.424L381.323 203.904L379.688 205.056ZM397.065 227H383.865V229H397.065V227ZM384.686 227.429L366.806 201.749L365.165 202.891L383.045 228.571L384.686 227.429ZM366.808 201.752C363.771 197.355 361.234 194.401 359.212 193.082L358.119 194.758C359.777 195.839 362.12 198.485 365.163 202.888L366.808 201.752ZM359.229 193.094C357.253 191.747 354.717 191.12 351.705 191.12V193.12C354.453 193.12 356.557 193.693 358.102 194.746L359.229 193.094ZM351.705 191.12H346.185V193.12H351.705V191.12ZM345.185 192.12V228H347.185V192.12H345.185ZM346.185 227H335.145V229H346.185V227ZM364.785 154.28H346.185V156.28H364.785V154.28ZM345.185 155.28V182.04H347.185V155.28H345.185ZM346.185 183.04H364.785V181.04H346.185V183.04ZM364.785 183.04C371.57 183.04 376.613 181.799 379.619 179.059L378.272 177.581C375.837 179.801 371.44 181.04 364.785 181.04V183.04ZM379.608 179.069C382.665 176.361 384.145 172.584 384.145 167.88H382.145C382.145 172.136 380.826 175.319 378.282 177.571L379.608 179.069ZM384.145 167.88C384.145 162.989 382.437 159.359 378.844 157.293L377.847 159.027C380.654 160.641 382.145 163.491 382.145 167.88H384.145ZM378.86 157.303C375.44 155.251 370.713 154.28 364.785 154.28V156.28C370.538 156.28 374.851 157.229 377.831 159.017L378.86 157.303ZM422.669 201.12L423.668 201.065L423.616 200.12H422.669V201.12ZM427.709 214.2L427.022 214.926L427.031 214.935L427.041 214.944L427.709 214.2ZM450.749 215.04L450.156 214.235L450.156 214.235L450.749 215.04ZM454.949 200.76L453.975 200.985L453.975 200.985L454.949 200.76ZM453.869 198L452.959 198.414L452.983 198.466L453.012 198.514L453.869 198ZM452.309 195.72L451.562 196.384L451.581 196.406L451.602 196.427L452.309 195.72ZM450.149 193.92L449.576 194.739L449.605 194.759L449.635 194.777L450.149 193.92ZM447.509 192.36L447.031 193.238L447.046 193.246L447.062 193.254L447.509 192.36ZM444.629 191.16L444.245 192.083L444.289 192.102L444.335 192.116L444.629 191.16ZM441.509 190.08L441.215 191.036L441.225 191.039L441.235 191.042L441.509 190.08ZM438.269 189.12L437.995 190.082L437.995 190.082L438.269 189.12ZM434.789 188.16L434.453 189.102L434.492 189.116L434.532 189.126L434.789 188.16ZM431.429 187.08L431.093 188.022L431.124 188.033L431.155 188.042L431.429 187.08ZM428.069 185.88L427.71 186.813L427.722 186.818L427.733 186.822L428.069 185.88ZM424.949 184.44L424.446 185.304L424.46 185.312L424.475 185.32L424.949 184.44ZM422.069 182.64L421.481 183.449L421.498 183.461L421.515 183.472L422.069 182.64ZM419.549 180.6L418.842 181.307L418.861 181.326L418.88 181.343L419.549 180.6ZM417.389 177.96L416.557 178.515L416.557 178.515L417.389 177.96ZM415.709 174.84L414.761 175.156L414.774 175.196L414.79 175.234L415.709 174.84ZM414.749 171L413.763 171.164L413.765 171.174L414.749 171ZM414.869 161.16L413.897 160.928L413.892 160.946L413.889 160.964L414.869 161.16ZM416.429 156.6L415.546 156.132L415.535 156.153L415.525 156.174L416.429 156.6ZM418.829 152.88L418.07 152.229L418.056 152.245L418.043 152.262L418.829 152.88ZM421.949 149.88L421.358 149.074L421.345 149.083L421.332 149.094L421.949 149.88ZM425.669 147.6L426.117 148.494L426.127 148.489L426.137 148.484L425.669 147.6ZM429.869 145.92L430.137 146.884L430.154 146.879L430.171 146.874L429.869 145.92ZM434.429 144.96L434.534 145.955L434.556 145.952L434.578 145.949L434.429 144.96ZM449.189 146.16L448.844 147.098L448.866 147.106L448.888 147.114L449.189 146.16ZM453.389 148.08L452.859 148.928L452.89 148.947L452.921 148.964L453.389 148.08ZM457.109 150.72L456.429 151.453L456.443 151.466L456.459 151.479L457.109 150.72ZM460.109 154.08L459.285 154.647L459.297 154.664L459.309 154.68L460.109 154.08ZM462.509 158.28L461.588 158.668L461.592 158.677L461.596 158.686L462.509 158.28ZM463.949 163.08L462.966 163.259L462.966 163.259L463.949 163.08ZM464.429 168.72V169.72H465.429V168.72H464.429ZM453.029 168.72L452.031 168.783L452.091 169.72H453.029V168.72ZM449.189 158.04L448.495 158.76L448.502 158.766L448.509 158.773L449.189 158.04ZM429.149 157.8L429.787 158.57L429.79 158.568L429.149 157.8ZM426.029 169.08L425.065 169.343L425.068 169.355L425.072 169.367L426.029 169.08ZM426.989 171.36L426.115 171.846L426.135 171.881L426.157 171.915L426.989 171.36ZM430.829 174.84L430.315 175.697L430.348 175.717L430.382 175.734L430.829 174.84ZM433.349 176.04L432.936 176.95L432.95 176.957L432.965 176.963L433.349 176.04ZM439.469 178.08L439.175 179.036L439.217 179.049L439.26 179.058L439.469 178.08ZM442.829 178.92L442.555 179.882L442.563 179.884L442.572 179.886L442.829 178.92ZM449.669 180.96L449.333 181.902L449.343 181.905L449.353 181.909L449.669 180.96ZM453.029 182.28L452.61 183.188L452.623 183.194L452.635 183.199L453.029 182.28ZM456.269 183.96L455.745 184.812L455.77 184.827L455.795 184.84L456.269 183.96ZM459.149 185.88L458.516 186.654L458.532 186.667L458.549 186.68L459.149 185.88ZM461.789 188.28L462.529 187.607L462.529 187.607L461.789 188.28ZM463.949 191.28L463.081 191.776L463.089 191.79L463.098 191.804L463.949 191.28ZM465.509 194.88L464.55 195.162L464.56 195.197L464.573 195.231L465.509 194.88ZM466.589 199.08L467.577 198.924L467.577 198.924L466.589 199.08ZM466.469 209.04L465.491 208.834L465.486 208.859L465.482 208.884L466.469 209.04ZM465.269 213.36L464.345 212.979L464.345 212.979L465.269 213.36ZM463.229 217.08L462.416 216.499L462.401 216.519L462.388 216.539L463.229 217.08ZM460.709 220.32L461.416 221.027L461.431 221.013L461.444 220.998L460.709 220.32ZM457.589 222.96L458.159 223.782L458.165 223.778L458.171 223.774L457.589 222.96ZM454.229 225L454.7 225.882L454.7 225.882L454.229 225ZM450.509 226.68L450.808 227.634L450.834 227.626L450.86 227.616L450.509 226.68ZM446.669 227.76L446.854 228.743L446.883 228.737L446.912 228.73L446.669 227.76ZM442.709 228.36L442.593 227.367L442.585 227.368L442.709 228.36ZM434.429 228.24L434.265 229.226L434.273 229.228L434.429 228.24ZM430.109 227.28L429.793 228.229L429.817 228.237L429.842 228.244L430.109 227.28ZM425.909 225.6L425.419 226.472L425.451 226.489L425.484 226.505L425.909 225.6ZM422.069 223.2L421.478 224.006L421.49 224.015L421.503 224.024L422.069 223.2ZM418.589 220.2L417.834 220.855L417.857 220.882L417.882 220.907L418.589 220.2ZM415.709 216.36L414.87 216.903L414.87 216.903L415.709 216.36ZM413.429 212.04L412.501 212.411L412.504 212.42L412.508 212.428L413.429 212.04ZM411.989 207L411.004 207.171L411.006 207.179L411.989 207ZM411.509 201.12V200.12H410.509V201.12H411.509ZM421.671 201.175C421.999 207.168 423.733 211.811 427.022 214.926L428.397 213.474C425.606 210.829 423.979 206.752 423.668 201.065L421.671 201.175ZM427.041 214.944C430.358 217.921 434.401 219.4 439.109 219.4V217.4C434.857 217.4 431.301 216.079 428.377 213.456L427.041 214.944ZM439.109 219.4C443.989 219.4 448.092 218.24 451.343 215.845L450.156 214.235C447.327 216.32 443.67 217.4 439.109 217.4V219.4ZM451.343 215.845C454.719 213.357 456.309 209.362 456.309 204.12H454.309C454.309 208.958 452.86 212.243 450.156 214.235L451.343 215.845ZM456.309 204.12C456.309 202.854 456.183 201.657 455.924 200.535L453.975 200.985C454.196 201.943 454.309 202.986 454.309 204.12H456.309ZM455.924 200.535C455.664 199.408 455.268 198.387 454.727 197.486L453.012 198.514C453.431 199.213 453.755 200.032 453.975 200.985L455.924 200.535ZM454.78 197.586C454.334 196.605 453.747 195.743 453.016 195.013L451.602 196.427C452.152 196.977 452.605 197.635 452.959 198.414L454.78 197.586ZM453.057 195.056C452.352 194.262 451.554 193.596 450.664 193.063L449.635 194.777C450.345 195.204 450.987 195.738 451.562 196.384L453.057 195.056ZM450.723 193.101C449.879 192.51 448.956 191.965 447.957 191.466L447.062 193.254C447.983 193.715 448.82 194.21 449.576 194.739L450.723 193.101ZM447.988 191.482C447.045 190.967 446.022 190.542 444.923 190.204L444.335 192.116C445.317 192.418 446.214 192.793 447.031 193.238L447.988 191.482ZM445.014 190.237C444.014 189.82 442.937 189.448 441.784 189.118L441.235 191.042C442.322 191.352 443.325 191.7 444.245 192.083L445.014 190.237ZM441.803 189.124C440.757 188.802 439.67 188.48 438.544 188.158L437.995 190.082C439.109 190.4 440.182 190.718 441.215 191.036L441.803 189.124ZM438.544 188.158C437.418 187.837 436.252 187.515 435.047 187.194L434.532 189.126C435.726 189.445 436.881 189.763 437.995 190.082L438.544 188.158ZM435.126 187.218C433.986 186.811 432.845 186.445 431.704 186.118L431.155 188.042C432.253 188.355 433.353 188.709 434.453 189.102L435.126 187.218ZM431.766 186.138C430.646 185.738 429.526 185.338 428.406 184.938L427.733 186.822C428.853 187.222 429.973 187.622 431.093 188.022L431.766 186.138ZM428.428 184.947C427.43 184.563 426.428 184.101 425.423 183.56L424.475 185.32C425.55 185.899 426.629 186.397 427.71 186.813L428.428 184.947ZM425.453 183.576C424.511 183.027 423.568 182.437 422.624 181.808L421.515 183.472C422.491 184.123 423.468 184.733 424.446 185.304L425.453 183.576ZM422.658 181.831C421.805 181.211 420.992 180.553 420.218 179.857L418.88 181.343C419.706 182.087 420.573 182.789 421.481 183.449L422.658 181.831ZM420.256 179.893C419.504 179.14 418.826 178.312 418.221 177.405L416.557 178.515C417.233 179.528 417.995 180.46 418.842 181.307L420.256 179.893ZM418.221 177.405C417.617 176.499 417.086 175.513 416.629 174.446L414.79 175.234C415.293 176.407 415.882 177.501 416.557 178.515L418.221 177.405ZM416.658 174.524C416.275 173.374 415.966 172.142 415.734 170.826L413.765 171.174C414.012 172.578 414.344 173.906 414.761 175.156L416.658 174.524ZM415.736 170.836C415.506 169.457 415.389 167.953 415.389 166.32H413.389C413.389 168.047 413.513 169.663 413.763 171.164L415.736 170.836ZM415.389 166.32C415.389 164.538 415.544 162.884 415.85 161.356L413.889 160.964C413.554 162.636 413.389 164.422 413.389 166.32H415.389ZM415.842 161.392C416.229 159.769 416.727 158.315 417.334 157.026L415.525 156.174C414.851 157.605 414.31 159.191 413.897 160.928L415.842 161.392ZM417.313 157.068C418.007 155.756 418.775 154.567 419.616 153.498L418.043 152.262C417.123 153.433 416.291 154.724 415.546 156.132L417.313 157.068ZM419.589 153.531C420.508 152.459 421.5 151.504 422.567 150.666L421.332 149.094C420.158 150.016 419.071 151.061 418.07 152.229L419.589 153.531ZM422.541 150.686C423.697 149.838 424.889 149.108 426.117 148.494L425.222 146.706C423.89 147.372 422.602 148.162 421.358 149.074L422.541 150.686ZM426.137 148.484C427.435 147.796 428.768 147.264 430.137 146.884L429.602 144.956C428.09 145.376 426.623 145.963 425.201 146.716L426.137 148.484ZM430.171 146.874C431.629 146.413 433.084 146.107 434.534 145.955L434.325 143.965C432.735 144.133 431.149 144.467 429.568 144.966L430.171 146.874ZM434.578 145.949C436.129 145.716 437.68 145.6 439.229 145.6V143.6C437.579 143.6 435.93 143.724 434.281 143.971L434.578 145.949ZM439.229 145.6C440.944 145.6 442.616 145.717 444.248 145.95L444.531 143.97C442.802 143.723 441.035 143.6 439.229 143.6V145.6ZM444.248 145.95C445.862 146.18 447.393 146.564 448.844 147.098L449.535 145.222C447.946 144.636 446.277 144.22 444.531 143.97L444.248 145.95ZM448.888 147.114C450.332 147.57 451.655 148.175 452.859 148.928L453.919 147.232C452.564 146.385 451.086 145.71 449.491 145.206L448.888 147.114ZM452.921 148.964C454.205 149.643 455.373 150.473 456.429 151.453L457.79 149.987C456.605 148.887 455.294 147.957 453.857 147.196L452.921 148.964ZM456.459 151.479C457.509 152.38 458.452 153.434 459.285 154.647L460.933 153.513C460.007 152.166 458.949 150.98 457.76 149.961L456.459 151.479ZM459.309 154.68C460.219 155.893 460.978 157.221 461.588 158.668L463.431 157.892C462.76 156.299 461.92 154.827 460.909 153.48L459.309 154.68ZM461.596 158.686C462.199 160.044 462.658 161.567 462.966 163.259L464.933 162.901C464.601 161.073 464.1 159.396 463.423 157.874L461.596 158.686ZM462.966 163.259C463.274 164.953 463.429 166.773 463.429 168.72H465.429C465.429 166.667 465.265 164.727 464.933 162.901L462.966 163.259ZM464.429 167.72H453.029V169.72H464.429V167.72ZM454.027 168.657C453.701 163.518 452.388 159.645 449.87 157.307L448.509 158.773C450.471 160.595 451.718 163.842 452.031 168.783L454.027 168.657ZM449.884 157.32C447.378 154.904 443.552 153.8 438.629 153.8V155.8C443.307 155.8 446.521 156.856 448.495 158.76L449.884 157.32ZM438.629 153.8C434.537 153.8 431.131 154.847 428.509 157.032L429.79 158.568C431.968 156.753 434.882 155.8 438.629 155.8V153.8ZM428.512 157.03C425.912 159.181 424.669 162.295 424.669 166.2H426.669C426.669 162.745 427.747 160.259 429.787 158.57L428.512 157.03ZM424.669 166.2C424.669 167.317 424.798 168.366 425.065 169.343L426.994 168.817C426.781 168.034 426.669 167.163 426.669 166.2H424.669ZM425.072 169.367C425.332 170.235 425.68 171.062 426.115 171.846L427.864 170.874C427.499 170.218 427.207 169.525 426.987 168.793L425.072 169.367ZM426.157 171.915C426.685 172.707 427.303 173.414 428.011 174.033L429.328 172.527C428.755 172.026 428.253 171.453 427.821 170.805L426.157 171.915ZM428.011 174.033C428.7 174.635 429.469 175.19 430.315 175.697L431.344 173.983C430.59 173.53 429.919 173.045 429.328 172.527L428.011 174.033ZM430.382 175.734C431.194 176.14 432.045 176.546 432.936 176.95L433.763 175.13C432.894 174.734 432.065 174.34 431.277 173.946L430.382 175.734ZM432.965 176.963C433.956 177.376 434.986 177.747 436.055 178.076L436.643 176.164C435.633 175.853 434.663 175.504 433.734 175.117L432.965 176.963ZM436.055 178.076C437.095 178.396 438.135 178.716 439.175 179.036L439.763 177.124C438.723 176.804 437.683 176.484 436.643 176.164L436.055 178.076ZM439.26 179.058C440.358 179.293 441.456 179.568 442.555 179.882L443.104 177.958C441.963 177.632 440.821 177.347 439.679 177.102L439.26 179.058ZM442.572 179.886C443.766 180.205 444.921 180.523 446.035 180.842L446.584 178.918C445.458 178.597 444.292 178.275 443.087 177.954L442.572 179.886ZM446.035 180.842C447.133 181.155 448.233 181.509 449.333 181.902L450.006 180.018C448.866 179.611 447.725 179.245 446.584 178.918L446.035 180.842ZM449.353 181.909C450.522 182.298 451.607 182.725 452.61 183.188L453.448 181.372C452.372 180.875 451.217 180.422 449.986 180.011L449.353 181.909ZM452.635 183.199C453.71 183.66 454.747 184.197 455.745 184.812L456.793 183.108C455.712 182.443 454.588 181.86 453.423 181.361L452.635 183.199ZM455.795 184.84C456.781 185.371 457.688 185.976 458.516 186.654L459.783 185.106C458.851 184.344 457.838 183.669 456.743 183.08L455.795 184.84ZM458.549 186.68C459.459 187.362 460.292 188.12 461.049 188.953L462.529 187.607C461.686 186.68 460.759 185.838 459.749 185.08L458.549 186.68ZM461.049 188.953C461.796 189.774 462.474 190.714 463.081 191.776L464.818 190.784C464.144 189.606 463.382 188.546 462.529 187.607L461.049 188.953ZM463.098 191.804C463.685 192.758 464.171 193.874 464.55 195.162L466.469 194.598C466.048 193.166 465.494 191.882 464.801 190.756L463.098 191.804ZM464.573 195.231C465.027 196.441 465.371 197.774 465.602 199.236L467.577 198.924C467.328 197.346 466.952 195.879 466.446 194.529L464.573 195.231ZM465.602 199.236C465.832 200.696 465.949 202.322 465.949 204.12H467.949C467.949 202.238 467.827 200.504 467.577 198.924L465.602 199.236ZM465.949 204.12C465.949 205.82 465.795 207.39 465.491 208.834L467.448 209.246C467.784 207.65 467.949 205.94 467.949 204.12H465.949ZM465.482 208.884C465.253 210.33 464.874 211.695 464.345 212.979L466.194 213.741C466.785 212.305 467.206 210.79 467.457 209.196L465.482 208.884ZM464.345 212.979C463.812 214.273 463.168 215.445 462.416 216.499L464.043 217.661C464.891 216.475 465.607 215.167 466.194 213.741L464.345 212.979ZM462.388 216.539C461.701 217.607 460.898 218.642 459.975 219.642L461.444 220.998C462.441 219.918 463.317 218.793 464.071 217.621L462.388 216.539ZM460.002 219.613C459.082 220.533 458.084 221.378 457.008 222.146L458.171 223.774C459.335 222.942 460.417 222.027 461.416 221.027L460.002 219.613ZM457.02 222.138C456.014 222.834 454.927 223.494 453.759 224.118L454.7 225.882C455.931 225.226 457.085 224.526 458.159 223.782L457.02 222.138ZM453.759 224.118C452.598 224.737 451.398 225.279 450.158 225.744L450.86 227.616C452.181 227.121 453.461 226.543 454.7 225.882L453.759 224.118ZM450.211 225.726C448.949 226.12 447.688 226.475 446.427 226.79L446.912 228.73C448.211 228.405 449.51 228.04 450.808 227.634L450.211 225.726ZM446.485 226.777C445.229 227.013 443.931 227.209 442.593 227.367L442.826 229.353C444.208 229.191 445.55 228.987 446.854 228.743L446.485 226.777ZM442.585 227.368C441.346 227.523 440.108 227.6 438.869 227.6V229.6C440.191 229.6 441.513 229.517 442.833 229.352L442.585 227.368ZM438.869 227.6C437.485 227.6 436.057 227.485 434.585 227.252L434.273 229.228C435.842 229.475 437.374 229.6 438.869 229.6V227.6ZM434.594 227.254C433.189 227.02 431.784 226.707 430.377 226.316L429.842 228.244C431.315 228.653 432.789 228.98 434.265 229.226L434.594 227.254ZM430.426 226.331C429.023 225.864 427.659 225.318 426.335 224.695L425.484 226.505C426.88 227.162 428.316 227.736 429.793 228.229L430.426 226.331ZM426.4 224.728C425.147 224.024 423.893 223.24 422.636 222.376L421.503 224.024C422.806 224.92 424.112 225.736 425.419 226.472L426.4 224.728ZM422.661 222.394C421.504 221.546 420.383 220.579 419.296 219.493L417.882 220.907C419.036 222.061 420.234 223.094 421.478 224.006L422.661 222.394ZM419.345 219.545C418.336 218.381 417.404 217.138 416.549 215.817L414.87 216.903C415.775 218.302 416.763 219.619 417.834 220.855L419.345 219.545ZM416.549 215.817C415.701 214.507 414.969 213.119 414.351 211.652L412.508 212.428C413.17 214.001 413.957 215.493 414.87 216.903L416.549 215.817ZM414.358 211.669C413.744 210.133 413.282 208.518 412.973 206.821L411.006 207.179C411.337 209.002 411.835 210.747 412.501 212.411L414.358 211.669ZM412.975 206.829C412.665 205.051 412.509 203.149 412.509 201.12H410.509C410.509 203.251 410.673 205.269 411.004 207.171L412.975 206.829ZM411.509 202.12H422.669V200.12H411.509V202.12ZM515.977 228.12L516.123 227.131L515.977 228.12ZM509.617 226.8L509.323 227.756L509.34 227.761L509.357 227.766L509.617 226.8ZM503.617 224.52L503.2 225.429L503.2 225.429L503.617 224.52ZM498.097 221.52L497.534 222.346L497.547 222.355L497.56 222.364L498.097 221.52ZM493.057 217.56L492.368 218.285L492.378 218.294L492.388 218.303L493.057 217.56ZM488.617 212.76L487.821 213.366L487.83 213.378L487.84 213.389L488.617 212.76ZM485.017 207.36L484.13 207.821L484.141 207.843L484.153 207.864L485.017 207.36ZM482.377 201.12L481.428 201.436L481.428 201.436L482.377 201.12ZM480.697 194.28L479.71 194.439L479.71 194.444L480.697 194.28ZM482.377 172.2L483.326 172.516L483.329 172.506L482.377 172.2ZM485.017 165.96L484.144 165.471L484.138 165.484L485.017 165.96ZM488.617 160.44L487.84 159.811L487.83 159.822L487.821 159.834L488.617 160.44ZM493.057 155.76L492.388 155.017L492.388 155.017L493.057 155.76ZM498.097 151.8L497.534 150.974L497.534 150.974L498.097 151.8ZM503.617 148.68L504.034 149.589L504.034 149.589L503.617 148.68ZM509.617 146.52L509.877 147.486L509.894 147.481L509.911 147.476L509.617 146.52ZM535.297 146.52L535.003 147.476L535.02 147.481L535.037 147.486L535.297 146.52ZM541.297 148.68L540.88 149.589L540.88 149.589L541.297 148.68ZM546.817 151.8L547.38 150.974L547.38 150.974L546.817 151.8ZM551.857 155.76L552.526 155.017L552.526 155.017L551.857 155.76ZM556.177 160.44L555.381 161.046L555.39 161.058L555.4 161.069L556.177 160.44ZM559.777 165.96L558.89 166.421L558.901 166.443L558.913 166.464L559.777 165.96ZM562.537 172.2L561.585 172.506L561.588 172.516L562.537 172.2ZM564.217 194.28L565.203 194.444L565.204 194.439L564.217 194.28ZM562.537 201.12L563.486 201.436L563.486 201.436L562.537 201.12ZM559.777 207.36L558.904 206.871L558.898 206.884L559.777 207.36ZM556.177 212.76L555.4 212.131L555.39 212.142L555.381 212.154L556.177 212.76ZM551.857 217.56L552.526 218.303L552.536 218.294L552.546 218.285L551.857 217.56ZM546.817 221.52L547.354 222.364L547.367 222.355L547.38 222.346L546.817 221.52ZM541.297 224.52L541.714 225.429L541.714 225.429L541.297 224.52ZM535.297 226.8L535.557 227.766L535.574 227.761L535.591 227.756L535.297 226.8ZM528.937 228.12L528.79 227.131L528.937 228.12ZM515.377 155.52L515.553 156.504L515.57 156.501L515.586 156.498L515.377 155.52ZM509.137 157.32L508.752 156.397L508.752 156.397L509.137 157.32ZM503.857 160.2L504.43 161.019L504.43 161.019L503.857 160.2ZM499.537 164.04L498.789 163.376L498.789 163.376L499.537 164.04ZM496.177 168.72L497.045 169.216L497.045 169.216L496.177 168.72ZM493.657 174.12L492.721 173.769L492.716 173.78L492.712 173.791L493.657 174.12ZM492.217 180L491.229 179.848L491.229 179.848L492.217 180ZM492.097 192L491.105 192.129L491.105 192.129L492.097 192ZM493.177 197.4L492.212 197.663L492.219 197.69L492.228 197.716L493.177 197.4ZM495.217 202.32L496.111 201.873L496.111 201.873L495.217 202.32ZM497.857 206.88L497.025 207.435L497.043 207.462L497.063 207.487L497.857 206.88ZM505.537 213.96L505.003 214.805L505.019 214.816L505.036 214.825L505.537 213.96ZM510.457 216.36L510.078 217.286L510.097 217.293L510.115 217.3L510.457 216.36ZM516.097 217.92L515.901 218.901L515.92 218.904L515.939 218.907L516.097 217.92ZM528.817 217.92L528.975 218.907L528.994 218.904L529.013 218.901L528.817 217.92ZM534.457 216.36L534.799 217.3L534.817 217.293L534.836 217.286L534.457 216.36ZM539.377 213.96L539.878 214.825L539.895 214.816L539.911 214.805L539.377 213.96ZM543.577 210.72L542.893 209.99L542.893 209.99L543.577 210.72ZM546.937 206.88L546.126 206.294L546.12 206.303L546.937 206.88ZM549.697 202.32L548.802 201.873L548.802 201.873L549.697 202.32ZM551.617 197.4L550.664 197.097L550.659 197.111L550.655 197.125L551.617 197.4ZM552.697 180L551.709 180.152L551.709 180.152L552.697 180ZM551.137 174.12L550.188 174.436L550.196 174.461L550.206 174.484L551.137 174.12ZM548.737 168.72L549.605 168.224L549.605 168.224L548.737 168.72ZM545.377 164.04L546.124 163.376L546.124 163.376L545.377 164.04ZM541.057 160.2L540.483 161.019L540.483 161.019L541.057 160.2ZM535.777 157.32L535.392 158.243L535.777 157.32ZM529.537 155.52L529.327 156.498L529.344 156.501L529.361 156.504L529.537 155.52ZM522.457 227.6C520.346 227.6 518.235 227.444 516.123 227.131L515.83 229.109C518.038 229.436 520.247 229.6 522.457 229.6V227.6ZM516.123 227.131C514.001 226.816 511.919 226.384 509.877 225.834L509.357 227.766C511.475 228.336 513.633 228.784 515.83 229.109L516.123 227.131ZM509.911 225.844C507.872 225.217 505.913 224.472 504.034 223.611L503.2 225.429C505.161 226.328 507.202 227.103 509.323 227.756L509.911 225.844ZM504.034 223.611C502.155 222.75 500.355 221.772 498.634 220.676L497.56 222.364C499.359 223.508 501.239 224.53 503.2 225.429L504.034 223.611ZM498.66 220.694C496.938 219.519 495.293 218.227 493.726 216.817L492.388 218.303C494.021 219.773 495.736 221.121 497.534 222.346L498.66 220.694ZM493.746 216.835C492.177 215.344 490.726 213.776 489.394 212.131L487.84 213.389C489.228 215.104 490.737 216.736 492.368 218.285L493.746 216.835ZM489.412 212.154C488.158 210.508 486.981 208.743 485.881 206.856L484.153 207.864C485.293 209.817 486.515 211.652 487.821 213.366L489.412 212.154ZM485.904 206.899C484.889 204.946 484.029 202.914 483.326 200.804L481.428 201.436C482.165 203.646 483.065 205.774 484.13 207.821L485.904 206.899ZM483.326 200.804C482.623 198.697 482.075 196.468 481.683 194.116L479.71 194.444C480.118 196.892 480.691 199.223 481.428 201.436L483.326 200.804ZM481.684 194.121C481.293 191.696 481.097 189.189 481.097 186.6H479.097C479.097 189.291 479.301 191.904 479.71 194.439L481.684 194.121ZM481.097 186.6C481.097 184.01 481.293 181.546 481.683 179.204L479.71 178.876C479.301 181.334 479.097 183.91 479.097 186.6H481.097ZM481.683 179.204C482.075 176.852 482.623 174.623 483.326 172.516L481.428 171.884C480.691 174.097 480.118 176.428 479.71 178.876L481.683 179.204ZM483.329 172.506C484.031 170.32 484.888 168.298 485.896 166.436L484.138 165.484C483.066 167.462 482.162 169.6 481.425 171.894L483.329 172.506ZM485.889 166.449C486.988 164.486 488.163 162.686 489.412 161.046L487.821 159.834C486.511 161.554 485.285 163.434 484.144 165.471L485.889 166.449ZM489.394 161.069C490.721 159.43 492.165 157.908 493.726 156.503L492.388 155.017C490.749 156.492 489.233 158.09 487.84 159.811L489.394 161.069ZM493.726 156.503C495.293 155.093 496.938 153.801 498.66 152.626L497.534 150.974C495.736 152.199 494.021 153.547 492.388 155.017L493.726 156.503ZM498.66 152.626C500.374 151.458 502.165 150.445 504.034 149.589L503.2 147.771C501.229 148.675 499.34 149.742 497.534 150.974L498.66 152.626ZM504.034 149.589C505.902 148.733 507.849 148.031 509.877 147.486L509.357 145.554C507.224 146.129 505.172 146.867 503.2 147.771L504.034 149.589ZM509.911 147.476C511.943 146.851 514.013 146.382 516.123 146.069L515.83 144.091C513.621 144.418 511.451 144.909 509.323 145.564L509.911 147.476ZM516.123 146.069C518.235 145.756 520.346 145.6 522.457 145.6V143.6C520.247 143.6 518.038 143.764 515.83 144.091L516.123 146.069ZM522.457 145.6C524.567 145.6 526.678 145.756 528.79 146.069L529.083 144.091C526.875 143.764 524.666 143.6 522.457 143.6V145.6ZM528.79 146.069C530.901 146.382 532.971 146.851 535.003 147.476L535.591 145.564C533.463 144.909 531.293 144.418 529.083 144.091L528.79 146.069ZM535.037 147.486C537.064 148.031 539.012 148.733 540.88 149.589L541.714 147.771C539.742 146.867 537.689 146.129 535.557 145.554L535.037 147.486ZM540.88 149.589C542.749 150.445 544.54 151.458 546.254 152.626L547.38 150.974C545.574 149.742 543.685 148.675 541.714 147.771L540.88 149.589ZM546.254 152.626C547.976 153.801 549.621 155.093 551.188 156.503L552.526 155.017C550.893 153.547 549.178 152.199 547.38 150.974L546.254 152.626ZM551.188 156.503C552.742 157.902 554.14 159.417 555.381 161.046L556.972 159.834C555.654 158.103 554.171 156.498 552.526 155.017L551.188 156.503ZM555.4 161.069C556.716 162.695 557.879 164.478 558.89 166.421L560.664 165.499C559.594 163.442 558.358 161.545 556.954 159.811L555.4 161.069ZM558.913 166.464C559.995 168.318 560.886 170.331 561.585 172.506L563.489 171.894C562.748 169.589 561.799 167.442 560.641 165.456L558.913 166.464ZM561.588 172.516C562.291 174.623 562.838 176.852 563.23 179.204L565.203 178.876C564.795 176.428 564.223 174.097 563.486 171.884L561.588 172.516ZM563.23 179.204C563.621 181.546 563.817 184.01 563.817 186.6H565.817C565.817 183.91 565.613 181.334 565.203 178.876L563.23 179.204ZM563.817 186.6C563.817 189.189 563.621 191.696 563.23 194.121L565.204 194.439C565.613 191.904 565.817 189.291 565.817 186.6H563.817ZM563.23 194.116C562.838 196.468 562.291 198.697 561.588 200.804L563.486 201.436C564.223 199.223 564.795 196.892 565.203 194.444L563.23 194.116ZM561.588 200.804C560.888 202.904 559.994 204.926 558.904 206.871L560.649 207.849C561.8 205.794 562.746 203.656 563.486 201.436L561.588 200.804ZM558.898 206.884C557.887 208.75 556.721 210.499 555.4 212.131L556.954 213.389C558.353 211.661 559.587 209.81 560.656 207.836L558.898 206.884ZM555.381 212.154C554.135 213.79 552.731 215.35 551.168 216.835L552.546 218.285C554.183 216.73 555.659 215.09 556.972 213.366L555.381 212.154ZM551.188 216.817C549.621 218.227 547.976 219.519 546.254 220.694L547.38 222.346C549.178 221.121 550.893 219.773 552.526 218.303L551.188 216.817ZM546.28 220.676C544.559 221.772 542.759 222.75 540.88 223.611L541.714 225.429C543.675 224.53 545.555 223.508 547.354 222.364L546.28 220.676ZM540.88 223.611C539.001 224.472 537.042 225.217 535.003 225.844L535.591 227.756C537.712 227.103 539.753 226.328 541.714 225.429L540.88 223.611ZM535.037 225.834C532.995 226.384 530.913 226.816 528.79 227.131L529.083 229.109C531.281 228.784 533.439 228.336 535.557 227.766L535.037 225.834ZM528.79 227.131C526.678 227.444 524.567 227.6 522.457 227.6V229.6C524.666 229.6 526.875 229.436 529.083 229.109L528.79 227.131ZM522.457 153.8C519.912 153.8 517.482 154.046 515.167 154.542L515.586 156.498C517.752 156.034 520.042 155.8 522.457 155.8V153.8ZM515.201 154.536C512.896 154.947 510.745 155.566 508.752 156.397L509.521 158.243C511.368 157.474 513.378 156.893 515.553 156.504L515.201 154.536ZM508.752 156.397C506.77 157.223 504.946 158.217 503.283 159.381L504.43 161.019C505.968 159.943 507.664 159.017 509.521 158.243L508.752 156.397ZM503.283 159.381C501.62 160.545 500.122 161.877 498.789 163.376L500.284 164.704C501.512 163.323 502.893 162.095 504.43 161.019L503.283 159.381ZM498.789 163.376C497.463 164.868 496.303 166.484 495.309 168.224L497.045 169.216C497.971 167.596 499.05 166.092 500.284 164.704L498.789 163.376ZM495.309 168.224C494.321 169.953 493.458 171.802 492.721 173.769L494.593 174.471C495.296 172.598 496.113 170.847 497.045 169.216L495.309 168.224ZM492.712 173.791C492.051 175.693 491.557 177.713 491.229 179.848L493.205 180.152C493.517 178.127 493.983 176.227 494.601 174.449L492.712 173.791ZM491.229 179.848C490.901 181.98 490.737 184.15 490.737 186.36H492.737C492.737 184.25 492.893 182.18 493.205 180.152L491.229 179.848ZM490.737 186.36C490.737 188.322 490.859 190.245 491.105 192.129L493.088 191.871C492.854 190.075 492.737 188.238 492.737 186.36H490.737ZM491.105 192.129C491.351 194.014 491.72 195.858 492.212 197.663L494.142 197.137C493.674 195.422 493.323 193.666 493.088 191.871L491.105 192.129ZM492.228 197.716C492.803 199.442 493.502 201.125 494.322 202.767L496.111 201.873C495.332 200.315 494.67 198.718 494.126 197.084L492.228 197.716ZM494.322 202.767C495.14 204.403 496.041 205.959 497.025 207.435L498.689 206.325C497.753 204.921 496.893 203.437 496.111 201.873L494.322 202.767ZM497.063 207.487C498.137 208.892 499.334 210.213 500.653 211.45L502.021 209.99C500.78 208.827 499.657 207.588 498.651 206.273L497.063 207.487ZM500.653 211.45C501.98 212.694 503.431 213.813 505.003 214.805L506.071 213.115C504.603 212.187 503.253 211.146 502.021 209.99L500.653 211.45ZM505.036 214.825C506.598 215.73 508.28 216.55 510.078 217.286L510.836 215.434C509.114 214.73 507.515 213.95 506.038 213.095L505.036 214.825ZM510.115 217.3C511.927 217.958 513.856 218.492 515.901 218.901L516.293 216.939C514.338 216.548 512.507 216.042 510.799 215.42L510.115 217.3ZM515.939 218.907C517.996 219.237 520.169 219.4 522.457 219.4V217.4C520.264 217.4 518.197 217.243 516.255 216.933L515.939 218.907ZM522.457 219.4C524.744 219.4 526.917 219.237 528.975 218.907L528.659 216.933C526.716 217.243 524.649 217.4 522.457 217.4V219.4ZM529.013 218.901C531.058 218.492 532.987 217.958 534.799 217.3L534.115 215.42C532.407 216.042 530.576 216.548 528.621 216.939L529.013 218.901ZM534.836 217.286C536.634 216.55 538.315 215.73 539.878 214.825L538.876 213.095C537.398 213.95 535.8 214.73 534.078 215.434L534.836 217.286ZM539.911 214.805C541.483 213.813 542.933 212.694 544.261 211.45L542.893 209.99C541.66 211.146 540.311 212.187 538.843 213.115L539.911 214.805ZM544.261 211.45C545.588 210.206 546.753 208.875 547.754 207.457L546.12 206.303C545.201 207.605 544.126 208.834 542.893 209.99L544.261 211.45ZM547.748 207.465C548.819 205.981 549.767 204.415 550.591 202.767L548.802 201.873C548.026 203.425 547.134 204.899 546.126 206.295L547.748 207.465ZM550.591 202.767C551.418 201.113 552.081 199.416 552.578 197.675L550.655 197.125C550.193 198.744 549.575 200.327 548.802 201.873L550.591 202.767ZM552.57 197.703C553.148 195.886 553.561 194.028 553.808 192.129L551.825 191.871C551.593 193.652 551.206 195.394 550.664 197.097L552.57 197.703ZM553.808 192.129C554.054 190.245 554.177 188.322 554.177 186.36H552.177C552.177 188.238 552.059 190.075 551.825 191.871L553.808 192.129ZM554.177 186.36C554.177 184.15 554.013 181.98 553.685 179.848L551.709 180.152C552.021 182.18 552.177 184.25 552.177 186.36H554.177ZM553.685 179.848C553.355 177.7 552.817 175.668 552.068 173.756L550.206 174.484C550.897 176.252 551.399 178.14 551.709 180.152L553.685 179.848ZM552.086 173.804C551.426 171.824 550.599 169.964 549.605 168.224L547.869 169.216C548.795 170.836 549.568 172.576 550.188 174.436L552.086 173.804ZM549.605 168.224C548.611 166.484 547.45 164.868 546.124 163.376L544.629 164.704C545.863 166.092 546.943 167.596 547.869 169.216L549.605 168.224ZM546.124 163.376C544.792 161.877 543.293 160.545 541.63 159.381L540.483 161.019C542.02 162.095 543.402 163.323 544.629 164.704L546.124 163.376ZM541.63 159.381C539.968 158.217 538.144 157.223 536.161 156.397L535.392 158.243C537.25 159.017 538.946 159.943 540.483 161.019L541.63 159.381ZM536.161 156.397C534.168 155.566 532.018 154.947 529.713 154.536L529.361 156.504C531.536 156.893 533.545 157.474 535.392 158.243L536.161 156.397ZM529.746 154.542C527.432 154.046 525.002 153.8 522.457 153.8V155.8C524.872 155.8 527.162 156.034 529.327 156.498L529.746 154.542ZM649.193 229.2L648.485 229.906L650.193 231.618V229.2H649.193ZM590.873 170.76L591.581 170.054L589.873 168.342V170.76H590.873ZM590.873 228V229H591.873V228H590.873ZM579.833 228H578.833V229H579.833V228ZM579.833 144L580.545 143.298L578.833 141.561V144H579.833ZM638.153 203.16L637.441 203.862L639.153 205.599V203.16H638.153ZM638.153 145.2V144.2H637.153V145.2H638.153ZM649.193 145.2H650.193V144.2H649.193V145.2ZM649.901 228.494L591.581 170.054L590.165 171.466L648.485 229.906L649.901 228.494ZM589.873 170.76V228H591.873V170.76H589.873ZM590.873 227H579.833V229H590.873V227ZM580.833 228V144H578.833V228H580.833ZM579.121 144.702L637.441 203.862L638.865 202.458L580.545 143.298L579.121 144.702ZM639.153 203.16V145.2H637.153V203.16H639.153ZM638.153 146.2H649.193V144.2H638.153V146.2ZM648.193 145.2V229.2H650.193V145.2H648.193Z" fill="black" mask="url(#path-1-outside-1_1019_4716)"/>
</svg>
