<svg width="35" height="35" viewBox="0 0 35 35" fill="none" xmlns="http://www.w3.org/2000/svg">
<path d="M17.2982 0.861328C26.5768 0.861328 34.0982 8.38234 34.0982 17.6606C34.0982 26.9388 26.5768 34.4598 17.2982 34.4598C14.6168 34.4635 11.9739 33.8228 9.59195 32.5917L3.16424 34.3842C2.80562 34.4843 2.42685 34.4872 2.06673 34.3927C1.7066 34.2982 1.37808 34.1097 1.11481 33.8464C0.851541 33.5832 0.662998 33.2547 0.568499 32.8945C0.473999 32.5344 0.476941 32.1557 0.577021 31.7971L2.37127 25.3748C1.13706 22.9908 0.494571 20.345 0.498061 17.6606C0.498061 8.38234 8.01946 0.861328 17.2982 0.861328ZM17.2982 3.38121C13.5108 3.38121 9.87865 4.88564 7.20061 7.56353C4.52258 10.2414 3.01808 13.8734 3.01808 17.6606C3.01808 20.13 3.64472 22.5038 4.82072 24.6104L5.07273 25.064L3.20456 31.7568L9.90275 29.8887L10.3564 30.1407C12.2621 31.2002 14.3852 31.8092 16.5629 31.9211C18.7405 32.0329 20.9149 31.6446 22.9192 30.7859C24.9235 29.9273 26.7045 28.621 28.1257 26.9673C29.5469 25.3137 30.5705 23.3565 31.118 21.246C31.6655 19.1354 31.7224 16.9275 31.2843 14.7916C30.8462 12.6556 29.9247 10.6484 28.5906 8.92372C27.2564 7.19908 25.545 5.80285 23.5876 4.84211C21.6301 3.88137 19.4787 3.38163 17.2982 3.38121ZM11.8381 19.3405H19.3948C19.714 19.3406 20.0214 19.4618 20.2546 19.6798C20.4879 19.8977 20.6297 20.1961 20.6515 20.5145C20.6733 20.833 20.5733 21.1479 20.3718 21.3955C20.1704 21.6432 19.8824 21.8051 19.5662 21.8486L19.3948 21.8604H11.8381C11.5189 21.8603 11.2116 21.739 10.9783 21.5211C10.745 21.3031 10.6032 21.0048 10.5814 20.6863C10.5597 20.3678 10.6596 20.0529 10.8611 19.8053C11.0625 19.5577 11.3505 19.3957 11.6668 19.3522L11.8381 19.3405ZM11.8381 13.4607H22.7666C23.0857 13.4613 23.3927 13.5828 23.6256 13.8009C23.8586 14.019 24.0001 14.3173 24.0217 14.6356C24.0432 14.954 23.9431 15.2687 23.7417 15.5161C23.5402 15.7636 23.2524 15.9254 22.9363 15.9689L22.7666 15.9806H11.8381C11.5189 15.9805 11.2116 15.8593 10.9783 15.6413C10.745 15.4234 10.6032 15.125 10.5814 14.8066C10.5597 14.4881 10.6596 14.1732 10.8611 13.9256C11.0625 13.6779 11.3505 13.516 11.6668 13.4725L11.8381 13.4607Z" fill="white"/>
</svg>
