<svg width="18" height="15" viewBox="0 0 18 15" fill="none" xmlns="http://www.w3.org/2000/svg">
<path d="M9.97537 0.37481C10.2154 0.134819 10.5409 0 10.8804 0C11.2198 0 11.5453 0.134819 11.7853 0.37481L17.5455 6.13548C17.7855 6.37554 17.9203 6.70109 17.9203 7.04054C17.9203 7.37999 17.7855 7.70554 17.5455 7.94561L11.7853 13.7063C11.5439 13.9395 11.2206 14.0685 10.885 14.0656C10.5493 14.0627 10.2283 13.928 9.99096 13.6907C9.75363 13.4533 9.61901 13.1323 9.61609 12.7966C9.61318 12.4609 9.7422 12.1376 9.97537 11.8961L13.4404 8.32069H1.28004C0.940554 8.32069 0.61497 8.18582 0.374916 7.94574C0.134861 7.70567 0 7.38006 0 7.04054C0 6.70102 0.134861 6.37541 0.374916 6.13534C0.61497 5.89527 0.940554 5.76039 1.28004 5.76039H13.4404L9.97537 2.18494C9.7354 1.94488 9.60059 1.61932 9.60059 1.27987C9.60059 0.940425 9.7354 0.614873 9.97537 0.37481Z" fill="black"/>
</svg>
