<svg width="37" height="37" viewBox="0 0 37 37" fill="none" xmlns="http://www.w3.org/2000/svg">
<path d="M19.9203 23.7749L12.2402 25.1574L13.5202 17.3749L28.1892 2.75725C28.4272 2.5173 28.7103 2.32685 29.0223 2.19688C29.3343 2.06691 29.6689 2 30.0068 2C30.3448 2 30.6794 2.06691 30.9914 2.19688C31.3033 2.32685 31.5865 2.5173 31.8244 2.75725L34.5381 5.47086C34.778 5.70885 34.9685 5.99199 35.0984 6.30395C35.2284 6.61591 35.2953 6.95052 35.2953 7.28847C35.2953 7.62642 35.2284 7.96103 35.0984 8.27299C34.9685 8.58495 34.778 8.86809 34.5381 9.10608L19.9203 23.7749Z" stroke="white" stroke-width="2.40001" stroke-linecap="round" stroke-linejoin="round"/>
<path d="M31.4403 25.0556V32.7356C31.4403 33.4145 31.1706 34.0657 30.6905 34.5458C30.2104 35.0259 29.5593 35.2956 28.8803 35.2956H4.56003C3.88107 35.2956 3.22991 35.0259 2.74981 34.5458C2.26972 34.0657 2 33.4145 2 32.7356V8.41548C2 7.73652 2.26972 7.08537 2.74981 6.60528C3.22991 6.12518 3.88107 5.85547 4.56003 5.85547H12.2401" stroke="white" stroke-width="2.40001" stroke-linecap="round" stroke-linejoin="round"/>
</svg>
