<svg width="37" height="37" viewBox="0 0 37 37" fill="none" xmlns="http://www.w3.org/2000/svg">
<path d="M36.5204 19.0994L19.8723 0.58595C19.1712 -0.195317 17.8246 -0.195317 17.1235 0.58595L0.475367 19.0994C0.235738 19.3652 0.0784469 19.695 0.0226194 20.0487C-0.0332081 20.4023 0.014833 20.7646 0.160902 21.0914C0.456869 21.7598 1.11909 22.1893 1.84976 22.1893H5.54935V35.1487C5.54935 35.6397 5.74424 36.1106 6.09114 36.4578C6.43805 36.805 6.90855 37 7.39914 37H12.9485C13.4391 37 13.9096 36.805 14.2565 36.4578C14.6034 36.1106 14.7983 35.6397 14.7983 35.1487V27.7433H22.1975V35.1487C22.1975 35.6397 22.3924 36.1106 22.7393 36.4578C23.0862 36.805 23.5567 37 24.0473 37H29.5967C30.0873 37 30.5578 36.805 30.9047 36.4578C31.2516 36.1106 31.4465 35.6397 31.4465 35.1487V22.1893H35.146C35.5043 22.1908 35.8552 22.088 36.1561 21.8933C36.457 21.6987 36.6947 21.4206 36.8404 21.0931C36.9861 20.7655 37.0335 20.4026 36.9766 20.0486C36.9198 19.6946 36.7613 19.3648 36.5204 19.0994Z" fill="black"/>
</svg>
