<svg width="34" height="34" viewBox="0 0 34 34" fill="none" xmlns="http://www.w3.org/2000/svg">
<path d="M2.61379 2.99787C2.61379 2.88665 2.65798 2.77999 2.73662 2.70135C2.81527 2.62271 2.92193 2.57853 3.03315 2.57853H25.6784C25.7896 2.57853 25.8963 2.62271 25.9749 2.70135C26.0536 2.77999 26.0978 2.88665 26.0978 2.99787V19.7714C26.0978 20.105 26.2303 20.425 26.4662 20.6609C26.7022 20.8969 27.0222 21.0294 27.3558 21.0294C27.6895 21.0294 28.0095 20.8969 28.2454 20.6609C28.4813 20.425 28.6139 20.105 28.6139 19.7714V2.99787C28.6139 2.21936 28.3046 1.47274 27.7541 0.922249C27.2036 0.371761 26.4569 0.0625 25.6784 0.0625H3.03315C2.25461 0.0625 1.50795 0.371761 0.957443 0.922249C0.406931 1.47274 0.0976563 2.21936 0.0976562 2.99787V30.6742C0.0976562 32.2945 1.41276 33.6096 3.03315 33.6096H14.7751C15.1088 33.6096 15.4288 33.477 15.6647 33.2411C15.9007 33.0052 16.0332 32.6852 16.0332 32.3515C16.0332 32.0179 15.9007 31.6979 15.6647 31.462C15.4288 31.2261 15.1088 31.0935 14.7751 31.0935H3.03315C2.92193 31.0935 2.81527 31.0493 2.73662 30.9707C2.65798 30.8921 2.61379 30.7854 2.61379 30.6742V2.99787Z" fill="white"/>
<path d="M7.22682 8.44922C6.89316 8.44922 6.57316 8.58176 6.33723 8.81768C6.1013 9.05361 5.96875 9.37359 5.96875 9.70723C5.96875 10.0409 6.1013 10.3609 6.33723 10.5968C6.57316 10.8327 6.89316 10.9652 7.22682 10.9652H21.4849C21.8186 10.9652 22.1386 10.8327 22.3745 10.5968C22.6105 10.3609 22.743 10.0409 22.743 9.70723C22.743 9.37359 22.6105 9.05361 22.3745 8.81768C22.1386 8.58176 21.8186 8.44922 21.4849 8.44922H7.22682ZM5.96875 16.4166C5.96875 16.083 6.1013 15.763 6.33723 15.5271C6.57316 15.2912 6.89316 15.1586 7.22682 15.1586H14.7752C15.1089 15.1586 15.4289 15.2912 15.6648 15.5271C15.9008 15.763 16.0333 16.083 16.0333 16.4166C16.0333 16.7503 15.9008 17.0703 15.6648 17.3062C15.4289 17.5421 15.1089 17.6747 14.7752 17.6747H7.22682C6.89316 17.6747 6.57316 17.5421 6.33723 17.3062C6.1013 17.0703 5.96875 16.7503 5.96875 16.4166ZM33.2772 24.0151C33.4008 23.8999 33.5 23.761 33.5687 23.6067C33.6375 23.4524 33.6745 23.2858 33.6775 23.1169C33.6804 22.948 33.6494 22.7802 33.5861 22.6235C33.5228 22.4669 33.4286 22.3246 33.3092 22.2051C33.1897 22.0857 33.0474 21.9915 32.8908 21.9282C32.7341 21.8649 32.5663 21.8339 32.3974 21.8369C32.2285 21.8398 32.0619 21.8768 31.9076 21.9456C31.7532 22.0143 31.6143 22.1135 31.4992 22.2371L23.1624 30.5735L19.8578 27.2691C19.7427 27.1455 19.6038 27.0464 19.4494 26.9776C19.2951 26.9089 19.1285 26.8719 18.9596 26.8689C18.7907 26.8659 18.6229 26.897 18.4662 26.9603C18.3096 27.0236 18.1673 27.1177 18.0478 27.2372C17.9284 27.3566 17.8342 27.4989 17.7709 27.6556C17.7076 27.8122 17.6766 27.98 17.6795 28.1489C17.6825 28.3178 17.7195 28.4844 17.7883 28.6387C17.857 28.7931 17.9562 28.9319 18.0798 29.0471L22.2733 33.2405C22.5092 33.4761 22.829 33.6084 23.1624 33.6084C23.4958 33.6084 23.8155 33.4761 24.0514 33.2405L33.2772 24.0151Z" fill="white"/>
</svg>
