<svg width="1587" height="838" viewBox="0 0 1587 838" fill="none" xmlns="http://www.w3.org/2000/svg">
<g clip-path="url(#clip0_855_3368)">
<path fill-rule="evenodd" clip-rule="evenodd" d="M1029.97 17.77C1024.74 19.8028 1018.88 19.8982 1013.52 18.0378C1008.17 16.1774 1003.69 12.4937 1000.97 7.70075C998.248 2.90785 997.472 -2.65281 998.793 -7.90323C1000.11 -13.1537 1003.44 -17.7198 1008.12 -20.7165C1012.8 -23.7132 1018.5 -24.927 1024.13 -24.1225C1029.75 -23.3181 1034.89 -20.5527 1038.55 -16.3625C1042.22 -12.1723 1044.14 -6.85573 1043.95 -1.44352C1043.76 3.9687 1041.47 9.09103 1037.53 12.9305L1041.87 19.4205C1042.22 19.9475 1042.45 20.5384 1042.55 21.154C1042.64 21.7696 1042.6 22.3957 1042.42 22.9906C1042.24 23.5856 1041.94 24.1356 1041.52 24.6042C1041.1 25.0728 1040.58 25.4491 1039.99 25.7082L1039.94 25.7277C1038.86 26.202 1037.63 26.2562 1036.51 25.8786C1035.38 25.5011 1034.44 24.7215 1033.9 23.7049C1033.77 23.4722 1033.63 23.2452 1033.48 23.0246L1029.97 17.77ZM1013.62 -13.6266C1016.59 -15.4155 1020.18 -16.0322 1023.65 -15.3484C1027.12 -14.6646 1030.21 -12.733 1032.26 -9.95532C1034.31 -7.17763 1035.17 -3.76771 1034.67 -0.434796C1034.16 2.89811 1032.33 5.89744 1029.54 7.93933C1029.06 8.14726 1028.62 8.43434 1028.24 8.78781C1025.15 10.595 1021.43 11.1475 1017.87 10.3236C1014.32 9.49971 1011.24 7.36702 1009.3 4.39468C1007.36 1.42235 1006.73 -2.14616 1007.54 -5.52581C1008.35 -8.90546 1010.53 -11.8194 1013.62 -13.6266ZM1060.78 27.5446C1055.57 26.5722 1050.21 26.8853 1045.21 28.4541C1040.21 30.0229 1035.73 32.7951 1032.2 36.5064C1030.57 38.2201 1029.14 40.1367 1027.95 42.2368C1027.24 43.4813 1026.21 44.5258 1024.95 45.2686C1023.69 46.0113 1022.25 46.4271 1020.76 46.4755L1014 46.6923C1012.66 41.4074 1009.33 36.7549 1004.64 33.6368C999.948 30.5187 994.239 29.1571 988.617 29.816C982.996 30.475 977.862 33.1074 974.211 37.2031C970.559 41.2988 968.651 46.5659 968.856 51.9833C969.061 57.4007 971.365 62.5825 975.32 66.5241C979.275 70.4657 984.601 72.8863 990.264 73.3166C995.927 73.7469 1001.52 72.1563 1005.97 68.8532C1010.42 65.55 1013.4 60.7696 1014.33 55.4387L1110.99 52.3222C1111.9 52.293 1112.77 52.0082 1113.5 51.5038C1114.22 50.9993 1114.78 50.2979 1115.08 49.4882C1115.39 48.6785 1115.43 47.7969 1115.21 46.955C1114.99 46.113 1114.52 45.3485 1113.85 44.7581L1110.09 41.4498C1105.64 37.5327 1100.15 34.8715 1094.24 33.7698L1060.78 27.5446ZM991.077 38.4105C989.267 38.4575 987.49 38.846 985.849 39.5536C984.207 40.2613 982.733 41.2742 981.511 42.534C980.29 43.7938 979.345 45.2756 978.731 46.8941C978.117 48.5126 977.847 50.2358 977.935 51.9646C978.023 53.6934 978.468 55.3935 979.245 56.9671C980.022 58.5408 981.114 59.9568 982.46 61.1337C983.806 62.3106 985.378 63.2252 987.087 63.8248C988.795 64.4243 990.606 64.697 992.414 64.6271C996.036 64.4873 999.432 62.9842 1001.86 60.446C1004.29 57.9078 1005.55 54.5405 1005.37 51.079C1005.2 47.6174 1003.6 44.3426 1000.92 41.9692C998.239 39.5959 994.701 38.3166 991.077 38.4105ZM1040.96 46.8817C1042.04 47.4273 1043.29 47.544 1044.45 47.2063C1045.61 46.8686 1046.57 46.104 1047.12 45.0808C1047.68 44.0576 1047.78 42.8597 1047.41 41.7504C1047.04 40.6411 1046.22 39.7115 1045.14 39.1659C1044.06 38.6204 1042.81 38.5036 1041.65 38.8414C1040.5 39.1791 1039.53 39.9437 1038.98 40.9669C1038.42 41.99 1038.32 43.188 1038.69 44.2973C1039.06 45.4065 1039.88 46.3362 1040.96 46.8817Z" fill="#073D3D" fill-opacity="0.4"/>
<path d="M1065.07 58.1787C1065.87 58.1528 1066.67 58.3293 1067.39 58.6903C1068.1 59.0514 1068.71 59.5844 1069.14 60.2357L1089.87 91.254C1090.36 91.9882 1090.61 92.8416 1090.6 93.7061C1090.58 94.5705 1090.3 95.4073 1089.78 96.1105C1089.27 96.8137 1088.54 97.3517 1087.7 97.6564C1086.85 97.9612 1085.93 98.019 1085.05 97.8225L1080.09 96.7289C1074.22 95.4315 1068.83 92.5904 1064.52 88.5294L1040.97 66.3169C1040.33 65.7141 1039.89 64.9484 1039.69 64.1141C1039.5 63.2798 1039.57 62.4131 1039.88 61.6206C1040.2 60.8282 1040.75 60.1445 1041.47 59.6535C1042.19 59.1626 1043.05 58.8859 1043.94 58.8574L1065.07 58.1787Z" fill="#073D3D" fill-opacity="0.4"/>
</g>
<g clip-path="url(#clip1_855_3368)">
<path fill-rule="evenodd" clip-rule="evenodd" d="M1076.03 713.819C1077.03 718.459 1076.18 723.259 1073.67 727.289C1071.16 731.319 1067.15 734.292 1062.43 735.631C1057.71 736.971 1052.61 736.581 1048.12 734.539C1043.63 732.496 1040.07 728.945 1038.13 724.575C1036.19 720.205 1036.01 715.327 1037.62 710.886C1039.23 706.446 1042.52 702.759 1046.85 700.54C1051.18 698.322 1056.24 697.73 1061.05 698.879C1065.87 700.029 1070.09 702.838 1072.9 706.762L1079.4 704.417C1079.92 704.226 1080.49 704.145 1081.05 704.18C1081.62 704.215 1082.17 704.365 1082.68 704.619C1083.18 704.873 1083.63 705.226 1083.98 705.655C1084.33 706.083 1084.59 706.577 1084.73 707.104L1084.73 707.15C1084.99 708.113 1084.84 709.127 1084.33 709.978C1083.81 710.829 1082.96 711.449 1081.97 711.708C1081.74 711.768 1081.51 711.839 1081.29 711.919L1076.03 713.819ZM1045.35 721.39C1044.22 718.638 1044.23 715.592 1045.4 712.885C1046.56 710.178 1048.77 708.018 1051.58 706.855C1054.4 705.692 1057.58 705.616 1060.49 706.641C1063.39 707.666 1065.78 709.715 1067.17 712.36C1067.28 712.794 1067.47 713.207 1067.72 713.581C1068.85 716.43 1068.76 719.573 1067.46 722.32C1066.16 725.067 1063.76 727.192 1060.79 728.227C1057.82 729.263 1054.53 729.124 1051.63 727.842C1048.74 726.56 1046.48 724.239 1045.35 721.39ZM1089.66 690.48C1087.97 694.548 1087.4 698.979 1088.01 703.349C1088.62 707.719 1090.39 711.884 1093.16 715.446C1094.43 717.09 1095.92 718.613 1097.61 719.968C1098.61 720.772 1099.38 721.806 1099.85 722.971C1100.31 724.136 1100.46 725.391 1100.27 726.615L1099.39 732.17C1094.45 732.288 1089.76 734.154 1086.22 737.407C1082.69 740.66 1080.57 745.068 1080.27 749.776C1079.97 754.484 1081.51 759.158 1084.6 762.89C1087.68 766.622 1092.1 769.147 1096.98 769.976C1101.86 770.805 1106.86 769.878 1111.01 767.376C1115.17 764.873 1118.18 760.973 1119.46 756.431C1120.74 751.89 1120.2 747.03 1117.95 742.795C1115.7 738.559 1111.89 735.25 1107.27 733.508L1119.79 654.061C1119.9 653.318 1119.79 652.554 1119.45 651.868C1119.11 651.181 1118.57 650.603 1117.9 650.205C1117.22 649.807 1116.44 649.607 1115.65 649.632C1114.86 649.656 1114.1 649.904 1113.47 650.342L1109.91 652.802C1105.7 655.711 1102.45 659.704 1100.53 664.324L1089.66 690.48ZM1088.35 749.349C1088.1 750.835 1088.17 752.356 1088.54 753.826C1088.92 755.296 1089.59 756.685 1090.52 757.913C1091.46 759.141 1092.63 760.185 1093.98 760.983C1095.34 761.781 1096.84 762.319 1098.4 762.565C1099.96 762.811 1101.55 762.76 1103.08 762.416C1104.61 762.071 1106.05 761.44 1107.32 760.559C1108.59 759.677 1109.65 758.562 1110.46 757.278C1111.27 755.995 1111.8 754.567 1112.02 753.079C1112.47 750.098 1111.66 747.051 1109.78 744.603C1107.89 742.155 1105.07 740.505 1101.95 740.013C1098.82 739.52 1095.64 740.226 1093.09 741.975C1090.54 743.724 1088.84 746.375 1088.35 749.349ZM1103.83 710.207C1104.49 709.426 1104.79 708.423 1104.67 707.417C1104.55 706.412 1104.02 705.486 1103.19 704.845C1102.36 704.204 1101.31 703.899 1100.26 703.998C1099.21 704.097 1098.24 704.591 1097.59 705.372C1096.93 706.153 1096.62 707.156 1096.74 708.162C1096.86 709.168 1097.39 710.093 1098.22 710.734C1099.05 711.375 1100.1 711.68 1101.16 711.581C1102.21 711.482 1103.17 710.988 1103.83 710.207Z" fill="#073D3D" fill-opacity="0.4"/>
<path d="M1117.75 692.609C1117.86 691.949 1118.14 691.33 1118.58 690.813C1119.02 690.296 1119.59 689.9 1120.24 689.664L1151.28 678.453C1152.02 678.188 1152.82 678.139 1153.59 678.31C1154.36 678.482 1155.07 678.868 1155.61 679.418C1156.16 679.969 1156.53 680.66 1156.67 681.404C1156.81 682.148 1156.71 682.911 1156.4 683.597L1154.63 687.438C1152.54 691.99 1149.15 695.869 1144.83 698.635L1121.22 713.767C1120.58 714.179 1119.83 714.4 1119.05 714.405C1118.27 714.41 1117.51 714.198 1116.85 713.795C1116.19 713.392 1115.66 712.816 1115.34 712.137C1115.01 711.458 1114.9 710.706 1115.02 709.973L1117.75 692.609Z" fill="#073D3D" fill-opacity="0.4"/>
</g>
<path d="M-26.5004 792.5C-52.5003 578.5 131.225 374.887 306 390C439 401.5 488.979 432.69 553.407 503.665C617.835 574.641 828.384 844.304 1030.5 752.001C1307.5 625.501 1066.16 347.225 946.837 246.98C827.514 146.734 905.784 6.51267 1011.89 29.506C1118 52.4993 1030 26.7712 1273 127.999C1516 229.228 1622.13 27.2515 1568.5 -4.50092" stroke="#6A8B8B" stroke-opacity="0.4" stroke-width="10.4483" stroke-linecap="square" stroke-dasharray="27.86 27.86"/>
<g clip-path="url(#clip2_855_3368)">
<path fill-rule="evenodd" clip-rule="evenodd" d="M42.9879 493.795C42.6063 498.524 40.4216 502.88 36.8575 506.019C33.2933 509.159 28.6036 510.857 23.6975 510.786C18.7914 510.715 14.0183 508.878 10.3037 505.633C6.58899 502.388 4.19731 497.965 3.59228 493.222C2.98724 488.479 4.21196 483.754 7.029 479.962C9.84604 476.17 14.0547 473.582 18.8392 472.699C23.6236 471.816 28.643 472.702 32.9242 475.185C37.2054 477.667 40.4436 481.569 42.0108 486.135L48.9053 485.752C49.4653 485.721 50.0302 485.806 50.5625 486.002C51.0949 486.198 51.5823 486.5 51.9924 486.888C52.4025 487.276 52.7259 487.742 52.941 488.254C53.1561 488.765 53.258 489.312 53.2399 489.856L53.2355 489.903C53.203 490.898 52.7717 491.828 52.0329 492.494C51.2941 493.161 50.3058 493.513 49.2772 493.475C49.0412 493.467 48.8055 493.47 48.5707 493.484L42.9879 493.795ZM11.419 492.241C11.1254 489.281 12.016 486.368 13.9057 484.108C15.7953 481.848 18.5385 480.416 21.5646 480.108C24.5908 479.8 27.667 480.642 30.1533 482.457C32.6396 484.272 34.3448 486.921 34.914 489.854C34.8945 490.3 34.9552 490.749 35.0933 491.181C35.3573 494.234 34.3633 497.218 32.33 499.476C30.2967 501.735 27.3907 503.082 24.2513 503.223C21.1119 503.363 17.9963 502.285 15.5897 500.226C13.1832 498.167 11.683 495.294 11.419 492.241ZM62.7378 475.348C59.9472 478.758 58.1314 482.839 57.4634 487.201C56.7953 491.564 57.2974 496.061 58.9216 500.266C59.6719 502.207 60.6604 504.093 61.8915 505.877C62.621 506.934 63.063 508.146 63.1743 509.396C63.2857 510.645 63.0627 511.889 62.5271 513.006L60.0938 518.076C55.3267 516.771 50.2966 517.212 45.9788 519.314C41.6609 521.417 38.3628 525.03 36.7238 529.454C35.0849 533.878 35.2219 538.798 37.1082 543.259C38.9946 547.72 42.4959 551.405 46.9334 553.599C51.371 555.794 56.4286 556.341 61.1257 555.136C65.8229 553.931 69.825 551.058 72.3562 547.075C74.8873 543.093 75.7673 538.283 74.8253 533.58C73.8834 528.876 71.1868 524.614 67.2582 521.619L102.048 449.105C102.373 448.426 102.48 447.662 102.355 446.908C102.23 446.154 101.878 445.444 101.345 444.869C100.811 444.293 100.119 443.878 99.3573 443.675C98.5951 443.473 97.7966 443.492 97.0628 443.73L92.9506 445.065C88.083 446.644 83.8227 449.536 80.6556 453.411L62.7378 475.348ZM44.5874 531.364C43.9268 532.717 43.5537 534.193 43.4896 535.708C43.4256 537.223 43.6717 538.747 44.2139 540.192C44.7562 541.636 45.5838 542.974 46.6491 544.126C47.7144 545.279 48.9964 546.224 50.4212 546.907C51.8461 547.591 53.3856 547.999 54.9513 548.109C56.517 548.218 58.0778 548.027 59.5439 547.546C61.01 547.065 62.3525 546.303 63.494 545.305C64.6355 544.307 65.5535 543.092 66.1952 541.73C67.48 539.003 67.5809 535.853 66.4756 532.966C65.3704 530.08 63.1489 527.692 60.2959 526.323C57.4428 524.954 54.1899 524.716 51.247 525.661C48.3041 526.605 45.9101 528.655 44.5874 531.364ZM70.648 498.31C71.5036 497.751 72.0823 496.877 72.2567 495.88C72.4311 494.882 72.187 493.843 71.5781 492.991C70.9691 492.14 70.0453 491.545 69.0097 491.338C67.9741 491.131 66.9117 491.328 66.0561 491.887C65.2005 492.446 64.6219 493.32 64.4475 494.318C64.273 495.315 64.5171 496.354 65.1261 497.206C65.735 498.058 66.6589 498.652 67.6944 498.86C68.73 499.067 69.7924 498.869 70.648 498.31Z" fill="#073D3D" fill-opacity="0.4"/>
<path d="M89.0396 485.448C89.3285 484.846 89.7787 484.334 90.345 483.964C90.9113 483.595 91.5737 483.38 92.2656 483.341L125.219 481.509C125.999 481.466 126.783 481.649 127.472 482.035C128.162 482.421 128.725 482.992 129.092 483.677C129.458 484.361 129.611 485.128 129.531 485.881C129.451 486.633 129.142 487.337 128.642 487.904L125.851 491.078C122.542 494.838 118.174 497.58 113.246 498.99L86.2892 506.712C85.5572 506.922 84.7698 506.918 84.0237 506.699C83.2776 506.481 82.6053 506.058 82.0894 505.483C81.5736 504.908 81.2367 504.205 81.1201 503.461C81.0036 502.717 81.1125 501.965 81.4334 501.297L89.0396 485.448Z" fill="#073D3D" fill-opacity="0.4"/>
</g>
<defs>
<clipPath id="clip0_855_3368">
<rect width="145.986" height="140.461" fill="white" transform="matrix(0.892579 0.450891 -0.476983 0.878913 1011.4 -51.6152)"/>
</clipPath>
<clipPath id="clip1_855_3368">
<rect width="123.304" height="126.332" fill="white" transform="matrix(0.645076 -0.764119 0.790551 0.612397 1011 716.219)"/>
</clipPath>
<clipPath id="clip2_855_3368">
<rect width="123.304" height="126.332" fill="white" transform="matrix(0.837216 -0.546873 0.58157 0.813496 -20 477.432)"/>
</clipPath>
</defs>
</svg>
