<svg width="143" height="139" viewBox="0 0 143 139" fill="none" xmlns="http://www.w3.org/2000/svg">
<ellipse cx="71.0316" cy="69.3306" rx="71.0316" ry="69.19" fill="#F3F3EE"/>
<path d="M124.658 69.3305C124.658 98.0545 100.729 121.482 71.0323 121.482C41.3361 121.482 17.407 98.0545 17.407 69.3305C17.407 40.6065 41.3361 17.1785 71.0323 17.1785C100.729 17.1785 124.658 40.6065 124.658 69.3305Z" fill="white" stroke="#073D3D" stroke-width="6.39999"/>
<path d="M59.0534 52.8954C60.0985 52.8954 60.9457 52.0702 60.9457 51.0522C60.9457 50.0342 60.0985 49.209 59.0534 49.209C58.0083 49.209 57.1611 50.0342 57.1611 51.0522C57.1611 52.0702 58.0083 52.8954 59.0534 52.8954Z" fill="#073D3D"/>
<path d="M59.0534 67.6415C60.0985 67.6415 60.9457 66.8163 60.9457 65.7983C60.9457 64.7803 60.0985 63.9551 59.0534 63.9551C58.0083 63.9551 57.1611 64.7803 57.1611 65.7983C57.1611 66.8163 58.0083 67.6415 59.0534 67.6415Z" fill="#073D3D"/>
<path d="M59.0534 82.3876C60.0985 82.3876 60.9457 81.5623 60.9457 80.5444C60.9457 79.5264 60.0985 78.7012 59.0534 78.7012C58.0083 78.7012 57.1611 79.5264 57.1611 80.5444C57.1611 81.5623 58.0083 82.3876 59.0534 82.3876Z" fill="#073D3D"/>
<path d="M83.6516 41.8379H53.3754C52.3716 41.8379 51.409 42.2263 50.6993 42.9176C49.9895 43.6089 49.5908 44.5466 49.5908 45.5243V86.0748C49.5908 87.0525 49.9895 87.9901 50.6993 88.6815C51.409 89.3728 52.3716 89.7612 53.3754 89.7612H72.298V86.0748H53.3754V75.0156H87.4362V45.5243C87.4362 44.5466 87.0374 43.6089 86.3277 42.9176C85.618 42.2263 84.6554 41.8379 83.6516 41.8379ZM83.6516 71.3292H53.3754V60.2699H83.6516V71.3292ZM83.6516 56.5835H53.3754V45.5243H83.6516V56.5835Z" fill="#073D3D"/>
<path d="M93.1137 81.3093L90.4381 78.7012L85.5447 83.4695L80.6513 78.7012L77.9756 81.3093L82.869 86.074L77.9756 90.8405L80.6513 93.4468L85.5447 88.6803L90.4381 93.4468L93.1137 90.8405L88.2203 86.074L93.1137 81.3093Z" fill="#073D3D"/>
</svg>
