<svg width="143" height="139" viewBox="0 0 143 139" fill="none" xmlns="http://www.w3.org/2000/svg">
<ellipse cx="71.0316" cy="69.5708" rx="71.0316" ry="69.19" fill="#F3F3EE"/>
<path d="M124.657 69.5707C124.657 98.2947 100.728 121.723 71.0314 121.723C41.3352 121.723 17.4061 98.2947 17.4061 69.5707C17.4061 40.8467 41.3352 17.4187 71.0314 17.4187C100.728 17.4187 124.657 40.8467 124.657 69.5707Z" fill="white" stroke="#073D3D" stroke-width="6.39999"/>
<path d="M50.927 51.5625H65.4829V65.8985H50.927V51.5625ZM55.779 56.3412V61.1198H60.631V56.3412H55.779ZM70.3349 56.3412H94.5946V61.1198H70.3349V56.3412ZM70.3349 75.4558H94.5946V80.2345H70.3349V75.4558ZM55.779 87.4025L47.2881 79.0398L50.7087 75.6709L55.779 80.6407L66.9142 69.6975L70.3349 73.0665L55.779 87.4025Z" fill="#073D3D"/>
</svg>
