<svg width="206" height="57" viewBox="0 0 206 57" fill="none" xmlns="http://www.w3.org/2000/svg">
<path d="M0 28.5C0 12.7599 12.7599 0 28.5 0H177.5C193.24 0 206 12.7599 206 28.5V28.5C206 44.2401 193.24 57 177.5 57H28.5C12.7599 57 0 44.2401 0 28.5V28.5Z" fill="#073D3D"/>
<path d="M58.6753 30.52V28.552H63.2113C63.8353 28.552 64.3873 28.424 64.8673 28.168C65.3633 27.912 65.7473 27.552 66.0193 27.088C66.3073 26.624 66.4513 26.072 66.4513 25.432C66.4513 24.792 66.3073 24.24 66.0193 23.776C65.7473 23.312 65.3633 22.952 64.8673 22.696C64.3873 22.44 63.8353 22.312 63.2113 22.312H58.6753V20.344H63.3553C64.3793 20.344 65.2913 20.552 66.0913 20.968C66.9073 21.384 67.5473 21.976 68.0113 22.744C68.4913 23.496 68.7313 24.392 68.7313 25.432C68.7313 26.456 68.4913 27.352 68.0113 28.12C67.5473 28.872 66.9073 29.464 66.0913 29.896C65.2913 30.312 64.3793 30.52 63.3553 30.52H58.6753ZM57.1633 37V20.344H59.4193V37H57.1633ZM71.334 37V25.6H73.494V37H71.334ZM73.494 30.496L72.678 30.136C72.678 28.68 73.014 27.52 73.686 26.656C74.358 25.792 75.326 25.36 76.59 25.36C77.166 25.36 77.686 25.464 78.15 25.672C78.614 25.864 79.046 26.192 79.446 26.656L78.03 28.12C77.79 27.864 77.526 27.68 77.238 27.568C76.95 27.456 76.614 27.4 76.23 27.4C75.43 27.4 74.774 27.656 74.262 28.168C73.75 28.68 73.494 29.456 73.494 30.496ZM85.7998 37.24C84.6798 37.24 83.6718 36.976 82.7758 36.448C81.8798 35.92 81.1678 35.208 80.6398 34.312C80.1118 33.4 79.8478 32.384 79.8478 31.264C79.8478 30.16 80.1118 29.168 80.6398 28.288C81.1678 27.392 81.8798 26.68 82.7758 26.152C83.6718 25.624 84.6798 25.36 85.7998 25.36C86.9038 25.36 87.9038 25.624 88.7998 26.152C89.7118 26.664 90.4318 27.368 90.9598 28.264C91.4878 29.16 91.7518 30.16 91.7518 31.264C91.7518 32.384 91.4878 33.4 90.9598 34.312C90.4318 35.208 89.7118 35.92 88.7998 36.448C87.9038 36.976 86.9038 37.24 85.7998 37.24ZM85.7998 35.152C86.5198 35.152 87.1598 34.984 87.7198 34.648C88.2798 34.312 88.7198 33.856 89.0398 33.28C89.3598 32.688 89.5198 32.016 89.5198 31.264C89.5198 30.528 89.3518 29.872 89.0158 29.296C88.6958 28.72 88.2558 28.272 87.6958 27.952C87.1518 27.616 86.5198 27.448 85.7998 27.448C85.0798 27.448 84.4398 27.616 83.8798 27.952C83.3198 28.272 82.8798 28.72 82.5598 29.296C82.2398 29.872 82.0798 30.528 82.0798 31.264C82.0798 32.016 82.2398 32.688 82.5598 33.28C82.8798 33.856 83.3198 34.312 83.8798 34.648C84.4398 34.984 85.0798 35.152 85.7998 35.152ZM100.186 37.24C99.3216 37.24 98.5376 37.064 97.8336 36.712C97.1456 36.344 96.5936 35.84 96.1776 35.2C95.7616 34.56 95.5296 33.832 95.4816 33.016V29.584C95.5296 28.752 95.7616 28.024 96.1776 27.4C96.6096 26.76 97.1696 26.264 97.8576 25.912C98.5616 25.544 99.3376 25.36 100.186 25.36C101.226 25.36 102.162 25.624 102.994 26.152C103.842 26.68 104.506 27.392 104.986 28.288C105.466 29.184 105.706 30.192 105.706 31.312C105.706 32.432 105.466 33.44 104.986 34.336C104.506 35.232 103.842 35.944 102.994 36.472C102.162 36.984 101.226 37.24 100.186 37.24ZM99.8256 35.2C100.546 35.2 101.178 35.032 101.722 34.696C102.266 34.36 102.698 33.904 103.018 33.328C103.338 32.736 103.498 32.056 103.498 31.288C103.498 30.536 103.338 29.864 103.018 29.272C102.698 28.68 102.266 28.224 101.722 27.904C101.178 27.568 100.554 27.4 99.8496 27.4C99.1296 27.4 98.4976 27.568 97.9536 27.904C97.4096 28.224 96.9856 28.68 96.6816 29.272C96.3776 29.864 96.2256 30.544 96.2256 31.312C96.2256 32.064 96.3696 32.736 96.6576 33.328C96.9616 33.904 97.3856 34.36 97.9296 34.696C98.4896 35.032 99.1216 35.2 99.8256 35.2ZM94.1856 37V19.864H96.3456V28.384L95.9376 31.144L96.3456 33.928V37H94.1856ZM108.154 37V19.864H110.314V37H108.154ZM118.755 37.24C117.619 37.24 116.595 36.984 115.683 36.472C114.771 35.944 114.051 35.232 113.523 34.336C112.995 33.44 112.731 32.424 112.731 31.288C112.731 30.168 112.987 29.16 113.499 28.264C114.027 27.368 114.731 26.664 115.611 26.152C116.507 25.624 117.507 25.36 118.611 25.36C119.667 25.36 120.595 25.6 121.395 26.08C122.211 26.56 122.843 27.224 123.291 28.072C123.755 28.92 123.987 29.88 123.987 30.952C123.987 31.112 123.979 31.288 123.963 31.48C123.947 31.656 123.915 31.864 123.867 32.104H114.243V30.304H122.715L121.923 31C121.923 30.232 121.787 29.584 121.515 29.056C121.243 28.512 120.859 28.096 120.363 27.808C119.867 27.504 119.267 27.352 118.563 27.352C117.827 27.352 117.179 27.512 116.619 27.832C116.059 28.152 115.627 28.6 115.323 29.176C115.019 29.752 114.867 30.432 114.867 31.216C114.867 32.016 115.027 32.72 115.347 33.328C115.667 33.92 116.123 34.384 116.715 34.72C117.307 35.04 117.987 35.2 118.755 35.2C119.395 35.2 119.979 35.088 120.507 34.864C121.051 34.64 121.515 34.304 121.899 33.856L123.291 35.272C122.747 35.912 122.075 36.4 121.275 36.736C120.491 37.072 119.651 37.24 118.755 37.24ZM126.342 37V25.6H128.502V37H126.342ZM134.046 37V30.112C134.046 29.264 133.782 28.6 133.254 28.12C132.742 27.624 132.094 27.376 131.31 27.376C130.782 27.376 130.31 27.488 129.894 27.712C129.478 27.936 129.142 28.248 128.886 28.648C128.63 29.048 128.502 29.528 128.502 30.088L127.614 29.656C127.614 28.792 127.798 28.04 128.166 27.4C128.55 26.76 129.07 26.264 129.726 25.912C130.382 25.544 131.118 25.36 131.934 25.36C132.734 25.36 133.454 25.536 134.094 25.888C134.75 26.24 135.262 26.736 135.63 27.376C136.014 28.016 136.206 28.776 136.206 29.656V37H134.046ZM141.75 37V30.112C141.75 29.264 141.486 28.6 140.958 28.12C140.446 27.624 139.806 27.376 139.038 27.376C138.51 27.376 138.03 27.488 137.598 27.712C137.182 27.936 136.846 28.248 136.59 28.648C136.334 29.048 136.206 29.528 136.206 30.088L134.982 29.656C135.03 28.776 135.262 28.024 135.678 27.4C136.11 26.76 136.662 26.264 137.334 25.912C138.006 25.544 138.742 25.36 139.542 25.36C140.374 25.36 141.118 25.536 141.774 25.888C142.43 26.24 142.95 26.736 143.334 27.376C143.734 28.016 143.934 28.784 143.934 29.68V37H141.75ZM148.529 37.24C148.081 37.24 147.705 37.088 147.401 36.784C147.113 36.464 146.969 36.096 146.969 35.68C146.969 35.216 147.113 34.84 147.401 34.552C147.705 34.248 148.081 34.096 148.529 34.096C148.977 34.096 149.345 34.248 149.633 34.552C149.937 34.84 150.089 35.216 150.089 35.68C150.089 36.096 149.937 36.464 149.633 36.784C149.345 37.088 148.977 37.24 148.529 37.24ZM148.529 29.752C148.081 29.752 147.705 29.6 147.401 29.296C147.113 28.992 146.969 28.624 146.969 28.192C146.969 27.728 147.113 27.352 147.401 27.064C147.705 26.76 148.081 26.608 148.529 26.608C148.977 26.608 149.345 26.76 149.633 27.064C149.937 27.352 150.089 27.728 150.089 28.192C150.089 28.624 149.937 28.992 149.633 29.296C149.345 29.6 148.977 29.752 148.529 29.752Z" fill="white"/>
</svg>
