<svg width="143" height="139" viewBox="0 0 143 139" fill="none" xmlns="http://www.w3.org/2000/svg">
<ellipse cx="71.0316" cy="69.19" rx="71.0316" ry="69.19" fill="#F3F3EE"/>
<path d="M124.658 69.1899C124.658 97.9139 100.729 121.342 71.0323 121.342C41.3361 121.342 17.407 97.9139 17.407 69.1899C17.407 40.4658 41.3361 17.0379 71.0323 17.0379C100.729 17.0379 124.658 40.4658 124.658 69.1899Z" fill="white" stroke="#073D3D" stroke-width="6.39999"/>
<path fill-rule="evenodd" clip-rule="evenodd" d="M72.92 40.959C71.5562 40.9585 70.2095 41.2557 68.9792 41.8289C67.7488 42.4021 66.6659 43.2365 65.8102 44.271C64.2389 43.4547 62.4859 43.0268 60.7051 43.0249C54.2536 43.0249 49.456 48.3491 49.5644 54.2473C45.8981 56.0463 43.3633 59.7155 43.3633 64.0086C43.3633 68.2844 45.2555 70.9378 47.2542 72.4873C48.0742 73.1228 48.8863 73.5567 49.5427 73.8486C49.4875 79.7103 54.2733 84.973 60.6854 84.973C62.55 84.973 64.2806 84.5161 65.8004 83.7308C66.6561 84.7637 67.7383 85.5969 68.9678 86.1691C70.1972 86.7414 71.5426 87.0383 72.9052 87.0379C74.2678 87.0375 75.613 86.74 76.8421 86.167C78.0712 85.5941 79.153 84.7603 80.0081 83.727C81.5794 84.5432 83.3325 84.9711 85.1133 84.973C91.5627 84.973 96.3604 79.6546 96.2559 73.7602C99.9419 71.9746 102.496 68.3075 102.496 64.0086C102.496 59.7327 100.604 57.0793 98.6055 55.5299C97.9025 54.9869 97.134 54.5297 96.317 54.1686C96.3722 48.3068 91.5864 43.0441 85.1744 43.0441C83.3897 43.043 81.6322 43.4703 80.0574 44.2883C79.1996 43.2481 78.113 42.4088 76.8776 41.8326C75.6422 41.2563 74.2897 40.9578 72.92 40.959ZM68.1953 47.7443C68.6127 46.8657 69.2792 46.1217 70.1163 45.5999C70.9534 45.0781 71.9262 44.8002 72.92 44.799C75.0133 44.799 76.8149 45.9894 77.692 47.7827C77.8202 48.0443 78.0075 48.2742 78.2399 48.4553C78.4722 48.6363 78.7437 48.7637 79.0339 48.828C79.324 48.8923 79.6253 48.8918 79.9153 48.8264C80.2052 48.7611 80.4761 48.6327 80.7078 48.4508C81.9664 47.4421 83.5445 46.8885 85.1744 46.8841C89.5995 46.8841 92.9602 50.8854 92.29 55.1478C92.2359 55.4929 92.2792 55.8459 92.4153 56.169C92.5514 56.492 92.7752 56.7728 93.0627 56.9814C93.2263 57.1004 93.3742 57.1695 93.4136 57.1868C93.518 57.2348 93.6107 57.2675 93.6422 57.279L93.8275 57.3404L93.8748 57.3558C94.0246 57.4057 94.2217 57.471 94.4543 57.567C94.9274 57.759 95.5424 58.0623 96.1495 58.5327C97.2967 59.4236 98.5542 61.0095 98.5542 64.0086C98.5542 67.119 96.4727 69.7551 93.5476 70.7036C93.1043 70.8476 92.7279 71.1404 92.4856 71.5297C92.2433 71.9191 92.151 72.3796 92.225 72.8291C92.9228 77.101 89.5561 81.133 85.1152 81.133C83.4418 81.133 81.9102 80.5398 80.6349 79.5586C80.4016 79.3787 80.1295 79.2525 79.8391 79.1896C79.5486 79.1267 79.2473 79.1286 78.9577 79.1953C78.6681 79.262 78.3977 79.3917 78.167 79.5747C77.9362 79.7576 77.7509 79.9891 77.625 80.2518C77.2079 81.1306 76.5415 81.875 75.7044 82.3972C74.8672 82.9194 73.8943 83.1976 72.9003 83.199C70.8267 83.199 69.029 82.0066 68.1696 80.2422C68.0423 79.98 67.8555 79.7493 67.6235 79.5674C67.3914 79.3856 67.1201 79.2574 66.8299 79.1923C66.5397 79.1273 66.2381 79.1271 65.9478 79.1919C65.6575 79.2567 65.3861 79.3847 65.1538 79.5663C63.8948 80.5755 62.3159 81.1291 60.6854 81.133C56.2602 81.133 52.8995 77.1318 53.5697 72.8694C53.6238 72.5242 53.5805 72.1712 53.4444 71.8482C53.3083 71.5252 53.0845 71.2443 52.797 71.0358C52.6875 70.9558 52.57 70.887 52.4461 70.8303C52.3715 70.796 52.2952 70.7652 52.2175 70.7382L52.0322 70.6767L51.9849 70.6614C51.7892 70.5978 51.5959 70.5274 51.4054 70.4502C50.7973 70.2059 50.2269 69.8809 49.7102 69.4844C48.565 68.5916 47.3055 67.0076 47.3055 64.0086C47.3055 60.8905 49.3752 58.2543 52.2845 57.2886C52.7241 57.1426 53.0967 56.8501 53.3365 56.4626C53.5763 56.0752 53.668 55.6177 53.5953 55.1708C52.8975 50.8969 56.2622 46.8649 60.7051 46.8649C62.3785 46.8649 63.9101 47.4582 65.1854 48.4393C65.4188 48.6192 65.691 48.7453 65.9816 48.8081C66.2721 48.8708 66.5735 48.8687 66.8631 48.8018C67.1527 48.735 67.423 48.6051 67.6538 48.4219C67.8845 48.2388 68.0696 48.0071 68.1953 47.7443ZM50.2621 83.199C49.3562 83.199 48.4591 83.3728 47.6221 83.7105C46.7851 84.0482 46.0245 84.5432 45.3839 85.1672C44.7433 85.7912 44.2351 86.532 43.8884 87.3473C43.5417 88.1626 43.3633 89.0365 43.3633 89.919C43.3633 90.8014 43.5417 91.6753 43.8884 92.4906C44.2351 93.3059 44.7433 94.0467 45.3839 94.6707C46.0245 95.2947 46.7851 95.7897 47.6221 96.1274C48.4591 96.4651 49.3562 96.639 50.2621 96.639C52.0918 96.639 53.8466 95.931 55.1404 94.6707C56.4342 93.4105 57.161 91.7012 57.161 89.919C57.161 88.1367 56.4342 86.4274 55.1404 85.1672C53.8466 83.907 52.0918 83.199 50.2621 83.199ZM47.3055 89.919C47.3055 89.1551 47.617 88.4226 48.1715 87.8825C48.726 87.3424 49.478 87.039 50.2621 87.039C51.0463 87.039 51.7983 87.3424 52.3528 87.8825C52.9073 88.4226 53.2188 89.1551 53.2188 89.919C53.2188 90.6828 52.9073 91.4153 52.3528 91.9554C51.7983 92.4955 51.0463 92.799 50.2621 92.799C49.478 92.799 48.726 92.4955 48.1715 91.9554C47.617 91.4153 47.3055 90.6828 47.3055 89.919Z" fill="#073D3D"/>
<path d="M73.8151 72.6205L72.4337 71.4235C67.5273 67.1887 64.2881 64.3866 64.2881 60.9679C64.2881 58.1659 66.5936 55.9805 69.5279 55.9805C71.1856 55.9805 72.7766 56.715 73.8151 57.8666C74.8535 56.715 76.4445 55.9805 78.1022 55.9805C81.0366 55.9805 83.3421 58.1659 83.3421 60.9679C83.3421 64.3866 80.1029 67.1887 75.1965 71.4235L73.8151 72.6205Z" fill="#073D3D"/>
</svg>
