<svg width="143" height="139" viewBox="0 0 143 139" fill="none" xmlns="http://www.w3.org/2000/svg">
<ellipse cx="71.0316" cy="69.19" rx="71.0316" ry="69.19" fill="#F3F3EE"/>
<path d="M124.657 69.1899C124.657 97.9139 100.728 121.342 71.0314 121.342C41.3352 121.342 17.4061 97.9139 17.4061 69.1899C17.4061 40.4658 41.3352 17.0379 71.0314 17.0379C100.728 17.0379 124.657 40.4658 124.657 69.1899Z" fill="white" stroke="#073D3D" stroke-width="6.39999"/>
<path d="M91.7037 79.8388C93.0819 79.8388 94.2437 80.306 95.1893 81.2404C96.1348 82.1748 96.5995 83.2649 96.5835 84.5108L77.2806 91.5188L60.4537 86.8468V65.8228H65.1412L82.6171 72.1067C83.8671 72.5894 84.4921 73.4615 84.4921 74.723C84.4921 75.4549 84.2197 76.0934 83.6748 76.6385C83.13 77.1836 82.4409 77.4717 81.6075 77.5028H74.8768L70.67 75.9377L69.8768 78.1335L74.8768 79.8388H91.7037ZM82.0883 47.6721C83.787 45.7566 85.9505 44.7988 88.5787 44.7988C90.7582 44.7988 92.6011 45.5775 94.1075 47.1348C95.6139 48.6922 96.4152 50.4831 96.5114 52.5076C96.5114 54.1117 95.7101 56.0272 94.1075 58.2542C92.505 60.4812 90.9264 62.3422 89.3719 63.8372C87.8175 65.3323 85.3896 67.5515 82.0883 70.4948C78.755 67.5515 76.303 65.3323 74.7325 63.8372C73.162 62.3422 71.5835 60.4812 69.997 58.2542C68.4104 56.0272 67.6332 54.1117 67.6652 52.5076C67.6652 50.3897 68.4425 48.5987 69.997 47.1348C71.5515 45.6709 73.4265 44.8923 75.622 44.7988C78.1861 44.7988 80.3415 45.7566 82.0883 47.6721ZM45.9922 65.8228H55.646V91.5188H45.9922V65.8228Z" fill="#073D3D"/>
</svg>
