<svg width="206" height="57" viewBox="0 0 206 57" fill="none" xmlns="http://www.w3.org/2000/svg">
<path d="M0 28.5C0 12.7599 12.7599 0 28.5 0H177.5C193.24 0 206 12.7599 206 28.5V28.5C206 44.2401 193.24 57 177.5 57H28.5C12.7599 57 0 44.2401 0 28.5V28.5Z" fill="#073D3D"/>
<path d="M63.6508 36.24C62.3388 36.24 61.2188 36 60.2908 35.52C59.3628 35.04 58.5388 34.344 57.8188 33.432L59.3548 31.896C59.8828 32.632 60.4908 33.192 61.1788 33.576C61.8668 33.944 62.7148 34.128 63.7228 34.128C64.7148 34.128 65.5068 33.912 66.0988 33.48C66.7068 33.048 67.0108 32.456 67.0108 31.704C67.0108 31.08 66.8668 30.576 66.5788 30.192C66.2908 29.808 65.8988 29.496 65.4028 29.256C64.9228 29 64.3948 28.776 63.8188 28.584C63.2428 28.376 62.6668 28.16 62.0908 27.936C61.5148 27.696 60.9868 27.408 60.5068 27.072C60.0268 26.72 59.6348 26.264 59.3308 25.704C59.0428 25.144 58.8988 24.44 58.8988 23.592C58.8988 22.648 59.1228 21.848 59.5708 21.192C60.0348 20.52 60.6588 20.008 61.4428 19.656C62.2428 19.288 63.1388 19.104 64.1308 19.104C65.2188 19.104 66.1948 19.32 67.0588 19.752C67.9228 20.168 68.6268 20.72 69.1708 21.408L67.6348 22.944C67.1388 22.368 66.6028 21.936 66.0268 21.648C65.4668 21.36 64.8188 21.216 64.0828 21.216C63.1868 21.216 62.4748 21.416 61.9468 21.816C61.4188 22.2 61.1548 22.744 61.1548 23.448C61.1548 24.008 61.2988 24.464 61.5868 24.816C61.8908 25.152 62.2828 25.44 62.7628 25.68C63.2428 25.92 63.7708 26.144 64.3468 26.352C64.9388 26.544 65.5228 26.76 66.0988 27C66.6748 27.24 67.2028 27.544 67.6828 27.912C68.1628 28.28 68.5468 28.76 68.8348 29.352C69.1388 29.928 69.2908 30.656 69.2908 31.536C69.2908 33.008 68.7788 34.16 67.7548 34.992C66.7468 35.824 65.3788 36.24 63.6508 36.24ZM76.9912 36.24C75.8712 36.24 74.8632 35.976 73.9672 35.448C73.0712 34.92 72.3592 34.208 71.8312 33.312C71.3032 32.4 71.0392 31.384 71.0392 30.264C71.0392 29.16 71.3032 28.168 71.8312 27.288C72.3592 26.392 73.0712 25.68 73.9672 25.152C74.8632 24.624 75.8712 24.36 76.9912 24.36C78.0952 24.36 79.0952 24.624 79.9912 25.152C80.9032 25.664 81.6232 26.368 82.1512 27.264C82.6792 28.16 82.9432 29.16 82.9432 30.264C82.9432 31.384 82.6792 32.4 82.1512 33.312C81.6232 34.208 80.9032 34.92 79.9912 35.448C79.0952 35.976 78.0952 36.24 76.9912 36.24ZM76.9912 34.152C77.7112 34.152 78.3512 33.984 78.9112 33.648C79.4712 33.312 79.9112 32.856 80.2312 32.28C80.5512 31.688 80.7112 31.016 80.7112 30.264C80.7112 29.528 80.5432 28.872 80.2072 28.296C79.8872 27.72 79.4472 27.272 78.8872 26.952C78.3432 26.616 77.7112 26.448 76.9912 26.448C76.2712 26.448 75.6312 26.616 75.0712 26.952C74.5112 27.272 74.0712 27.72 73.7512 28.296C73.4312 28.872 73.2712 29.528 73.2712 30.264C73.2712 31.016 73.4312 31.688 73.7512 32.28C74.0712 32.856 74.5112 33.312 75.0712 33.648C75.6312 33.984 76.2712 34.152 76.9912 34.152ZM85.377 36V18.864H87.537V36H85.377ZM95.2813 36.24C94.3533 36.24 93.5133 36.032 92.7613 35.616C92.0253 35.184 91.4493 34.592 91.0333 33.84C90.6173 33.088 90.4093 32.216 90.4093 31.224V24.6H92.5693V31.128C92.5693 31.752 92.6733 32.296 92.8813 32.76C93.1053 33.208 93.4253 33.552 93.8413 33.792C94.2573 34.032 94.7453 34.152 95.3053 34.152C96.1533 34.152 96.8173 33.888 97.2973 33.36C97.7773 32.816 98.0173 32.072 98.0173 31.128V24.6H100.177V31.224C100.177 32.216 99.9693 33.088 99.5533 33.84C99.1373 34.592 98.5613 35.184 97.8253 35.616C97.1053 36.032 96.2573 36.24 95.2813 36.24ZM104.824 36V19.824H106.984V36H104.824ZM102.016 26.568V24.6H109.792V26.568H102.016ZM111.932 36V24.6H114.092V36H111.932ZM113.012 22.32C112.612 22.32 112.284 22.192 112.028 21.936C111.772 21.664 111.644 21.328 111.644 20.928C111.644 20.544 111.772 20.224 112.028 19.968C112.284 19.696 112.612 19.56 113.012 19.56C113.412 19.56 113.74 19.696 113.996 19.968C114.252 20.224 114.38 20.544 114.38 20.928C114.38 21.328 114.252 21.664 113.996 21.936C113.74 22.192 113.412 22.32 113.012 22.32ZM122.483 36.24C121.363 36.24 120.355 35.976 119.459 35.448C118.563 34.92 117.851 34.208 117.323 33.312C116.795 32.4 116.531 31.384 116.531 30.264C116.531 29.16 116.795 28.168 117.323 27.288C117.851 26.392 118.563 25.68 119.459 25.152C120.355 24.624 121.363 24.36 122.483 24.36C123.587 24.36 124.587 24.624 125.483 25.152C126.395 25.664 127.115 26.368 127.643 27.264C128.171 28.16 128.435 29.16 128.435 30.264C128.435 31.384 128.171 32.4 127.643 33.312C127.115 34.208 126.395 34.92 125.483 35.448C124.587 35.976 123.587 36.24 122.483 36.24ZM122.483 34.152C123.203 34.152 123.843 33.984 124.403 33.648C124.963 33.312 125.403 32.856 125.723 32.28C126.043 31.688 126.203 31.016 126.203 30.264C126.203 29.528 126.035 28.872 125.699 28.296C125.379 27.72 124.939 27.272 124.379 26.952C123.835 26.616 123.203 26.448 122.483 26.448C121.763 26.448 121.123 26.616 120.563 26.952C120.003 27.272 119.563 27.72 119.243 28.296C118.923 28.872 118.763 29.528 118.763 30.264C118.763 31.016 118.923 31.688 119.243 32.28C119.563 32.856 120.003 33.312 120.563 33.648C121.123 33.984 121.763 34.152 122.483 34.152ZM138.933 36V29.352C138.933 28.488 138.661 27.776 138.117 27.216C137.573 26.656 136.869 26.376 136.005 26.376C135.429 26.376 134.917 26.504 134.469 26.76C134.021 27.016 133.669 27.368 133.413 27.816C133.157 28.264 133.029 28.776 133.029 29.352L132.141 28.848C132.141 27.984 132.333 27.216 132.717 26.544C133.101 25.872 133.637 25.344 134.325 24.96C135.013 24.56 135.789 24.36 136.653 24.36C137.517 24.36 138.277 24.576 138.933 25.008C139.605 25.44 140.133 26.008 140.517 26.712C140.901 27.4 141.093 28.136 141.093 28.92V36H138.933ZM130.869 36V24.6H133.029V36H130.869ZM145.674 36.24C145.226 36.24 144.85 36.088 144.546 35.784C144.258 35.464 144.114 35.096 144.114 34.68C144.114 34.216 144.258 33.84 144.546 33.552C144.85 33.248 145.226 33.096 145.674 33.096C146.122 33.096 146.49 33.248 146.778 33.552C147.082 33.84 147.234 34.216 147.234 34.68C147.234 35.096 147.082 35.464 146.778 35.784C146.49 36.088 146.122 36.24 145.674 36.24ZM145.674 28.752C145.226 28.752 144.85 28.6 144.546 28.296C144.258 27.992 144.114 27.624 144.114 27.192C144.114 26.728 144.258 26.352 144.546 26.064C144.85 25.76 145.226 25.608 145.674 25.608C146.122 25.608 146.49 25.76 146.778 26.064C147.082 26.352 147.234 26.728 147.234 27.192C147.234 27.624 147.082 27.992 146.778 28.296C146.49 28.6 146.122 28.752 145.674 28.752Z" fill="white"/>
</svg>
